<svg xmlns="http://www.w3.org/2000/svg" xmlns:android="http://schemas.android.com/apk/res/android" width="1300dp" height="1300dp" viewportWidth="1300" viewportHeight="1300">
	<path d="M570,430.9c-17.4,0.5 -26.5,1.1 -28.5,1.9 -8.3,3.6 -15.3,12.7 -22.1,28.9l-3.8,9.3 -5.1,0.9c-2.7,0.6 -10.8,2.1 -18,3.5 -27.7,5.4 -60.8,16.5 -85.3,28.5 -5.6,2.8 -10.5,5.1 -10.7,5.1 -1,-0 -24.1,13.9 -33.5,20.2 -12.4,8.4 -20.1,14.3 -33,25.4l-9.6,8.2 -34.3,1.2c-37.5,1.2 -41.5,1.7 -51.1,5.3 -23.9,9 -38.5,23.8 -46.7,47.1 -2.8,8.1 -2.8,8.1 -2.6,32.1 0.1,21 3.2,85.2 4.9,102 1.6,15.9 11.6,26.7 29.6,31.9 9.3,2.7 52.8,6.6 52.8,4.8 0,-0.6 -0.8,-4.1 -1.7,-7.9 -2.6,-10.6 -2.3,-32.2 0.6,-44.3 9,-36.6 35.4,-66.1 70,-77.9 32.4,-11.1 66.3,-6.4 96.1,13.4 7.4,4.9 18.9,16.1 25.5,25 6.2,8.2 13.7,24 17.1,36 2.6,9.3 2.8,11.3 2.8,27 0,12.8 -0.4,18.5 -1.7,23.1 -0.9,3.4 -1.7,6.7 -1.7,7.3 0,0.8 46.8,1.1 171,1.1 94.1,-0 171,-0.1 171,-0.3 0,-0.1 -0.5,-1.8 -1,-3.7 -5.6,-18.5 -5,-40.2 1.6,-61.1 9.5,-30.2 34.3,-56.3 64.1,-67.5 21.2,-8 50,-8.7 71.3,-1.7 13.8,4.5 30.1,14.4 41.3,25.2 11.9,11.3 23.3,30.4 28.2,47 5,17.1 5.7,40.7 1.6,55.6l-1.9,6.7 31.7,-0.5c34.2,-0.4 38.4,-1 46.2,-6.1 2.1,-1.5 5.1,-4.4 6.5,-6.6 3.6,-5.3 4.1,-13 3.3,-51 -0.6,-30.2 -0.7,-30.6 -3.6,-40.5 -5.8,-19.1 -15.1,-34.5 -29.3,-48.4 -6,-6 -20,-16.7 -24,-18.5 -1.4,-0.6 -2.7,-1.3 -3,-1.7 -0.3,-0.3 -4.8,-2.7 -10,-5.1 -19.9,-9.5 -39,-13.9 -79,-18.3 -27.1,-3 -59.2,-6.7 -83.5,-9.5 -9.3,-1.1 -18.3,-2 -19.9,-2 -2.2,-0 -5,-2.1 -13,-9.8 -15.5,-14.8 -19.3,-18.2 -30.6,-27.3 -46.8,-37.6 -99,-62.5 -153.2,-72.8l-9.2,-1.7 -1.7,-5.2c-2.6,-7.5 -10.5,-23.3 -13.2,-26.3 -1.4,-1.5 -4.4,-4 -6.7,-5.5l-4.3,-2.9 -17.6,-0.1c-9.7,-0 -29.1,0.2 -43.1,0.5zM622.4,487c47.1,3.5 97.7,19.5 133.8,42.3 23.1,14.6 44.8,36 53.2,52.5 5.5,10.8 3.4,12.7 -14.4,13.5 -13.7,0.6 -177.5,-0.9 -196,-1.8 -6.3,-0.2 -25.4,-1 -42.5,-1.5 -95.9,-3.2 -165.9,-9.3 -175.6,-15.3 -3.9,-2.4 -6.3,-16.9 -3.9,-23.2 1.6,-4.1 10.8,-13.3 18.9,-18.8 17.3,-11.7 41.5,-22.3 71.1,-31.2 27.4,-8.3 53,-13.4 79.8,-16 17.1,-1.6 57,-1.8 75.6,-0.5zM973,611.5c1.3,1.4 2.1,2.5 1.8,2.5 -0.2,-0 -1.5,-1.1 -2.8,-2.5 -1.3,-1.4 -2.1,-2.5 -1.8,-2.5 0.2,-0 1.5,1.1 2.8,2.5zM981,619.5c1.3,1.4 2.1,2.5 1.8,2.5 -0.2,-0 -1.5,-1.1 -2.8,-2.5 -1.3,-1.4 -2.1,-2.5 -1.8,-2.5 0.2,-0 1.5,1.1 2.8,2.5zM617,638l0,17 17,-0 17,-0 0,-17 0,-17 17,-0 17,-0 0,17 0,17 17,-0 16.9,-0 0.3,17 0.3,17 -17.2,-0 -17.3,-0 0,-17 0,-17 -17,-0 -17,-0 0,17 0,17 -17,-0 -17,-0 0,-17 0,-17 -17,-0 -17,-0 0,17 0,17 -17.5,-0 -17.5,-0 0,-17 0,-17 17.3,-0.2 17.2,-0.3 0.3,-16.8 0.2,-16.7 17,-0 17,-0 0,17zM989,627.5c1.3,1.4 2.1,2.5 1.8,2.5 -0.2,-0 -1.5,-1.1 -2.8,-2.5 -1.3,-1.4 -2.1,-2.5 -1.8,-2.5 0.2,-0 1.5,1.1 2.8,2.5zM997,635.5c1.3,1.4 2.1,2.5 1.8,2.5 -0.2,-0 -1.5,-1.1 -2.8,-2.5 -1.3,-1.4 -2.1,-2.5 -1.8,-2.5 0.2,-0 1.5,1.1 2.8,2.5zM1004.1,642.7c1.3,1.6 1.2,1.7 -0.3,0.4 -1,-0.7 -1.8,-1.5 -1.8,-1.7 0,-0.8 0.8,-0.3 2.1,1.3zM1037,675.5c1.3,1.4 2.1,2.5 1.8,2.5 -0.2,-0 -1.5,-1.1 -2.8,-2.5 -1.3,-1.4 -2.1,-2.5 -1.8,-2.5 0.2,-0 1.5,1.1 2.8,2.5zM1045,683.5c1.3,1.4 2.1,2.5 1.8,2.5 -0.2,-0 -1.5,-1.1 -2.8,-2.5 -1.3,-1.4 -2.1,-2.5 -1.8,-2.5 0.2,-0 1.5,1.1 2.8,2.5zM1053,691.5c1.3,1.4 2.1,2.5 1.8,2.5 -0.2,-0 -1.5,-1.1 -2.8,-2.5 -1.3,-1.4 -2.1,-2.5 -1.8,-2.5 0.2,-0 1.5,1.1 2.8,2.5zM604,697.4c0,0.2 -0.8,1 -1.7,1.7 -1.6,1.3 -1.7,1.2 -0.4,-0.4 1.3,-1.6 2.1,-2.1 2.1,-1.3zM1061,699.5c1.3,1.4 2.1,2.5 1.8,2.5 -0.2,-0 -1.5,-1.1 -2.8,-2.5 -1.3,-1.4 -2.1,-2.5 -1.8,-2.5 0.2,-0 1.5,1.1 2.8,2.5zM1069,707.5c1.3,1.4 2.1,2.5 1.8,2.5 -0.2,-0 -1.5,-1.1 -2.8,-2.5 -1.3,-1.4 -2.1,-2.5 -1.8,-2.5 0.2,-0 1.5,1.1 2.8,2.5zM622.5,708.7c0.4,1 4.1,10.6 8.2,21.3 9,23.3 9.5,24.3 12.6,25.7 3.5,1.6 7.1,-0.8 14.5,-10 9.7,-12 9.6,-10 1.2,-21.7 -4.8,-6.8 -8.3,-10.6 -10.1,-11.4 -1.7,-0.6 -2.9,-1.8 -2.9,-2.8 0,-1.6 1.2,-1.8 12.5,-1.8 11.7,-0 12.5,0.1 12.5,1.9 0,1.1 -0.9,2.3 -2.1,2.6 -2.4,0.8 -2.5,0.3 2.6,8.4l3.9,6.3 3.4,-3.8c1.8,-2.2 4,-5.2 4.9,-6.8 1.4,-2.7 1.4,-3.1 -0.1,-4.1 -0.9,-0.7 -1.6,-2 -1.6,-2.9 0,-1.4 1.3,-1.6 9,-1.6 8.1,-0 9,0.2 9,1.9 0,1.1 -1.1,2.4 -2.7,3 -2.6,1.1 -7.6,6.7 -14.5,16.1l-2.7,3.7 7.5,10.4c4.4,6.1 8.7,11 10.5,11.8 1.6,0.8 2.9,2.3 2.9,3.3 0,1.6 -1.1,1.8 -12.5,1.8 -10.8,-0 -12.5,-0.2 -12.5,-1.6 0,-0.9 1,-2.4 2.1,-3.3l2.1,-1.7 -4.5,-6.7 -4.5,-6.6 -5.5,6.8c-5.1,6.3 -5.4,6.8 -3.6,7.9 1,0.7 1.9,2.1 1.9,3.2 0,1.9 -0.8,1.9 -21.5,2 -20.1,-0 -21.5,-0.1 -21.5,-1.8 0,-1 1.3,-2.5 2.9,-3.3l3,-1.4 -2.1,-4.8 -2.1,-4.7 -9.2,-0 -9.3,-0 -1.6,4c-2.1,5.3 -2,5.9 0.9,7 1.5,0.6 2.5,1.7 2.5,3 0,1.9 -0.6,2 -9,2 -7.8,-0 -9,-0.2 -9,-1.7 0,-0.9 1.3,-2.8 2.9,-4.2 2.1,-1.9 4.8,-7.6 10.1,-21.1 4,-10.2 8.1,-20.2 9.1,-22.3 1.8,-3.5 2.2,-3.7 6.8,-3.7 3.7,-0 5.1,0.4 5.6,1.7zM586,716l0,8 -2.9,-0c-2.5,-0 -2.9,-0.4 -3.7,-4.3l-0.9,-4.2 -5.8,-0.3 -5.7,-0.3 0,19.1 0,19 3.5,1.7c2.1,1 3.5,2.4 3.5,3.5 0,1.6 -1.1,1.8 -13.5,1.8 -12.7,-0 -13.5,-0.1 -13.5,-1.9 0,-1.3 1.1,-2.4 3.5,-3.2l3.5,-1.3 0,-19.3 0,-19.3 -5.4,-0 -5.3,-0 -1.3,4.5c-1.1,4 -1.6,4.5 -4.1,4.5l-2.9,-0 0,-8 0,-8 25.5,-0 25.5,-0 0,8zM733,709.8c0,1.1 -1.3,2.3 -3.5,3.1l-3.5,1.2 0,19.8 0,19.7 3.5,1.3c2.4,0.8 3.5,1.9 3.5,3.2 0,1.8 -0.8,1.9 -13.5,1.9 -12.4,-0 -13.5,-0.2 -13.5,-1.8 0,-1.1 1.4,-2.5 3.5,-3.5l3.5,-1.7 0,-19.3 0,-19.3 -3.5,-1.3c-2.4,-0.8 -3.5,-1.9 -3.5,-3.2 0,-1.8 0.8,-1.9 13.5,-1.9 12.3,-0 13.5,0.2 13.5,1.8zM1077,715.5c1.3,1.4 2.1,2.5 1.8,2.5 -0.2,-0 -1.5,-1.1 -2.8,-2.5 -1.3,-1.4 -2.1,-2.5 -1.8,-2.5 0.2,-0 1.5,1.1 2.8,2.5zM1085,723.5c1.3,1.4 2.1,2.5 1.8,2.5 -0.2,-0 -1.5,-1.1 -2.8,-2.5 -1.3,-1.4 -2.1,-2.5 -1.8,-2.5 0.2,-0 1.5,1.1 2.8,2.5zM1092.5,731c1,1.1 1.6,2 1.3,2 -0.3,-0 -1.3,-0.9 -2.3,-2 -1,-1.1 -1.6,-2 -1.3,-2 0.3,-0 1.3,0.9 2.3,2zM547,754.4c0,0.2 -0.8,1 -1.7,1.7 -1.6,1.3 -1.7,1.2 -0.4,-0.4 1.3,-1.6 2.1,-2.1 2.1,-1.3z" fill="#EB2971" stroke="#00000000"/>
	<path d="M611.7,724.7c-0.8,2.7 -2.2,6.5 -3.1,8.5l-1.6,3.8 6.6,-0c5.9,-0 6.5,-0.2 5.9,-1.8 -0.4,-0.9 -1.8,-4.6 -3.2,-8.2 -1.4,-3.6 -2.6,-6.6 -2.7,-6.8 -0.2,-0.1 -1,1.9 -1.9,4.5z" fill="#EB2971" stroke="#00000000"/>
	<path d="M366,661.1c-14.5,1.7 -33.6,8.7 -44.3,16.2 -21.6,15.1 -37.3,39.6 -41.8,65.2 -1.9,11 -0.7,32.2 2.4,42.6 5.3,17.8 13.9,32.1 26.5,44.1 16.5,15.8 34.6,24.1 57.9,26.9 41.1,4.8 83.4,-19.7 99.6,-57.7 6.4,-15 8.1,-23.2 8.1,-39.4 0.1,-16.1 -1.8,-25.7 -7.6,-39.4 -9.4,-21.9 -29.5,-41.7 -52.2,-51.4 -14.2,-6 -33.9,-8.9 -48.6,-7.1zM396.1,696c44.1,14.7 59.9,66.3 31.6,103.5 -8,10.6 -23.9,20.6 -37.5,23.4 -2.9,0.6 -8.8,1.1 -13.2,1.1 -18.3,-0 -33.3,-6.2 -46.1,-19.1 -8.7,-8.7 -12.6,-15 -16.4,-26.4 -3.7,-10.9 -4,-27.5 -0.6,-38 2.8,-8.6 8.1,-18.5 13.3,-24.7 8.4,-10.1 24.5,-19.4 37.8,-21.9 7.6,-1.4 23.9,-0.3 31.1,2.1z" fill="#EB2971" stroke="#00000000"/>
	<path d="M907,661.2c-32.6,7 -57.8,26.6 -71.1,55.4 -16.9,36.6 -10.8,77.5 16,107.8 22.5,25.5 56.3,37.1 90.6,31.1 28.7,-5 54.8,-24.3 68.4,-50.5 15.1,-28.9 15.5,-62.4 1,-91.1 -7,-14 -19.2,-28.1 -31.9,-37 -10.1,-7 -23.4,-12.6 -37,-15.5 -7.4,-1.6 -29.1,-1.7 -36,-0.2zM940.3,694.5c5.1,1.3 14.7,5.5 20.4,8.9 3.1,1.7 10,8.2 14.6,13.5 8.4,9.8 14.7,27.7 14.7,41.6 0,27.7 -17.9,53.1 -43.8,62.1 -8.2,2.8 -20.1,4.7 -25.1,3.9 -13,-2.1 -17.3,-3.1 -22.9,-5.7 -8.9,-4.1 -13.8,-7.7 -20.8,-15 -7.2,-7.5 -11.3,-14.4 -15,-25.3 -2.4,-7 -2.7,-9.5 -2.7,-20 0,-10.5 0.3,-13 2.7,-20 3.6,-10.4 7.2,-16.6 14.2,-24.3 8.9,-9.9 22.4,-17.9 33.8,-20.2 7,-1.4 23.8,-1.1 29.9,0.5z" fill="#EB2971" stroke="#00000000"/>
</svg>
