<svg xmlns="http://www.w3.org/2000/svg" height="24dp" viewportHeight="537" viewportWidth="956" width="42.726257dp" xmlns:android="http://schemas.android.com/apk/res/android">
	<path fill="#000000" d="M538,124.7c-1.4,0.2 -7,1.1 -12.5,1.9 -25.2,4 -55.6,13.8 -91.3,29.7l-12.3,5.4 3.3,2.8c1.8,1.4 8.9,8.1 15.7,14.8 24.2,23.8 49.2,53.3 74.9,88.4 5.9,8.1 5.1,7.8 18.2,6.3 4.7,-0.5 20.9,-2.1 36,-3.5 78.5,-7.4 111,-15.3 141.3,-34.5l6.8,-4.3 -2.3,-2.6c-1.3,-1.4 -4,-4.4 -6,-6.5 -2.1,-2.2 -3.8,-4.3 -3.8,-4.7 0,-0.4 -0.9,-1.1 -2,-1.4 -1.1,-0.3 -2,-1.2 -2,-1.9 0,-0.7 -1.8,-2.5 -4,-4.2 -2.2,-1.6 -4,-3.3 -4,-3.7 0,-0.5 -0.6,-0.5 -1.2,-0.1 -0.7,0.4 -1,0.3 -0.5,-0.1 0.9,-1 -8.1,-10.5 -10,-10.5 -0.7,-0 -1.3,-0.4 -1.3,-0.8 0,-1.8 -6.3,-8.1 -7.4,-7.5 -0.6,0.3 -0.8,0.3 -0.4,-0.2 0.8,-0.8 -1.5,-3.5 -3,-3.5 -0.5,-0 -1.2,-1 -1.5,-2.1 -0.4,-1.5 -1.1,-2 -2.2,-1.5 -0.9,0.3 -1.4,0.2 -1,-0.3 0.6,-1 -6.6,-7.1 -8.5,-7.1 -0.6,-0 -0.9,-0.4 -0.5,-0.9 0.3,-0.6 -0.3,-1.5 -1.4,-2 -1.4,-0.8 -2.1,-0.8 -2.4,0.2 -0.3,0.6 -0.6,0.2 -0.6,-1.1 -0.1,-2.3 -2.1,-3.2 -2.1,-1 0,0.9 -0.3,0.9 -0.9,-0.1 -0.5,-0.8 -0.7,-2 -0.4,-2.7 0.2,-0.7 -0.5,-1.7 -1.6,-2.3 -2.7,-1.5 -3.1,-1.4 -2.4,0.6 0.5,1.2 -0.2,1 -2.8,-0.9 -1.9,-1.4 -4.4,-2.9 -5.7,-3.3 -1.4,-0.4 -2.1,-1.2 -1.8,-2 0.3,-0.8 -0.2,-1.9 -1,-2.6 -1.2,-1 -1.3,-0.9 -0.8,0.5 0.5,1.3 -0.7,0.9 -4.7,-1.5 -3,-1.7 -5.9,-3.6 -6.6,-4.1 -0.7,-0.5 -2.2,-0.7 -3.5,-0.3 -1.8,0.5 -2,0.4 -0.8,-0.4 0.8,-0.6 1.3,-1.1 1,-1.2 -0.3,-0 -1.5,-0.2 -2.7,-0.3 -1.3,-0.2 -3.1,-1.2 -4.1,-2.4 -1.1,-1.2 -2.2,-1.9 -2.5,-1.6 -0.3,0.3 -1.3,-0.6 -2.2,-2 -1,-1.4 -2.4,-2.6 -3.2,-2.6 -0.9,-0 -3.1,-0.9 -4.9,-2.1 -1.9,-1.1 -3.8,-1.8 -4.4,-1.4 -1.2,0.7 -9,-2.5 -9,-3.7 0,-0.4 -0.3,-0.7 -0.7,-0.6 -1.3,0.3 -5.8,-1.4 -6.5,-2.5 -0.3,-0.6 -2.8,-1 -5.4,-0.9 -3.2,-0 -4.3,-0.3 -3.3,-0.9 0.8,-0.5 3.4,-0.9 5.9,-0.8 8,0.2 10,-0.2 5.5,-1.2 -3.9,-0.8 -37.7,-1 -42.5,-0.2z" stroke="#00000000"/>
	<path fill="#000000" d="M238,126.7c-9.4,0.4 -32.9,3.3 -35.5,4.3l-2.3,0.9 2.8,8.9c1.5,5 3.4,11.6 4.1,14.7 2.7,12 16.9,22.4 63.3,46.1 20.8,10.6 35.2,17.2 57.6,26.4 9.6,4 17.3,6.9 42,16.1 7.4,2.7 13.6,5.1 13.8,5.3 0.2,0.2 -1.9,1.1 -4.7,2.1 -7.7,2.5 -10.1,4.9 -10.1,9.8 0,6.1 1.8,11.6 4.6,14.2 1.3,1.2 5.6,3.2 9.6,4.5 6.4,2 8.6,2.2 18.8,1.7 6.3,-0.3 13,-1.1 14.9,-1.8 2.8,-1 3.5,-0.9 4.2,0.3 0.5,0.9 2.2,2.1 3.9,2.8 6,2.5 14.6,-1.3 18,-8 1.1,-2.2 2.7,-4 3.5,-4 0.7,-0 9,2.7 18.4,5.9 9.4,3.3 17.1,5.8 17.1,5.5 0,-2 -22.7,-32.8 -38.9,-52.9 -24,-29.5 -51.2,-56.5 -74.1,-73.2 -31.1,-22.7 -73.8,-32.4 -131,-29.6z" stroke="#00000000"/>
	<path fill="#000000" d="M597.9,128.3c0.6,0.8 3,2.2 5.3,3.3 2.4,1 5.8,3.2 7.6,4.8 1.8,1.6 5.5,4.2 8.3,5.8 2.7,1.6 5.3,3.6 5.6,4.3 0.3,0.8 1.1,1.5 1.8,1.5 0.7,-0 1.5,0.6 1.8,1.2 0.2,0.8 0.8,0.9 1.3,0.4 0.5,-0.5 0.4,-1.1 -0.4,-1.3 -0.7,-0.3 -2.1,-1.3 -3,-2.2 -3.1,-3.2 -13.6,-10.7 -20.8,-14.9 -7.3,-4.4 -9.4,-5.2 -7.5,-2.9z" stroke="#00000000"/>
	<path fill="#000000" d="M634,153.6c1.7,1.5 3.3,2.4 3.6,2.1 0.6,-0.6 -4.5,-4.7 -5.8,-4.7 -0.5,-0 0.5,1.2 2.2,2.6z" stroke="#00000000"/>
	<path fill="#000000" d="M635,157.6c0,0.5 5.3,2.6 5.9,2.4 0.2,-0.1 0.7,0.4 1.2,1.1 0.4,0.8 1.1,1 1.5,0.6 1.2,-1.2 -2.9,-4.2 -5.8,-4.3 -1.6,-0.1 -2.8,-0 -2.8,0.2z" stroke="#00000000"/>
	<path fill="#000000" d="M701.7,182.3l-2.8,1.2 12.5,12.4c12.5,12.5 12.5,12.5 13.5,9.8 1.7,-4.4 2.5,-18.1 1.3,-20.4 -2.1,-3.8 -18.1,-5.8 -24.5,-3z" stroke="#00000000"/>
	<path fill="#000000" d="M202.2,221.7l-0.2,3.8 10.2,3.8c5.7,2.1 10.9,3.7 11.6,3.7 0.7,-0 1.2,-1.3 1.2,-2.9 0,-2.5 -0.7,-3.1 -6.2,-5.7 -7.4,-3.3 -15.1,-6.4 -15.9,-6.4 -0.3,-0 -0.6,1.7 -0.7,3.7z" stroke="#00000000"/>
	<path fill="#000000" d="M162,233.6c-5.5,2.4 -9.8,6.1 -12.7,11.2 -1.5,2.6 -3,4.9 -3.4,5.2 -0.6,0.5 -1.5,3 -2.4,6.7 -0.3,1 -1.1,4.4 -1.9,7.5 -2.6,10.8 -1.9,20.3 3.6,45.8 1.1,5.2 3.1,12.4 4.3,16 1.3,3.6 2.6,9.2 3,12.5 0.8,8 2.2,11.8 5.4,13.8 13,8.4 24.5,13.6 43.6,19.8 7.2,2.3 15.9,5.3 19.5,6.5 3.6,1.3 7.4,2.4 8.4,2.4 1,-0 5,1.6 8.7,3.5 3.8,1.9 7.5,3.5 8.2,3.5 0.7,-0 3.2,0.9 5.5,2 2.2,1.1 4.5,2 5,2 0.6,-0 4.2,1.6 8.1,3.5 4,2 7.5,3.3 8,3.1 0.4,-0.3 3.9,1.1 7.7,3 6.7,3.5 15.2,7 24.4,10.2 2.5,0.8 5.7,2.4 7.2,3.4 1.4,1 3.1,1.8 3.7,1.8 0.6,-0 1.9,0.4 2.9,1 4.1,2.2 18.4,8 20,8 0.9,-0 3.3,1 5.2,2.2 1.9,1.2 6.2,3.1 9.5,4.3 12.5,4.7 20.1,7.8 21.5,9.1 0.8,0.6 3.5,1.8 6,2.4 2.5,0.7 5.9,1.9 7.5,2.8 1.7,0.9 3.2,1.7 3.5,1.7 0.3,0.1 1.9,0.7 3.5,1.5 11.6,5.2 14.6,6.4 19.7,8 3.1,1 7.4,3 9.7,4.4 2.2,1.4 4.6,2.6 5.3,2.6 2,-0 28.5,12.8 44.8,21.6 3.5,1.9 8.2,4.1 10.5,4.9 2.2,0.7 6.4,2.5 9.2,3.9 2.9,1.4 5.6,2.6 5.9,2.6 0.3,-0 5,1.6 10.3,3.6 8.7,3.3 15.6,5.3 33.6,9.9 28.8,7.2 70.4,8.7 115.5,4 15.8,-1.7 20.5,-2.3 41.5,-6 25.5,-4.5 34.6,-6.6 49.5,-11.5 6.3,-2.1 13.6,-4.1 16.2,-4.4 2.5,-0.4 5.2,-1.4 5.8,-2.1 0.7,-0.8 2.3,-1.5 3.5,-1.5 1.2,-0 2.8,-0.6 3.4,-1.4 0.7,-0.8 3.9,-2.2 7.1,-3.2 3.3,-1 6,-2.2 6,-2.6 0,-0.5 2.8,-2.2 6.3,-3.9 8.7,-4.1 10.9,-5.5 11.9,-7.3 0.5,-0.9 1.7,-1.6 2.7,-1.6 0.9,-0 3.9,-2.7 6.7,-6 2.7,-3.3 5.2,-6 5.7,-6 0.4,-0 0.7,-0.5 0.7,-1.2 0,-0.6 0.6,-1.9 1.4,-2.7 0.8,-0.9 1.7,-3.6 2.1,-6.1 0.7,-4.5 0.6,-4.6 -4.7,-9.3 -2.9,-2.6 -6.3,-5.7 -7.5,-6.9 -1.3,-1.2 -2.3,-1.6 -2.3,-0.9 0,0.7 -0.5,0.9 -1,0.6 -0.6,-0.3 -4.9,1.3 -9.8,3.6 -19.1,9.1 -43.1,17.3 -66.7,22.5 -62.8,14 -140.9,20.7 -170.1,14.6 -5.6,-1.2 -12.6,-3.3 -15.6,-4.6l-5.5,-2.4 0.4,-16.9c0.4,-14.5 0.2,-18.2 -1.7,-27.3 -2.6,-12.8 -5,-20.1 -10,-30.5 -11.1,-22.9 -26.8,-38.2 -43,-41.9 -11.2,-2.6 -18.4,-0.1 -28.5,9.8 -3.8,3.7 -6.5,6.9 -6.2,7.2 0.4,0.4 -0.5,2.6 -2,5.1 -1.4,2.4 -2.3,4.7 -1.9,5 0.3,0.4 0,1.6 -0.7,2.7 -0.8,1.2 -1.7,4.3 -2.1,6.9 -0.4,2.7 -1,5.9 -1.2,7 -0.6,2.7 -0.6,18.2 0,22.2 0.2,1.6 0.5,4.7 0.5,6.8 0.1,2.3 0.5,3.6 1.1,3.2 0.6,-0.3 1,0.1 1,0.9 0,2.6 -1.3,2.5 -9.5,-0.9 -28.6,-11.6 -45.3,-18.3 -62,-24.8 -10.4,-4.1 -33.6,-13.3 -51.5,-20.4 -17.9,-7.2 -37.4,-14.9 -43.5,-17.2 -13.4,-5.2 -46.6,-18.8 -59.3,-24.3 -6.9,-3 -9.3,-4.6 -9.7,-6.2 -0.2,-1.1 -0.6,-8.9 -0.8,-17.1 -0.6,-18.8 -4,-33.2 -11.6,-48.7 -12.5,-25.7 -29.2,-38.2 -43.1,-32.2zM177.3,260.4c4.5,1.8 12.1,10.6 15.6,18 4.2,8.8 6.1,16.7 6.8,28.1 0.9,16 -3.4,28.2 -11.2,31.9 -4.5,2.2 -6.3,2 -12.2,-0.9 -9.4,-4.7 -16.9,-17.3 -20.4,-34 -2.1,-10.3 -2.4,-16.7 -0.8,-25.1 2.7,-14.8 11.9,-22.3 22.2,-18zM500.6,380.9c2.3,1 6.6,4.4 9.6,7.5 19.6,19.9 24.3,59.7 9,75.9 -4,4.2 -7.5,5.7 -13.4,5.7 -12.9,-0 -25.8,-13.3 -33.1,-33.8 -2.8,-7.9 -3,-9.8 -3.1,-21.7 -0.1,-14.6 1.2,-20.2 6.5,-27.5 5.4,-7.5 15.8,-10 24.5,-6.1z" stroke="#00000000"/>
	<path fill="#000000" d="M313.7,263.7c-0.4,0.3 -0.7,2 -0.7,3.7 0,3.1 0.3,3.2 11.8,7.8 10.6,4.3 11.8,4.6 13,3.1 2.6,-3.5 1.5,-5.9 -3.5,-7.8 -2.7,-1 -7.8,-3 -11.5,-4.6 -7,-3.1 -8.1,-3.3 -9.1,-2.2z" stroke="#00000000"/>
</svg>
