<svg xmlns="http://www.w3.org/2000/svg" xmlns:android="http://schemas.android.com/apk/res/android" width="24dp" height="24dp" viewportWidth="24" viewportHeight="24">
	<path d="M11.997,11.997m-12,0a12,12 0,1 1,24 0a12,12 0,1 1,-24 0" fill="#ef4c45" fill-rule="evenOdd"/>
	<path d="M14.525,23.717a12,12 0,0 0,0.686 -0.154,12 12,0 0,0 1.137,-0.38 12,12 0,0 0,1.095 -0.488,12 12,0 0,0 1.041,-0.597 12,12 0,0 0,0.975 -0.698,12 12,0 0,0 0.902,-0.793 12,12 0,0 0,0.817 -0.877,12 12,0 0,0 0.726,-0.955 12,12 0,0 0,0.627 -1.021,12 12,0 0,0 0.522,-1.08 12,12 0,0 0,0.412 -1.127,12 12,0 0,0 0.26,-1.016l-7.13,-7.129A6.478,6.478 0,0 0,12 5.496a6.478,6.478 0,0 0,-4.596 1.906A6.482,6.482 0,0 0,5.496 12a6.48,6.48 0,0 0,1.908 4.596l7.121,7.12z" fill="#df2209"/>
	<path d="M12.001,5.497c1.662,0 3.324,0.635 4.596,1.906a6.494,6.494 0,0 1,0 9.194,6.491 6.491,0 0,1 -9.192,0 6.48,6.48 0,0 1,-1.879 -5.219A6.482,6.482 0,0 1,7.406 7.403a6.478,6.478 0,0 1,4.595 -1.906zM14.468,9.019c-0.001,0 -0.003,0 -0.004,0.002a0.506,0.506 0,0 0,-0.342 0.152L11.999,11.293 9.878,9.173a0.506,0.506 0,0 0,-0.357 -0.152c-0.397,-0.002 -0.635,0.584 -0.35,0.859l2.121,2.121 -2.121,2.121c-0.383,0.368 0.34,1.09 0.707,0.707l2.121,-2.12 2.123,2.12c0.368,0.383 1.09,-0.34 0.707,-0.707l-2.12,-2.121 2.12,-2.121c0.29,-0.278 0.04,-0.874 -0.361,-0.861Z" fill="#fff"/>
</svg>
