<svg xmlns="http://www.w3.org/2000/svg" xmlns:android="http://schemas.android.com/apk/res/android" width="44dp" height="30dp" viewportWidth="645" viewportHeight="387">
	<path d="M283,88C282.55,91.62 281.76,94.83 280.46,98.22C280.18,98.93 279.91,99.64 279.63,100.37C279.42,100.91 279.21,101.45 279,102C283.7,102.05 288.39,102.09 293.09,102.11C294.68,102.12 296.28,102.13 297.87,102.15C300.17,102.18 302.48,102.19 304.78,102.2C305.83,102.21 305.83,102.21 306.91,102.23C311.91,102.23 316.17,101.32 321,100C323.91,99.73 323.91,99.73 326.5,99.75C327.36,99.74 328.21,99.74 329.09,99.73C332,100 332,100 335.27,101C341.59,102.61 348.06,102.25 354.53,102.2C356,102.19 357.46,102.19 358.93,102.19C362.07,102.18 365.21,102.17 368.35,102.15C373.33,102.12 378.32,102.11 383.3,102.1C394.78,102.08 406.27,102.03 417.75,101.99C428.27,101.95 438.78,101.91 449.29,101.89C454.23,101.88 459.17,101.86 464.1,101.84C467.2,101.82 470.29,101.81 473.38,101.81C474.8,101.81 476.22,101.8 477.64,101.79C491.03,101.69 503.92,102.95 516.81,106.75C517.71,107.01 518.6,107.27 519.53,107.54C528.21,110.18 535.71,113.29 541,121C541.66,121.33 542.32,121.66 543,122C543,122.66 543,123.32 543,124C543.66,124 544.32,124 545,124C552.01,132.52 556.44,143.24 558.06,154.13C558.22,155.14 558.37,156.15 558.54,157.2C562.58,190.3 565.62,235.02 546.31,263.88C534.62,278.72 519.23,284.43 501.1,286.75C476.08,289.68 450.23,288.11 425.13,287.14C403.23,286.31 381.35,285.8 359.44,285.81C358.32,285.81 357.21,285.81 356.06,285.81C352.93,285.81 349.81,285.82 346.68,285.83C345.77,285.83 344.85,285.83 343.91,285.84C339.8,285.87 336.02,286.02 332,287C330.25,287.11 328.5,287.17 326.75,287.19C325.88,287.2 325.01,287.22 324.11,287.23C321,287 321,287 317.18,286.03C310.06,284.36 302.71,284.53 295.44,284.38C293.94,284.34 292.44,284.3 290.94,284.26C287.29,284.16 283.65,284.08 280,284C280.21,284.61 280.43,285.23 280.65,285.86C280.93,286.67 281.2,287.48 281.49,288.31C281.76,289.11 282.04,289.91 282.33,290.73C283.07,293.24 283.25,295.4 283,298C279.41,299.28 278.18,299.09 274.67,297.42C273.5,296.69 272.34,295.95 271.19,295.19C270.59,294.82 269.99,294.45 269.38,294.07C267.87,293.11 266.43,292.06 265,291C265,290.34 265,289.68 265,289C264.38,288.73 263.76,288.46 263.13,288.19C261,287 261,287 259,284C256.78,283.57 256.78,283.57 254.2,283.67C253.22,283.68 252.24,283.68 251.23,283.69C249.7,283.72 249.7,283.72 248.13,283.75C246.64,283.76 246.64,283.76 245.13,283.77C240.3,283.82 235.54,284.04 230.73,284.5C222.58,285.2 214.43,285.16 206.26,285.17C204.56,285.17 202.86,285.17 201.16,285.18C197.62,285.18 194.08,285.19 190.54,285.19C186.04,285.19 181.54,285.2 177.04,285.22C173.54,285.23 170.03,285.23 166.53,285.23C164.87,285.23 163.22,285.23 161.56,285.24C148.61,285.3 135.67,285.07 123.5,280.13C122.85,279.88 122.2,279.64 121.53,279.39C111.04,275.31 103.2,268.21 97,259C96.51,258.27 96.01,257.54 95.5,256.79C76.84,227.55 78.46,182.88 85.5,150C89.48,133.84 100.19,117.26 114.13,107.94C115.39,107.25 116.69,106.6 118,106C118.78,105.64 119.56,105.27 120.36,104.9C144.71,94.39 175.6,98.75 201.46,99.86C210.97,100.27 220.49,100.64 230,101C230.88,101.03 231.77,101.07 232.68,101.1C237.23,101.26 241.79,101.4 246.34,101.46C248.26,101.5 250.17,101.56 252.08,101.63C257.7,101.87 257.7,101.87 262.69,99.77C264.17,98 264.17,98 266,95C268.68,92.88 268.68,92.88 271.44,91.13C272.34,90.53 273.25,89.93 274.18,89.32C277.36,87.83 279.53,87.74 283,88Z" fill="#4D4D4D"/>
	<path d="M340,102C342,102.09 343.99,102.11 345.99,102.11C347.25,102.11 348.5,102.1 349.79,102.1C351.18,102.1 352.57,102.09 353.96,102.08C355.43,102.08 356.89,102.08 358.36,102.07C361.51,102.07 364.67,102.06 367.82,102.04C372.83,102.03 377.83,102.02 382.83,102.01C397.06,101.98 411.29,101.95 425.52,101.9C433.37,101.88 441.23,101.86 449.09,101.85C454.05,101.85 459.01,101.83 463.96,101.81C467.07,101.8 470.18,101.79 473.29,101.79C474.72,101.79 476.14,101.78 477.57,101.78C490.99,101.69 503.9,102.95 516.81,106.75C517.71,107.01 518.6,107.27 519.53,107.54C528.21,110.18 535.71,113.29 541,121C541.66,121.33 542.32,121.66 543,122C543,122.66 543,123.32 543,124C543.66,124 544.32,124 545,124C552.01,132.52 556.44,143.24 558.06,154.13C558.22,155.14 558.37,156.15 558.54,157.2C562.58,190.3 565.62,235.02 546.31,263.88C534.62,278.72 519.23,284.43 501.1,286.75C476.08,289.68 450.23,288.11 425.13,287.14C403.23,286.31 381.35,285.8 359.44,285.81C358.32,285.81 357.21,285.81 356.06,285.81C352.93,285.81 349.81,285.82 346.68,285.83C345.77,285.83 344.85,285.83 343.91,285.84C339.8,285.87 336.02,286.02 332,287C330.25,287.11 328.5,287.17 326.75,287.19C325.88,287.2 325.01,287.22 324.11,287.23C321,287 321,287 317.18,286.03C310.06,284.36 302.71,284.53 295.44,284.38C293.94,284.34 292.44,284.3 290.94,284.26C287.29,284.16 283.65,284.08 280,284C280.21,284.61 280.43,285.23 280.65,285.86C280.93,286.67 281.2,287.48 281.49,288.31C281.76,289.11 282.04,289.91 282.33,290.73C283.07,293.24 283.25,295.4 283,298C279.41,299.28 278.18,299.09 274.67,297.42C273.5,296.69 272.34,295.95 271.19,295.19C270.59,294.82 269.99,294.45 269.38,294.07C267.87,293.11 266.43,292.06 265,291C265,290.34 265,289.68 265,289C264.38,288.73 263.76,288.46 263.13,288.19C261,287 261,287 259,284C256.78,283.57 256.78,283.57 254.2,283.67C253.22,283.68 252.24,283.68 251.23,283.69C249.7,283.72 249.7,283.72 248.13,283.75C246.64,283.76 246.64,283.76 245.13,283.77C240.3,283.82 235.54,284.04 230.73,284.5C222.58,285.2 214.43,285.16 206.26,285.17C204.56,285.17 202.86,285.17 201.16,285.18C197.62,285.18 194.08,285.19 190.54,285.19C186.04,285.19 181.54,285.2 177.04,285.22C173.54,285.23 170.03,285.23 166.53,285.23C164.87,285.23 163.22,285.23 161.56,285.24C148.61,285.3 135.67,285.07 123.5,280.13C122.85,279.88 122.2,279.64 121.53,279.39C105.12,273 95.44,258.86 88.25,243.44C82.76,229.24 83.68,213.04 83.74,198.06C83.75,194.71 83.74,191.37 83.73,188.03C83.73,185.89 83.73,183.75 83.73,181.61C83.73,180.62 83.73,179.62 83.72,178.6C83.78,170.18 83.78,170.18 86,166C86.37,165.24 86.74,164.47 87.13,163.69C87.41,163.13 87.7,162.57 88,162C87.34,162 86.68,162 86,162C86.11,160.04 86.24,158.08 86.38,156.13C86.48,154.49 86.48,154.49 86.59,152.82C87,150 87,150 89,148C91.17,146.67 93.35,145.38 95.56,144.13C96.2,143.76 96.83,143.4 97.48,143.03C101.53,140.75 105.61,138.71 109.9,136.91C112.11,135.95 114.19,134.83 116.31,133.69C124.49,129.55 133.32,126.85 142,124C143.2,123.61 144.4,123.21 145.63,122.8C175.26,113.74 206.31,113.59 237,114C236.67,114.99 236.34,115.98 236,117C234.08,117.34 232.16,117.68 230.22,117.92C223.28,118.81 223.28,118.81 217.58,122.49C215.31,126.04 213.95,129.88 212.7,133.89C211.94,136.18 211.01,138.35 210.06,140.57C207.88,145.98 206.71,151.3 205.78,157.05C205.61,158.08 205.44,159.12 205.27,160.18C203.68,170.81 203.39,181.34 203.48,192.07C203.5,195.26 203.48,198.45 203.45,201.64C203.43,219.7 205.75,236.38 213,253C213.37,254.03 213.73,255.07 214.11,256.13C216.06,261.47 216.06,261.47 220,265.35C229.16,268.77 238.66,266.66 247.94,264.81C260.32,262.47 272.74,260.79 285.25,259.31C286.53,259.16 286.53,259.16 287.84,259C311.37,256.2 334.63,254.68 358.33,254.7C360.34,254.7 362.34,254.69 364.35,254.69C370.66,254.68 376.96,254.68 383.27,254.68C388.92,254.69 394.56,254.68 400.21,254.66C436.24,254.55 472.05,255.33 508,258C508.06,257.23 508.12,256.46 508.18,255.67C508.95,246.17 508.95,246.17 509.53,241.71C511.5,226.17 511.31,210.57 511.26,194.94C511.25,190.94 511.26,186.93 511.27,182.93C511.31,165.84 510.96,149 509,132C508.14,132.04 508.14,132.04 507.25,132.09C490.25,132.94 473.28,133.15 456.26,133.13C453.56,133.13 450.85,133.13 448.15,133.14C442.52,133.14 436.89,133.14 431.27,133.13C424.84,133.12 418.42,133.13 411.99,133.13C406.39,133.14 400.79,133.14 395.19,133.13C391.89,133.13 388.58,133.13 385.27,133.14C362.35,133.15 339.38,132.98 316.56,130.56C315.29,130.44 314.01,130.32 312.7,130.19C302.72,129.18 302.72,129.18 299,127C300.65,126.67 302.3,126.34 304,126C303.67,125.34 303.34,124.68 303,124C309.85,123.77 316.56,123.98 323.37,124.66C351.95,127.46 380.54,127.13 409.22,127.07C414.84,127.06 420.47,127.05 426.1,127.05C437.06,127.04 448.03,127.02 459,127C459,126.34 459,125.68 459,125C457.82,124.57 457.82,124.57 456.63,124.13C454,123 454,123 452,121C449.74,120.53 449.74,120.53 447.09,120.35C446.06,120.25 445.04,120.16 443.98,120.06C442.86,119.97 441.74,119.88 440.58,119.78C439.42,119.68 438.26,119.57 437.06,119.47C433.31,119.14 429.56,118.82 425.81,118.5C423.37,118.29 420.92,118.07 418.47,117.86C413.64,117.43 408.81,117.01 403.97,116.6C399.48,116.22 395,115.82 390.51,115.42C380.84,114.55 371.2,113.71 361.5,113.44C360.37,113.4 359.24,113.37 358.08,113.33C349.24,113.07 340.39,112.91 331.55,112.75C330.35,112.73 329.15,112.71 327.91,112.69C321.83,112.58 315.75,112.48 309.67,112.39C297.09,112.19 284.55,111.84 272,111C272,110.67 272,110.34 272,110C273.14,109.78 273.14,109.78 274.31,109.56C277.08,109.04 277.08,109.04 280,108C280.33,107.01 280.66,106.02 281,105C291.89,105 302.78,105 314,105C314,104.34 314,103.68 314,103C321.85,100.44 332.07,99.36 340,102Z" fill="#E3E3E3"/>
	<path d="M300,131C307.02,130.78 313.86,131.33 320.84,132.04C346.52,134.61 372.23,134.52 398.01,134.61C407.78,134.65 417.55,134.71 427.32,134.77C430.71,134.79 434.11,134.8 437.5,134.81C439.54,134.82 441.59,134.83 443.64,134.84C445.05,134.84 445.05,134.84 446.49,134.85C452.89,134.89 452.89,134.89 454,136C454.25,138.74 454.42,141.44 454.55,144.19C454.59,145.07 454.63,145.95 454.68,146.86C455.18,158.57 455.19,170.3 455.19,182.02C455.19,185.94 455.21,189.86 455.22,193.77C455.27,213.91 454.3,233.91 453,254C452.39,254 451.79,254 451.16,253.99C436.26,253.95 421.35,253.92 406.44,253.9C399.23,253.89 392.02,253.87 384.81,253.85C378.51,253.83 372.21,253.82 365.91,253.81C362.59,253.81 359.27,253.8 355.95,253.79C340.31,253.73 324.82,254.16 309.24,255.39C308.04,255.48 306.84,255.57 305.61,255.67C304.55,255.75 303.49,255.84 302.39,255.93C301.6,255.96 300.81,255.98 300,256C298.04,254.04 298.33,250.43 298.03,247.74C297.9,246.6 297.9,246.6 297.76,245.44C294.52,216.68 292.91,187.42 296.66,158.62C297.07,155.48 297.43,152.34 297.8,149.19C298.51,143.12 299.25,137.06 300,131Z" fill="#F8F8F8"/>
	<path d="M237,114C236.67,114.99 236.34,115.98 236,117C234.08,117.34 232.16,117.68 230.22,117.92C223.28,118.81 223.28,118.81 217.58,122.49C215.31,126.04 213.95,129.88 212.7,133.89C211.94,136.18 211.01,138.35 210.06,140.57C207.88,145.98 206.71,151.3 205.78,157.05C205.61,158.08 205.44,159.12 205.27,160.18C203.68,170.81 203.39,181.34 203.48,192.07C203.5,195.26 203.48,198.45 203.45,201.64C203.43,219.7 205.75,236.38 213,253C213.37,254.03 213.73,255.07 214.11,256.13C216.04,261.41 216.04,261.41 219.89,265.31C225.91,267.57 232.64,267.69 239,268C238.01,268.66 237.02,269.32 236,270C236.66,270.66 237.32,271.32 238,272C179.42,271.44 179.42,271.44 152,263C150.69,262.62 149.38,262.23 148.06,261.85C141.06,259.76 134.16,257.41 127.31,254.88C126.65,254.63 125.99,254.39 125.31,254.14C121.62,252.75 118.35,251.08 115,249C113.64,248.57 113.64,248.57 112.25,248.13C108.58,246.86 105.48,245.09 102.15,243.12C100.08,242.04 98.26,241.53 96,241C94.5,239.69 94.5,239.69 93,238C91.06,235.81 91.06,235.81 89,234C88.01,234 87.02,234 86,234C83.67,222.12 83.69,210.34 83.74,198.28C83.75,194.91 83.74,191.54 83.73,188.17C83.73,186.02 83.73,183.87 83.73,181.71C83.73,180.71 83.73,179.71 83.72,178.68C83.78,170.16 83.78,170.16 86,166C86.37,165.24 86.74,164.47 87.13,163.69C87.41,163.13 87.7,162.57 88,162C87.34,162 86.68,162 86,162C86.11,160.04 86.24,158.08 86.38,156.13C86.48,154.49 86.48,154.49 86.59,152.82C87,150 87,150 89,148C91.17,146.67 93.35,145.38 95.56,144.13C96.2,143.76 96.83,143.4 97.48,143.03C101.53,140.75 105.61,138.71 109.9,136.91C112.11,135.95 114.19,134.83 116.31,133.69C124.49,129.55 133.32,126.85 142,124C143.2,123.61 144.4,123.21 145.63,122.8C175.26,113.74 206.31,113.59 237,114Z" fill="#F7F7F7"/>
	<path d="M255.56,120.91C261.72,122.18 267.92,123.13 274.14,124.05C279.8,124.9 279.8,124.9 282,126C280.39,131.32 278.49,136.21 275.89,141.12C260.79,170.12 259.73,200.82 268.8,231.65C270.75,237.79 273.4,243.56 276.32,249.29C276.82,250.28 276.82,250.28 277.33,251.29C277.63,251.87 277.92,252.44 278.23,253.03C279.25,255.64 279.61,258.24 280,261C278.91,261.16 278.91,261.16 277.79,261.32C274.38,261.81 270.97,262.31 267.56,262.81C266.33,262.99 265.1,263.17 263.83,263.36C256.99,264.37 250.18,265.47 243.38,266.75C237.88,267.75 232.59,268.71 227,268C226.24,267.94 225.49,267.88 224.71,267.81C221.92,267.29 220.31,266.68 218,265C215.01,260.57 213.01,255.94 211,251C210.61,250.12 210.22,249.24 209.82,248.34C203.32,232.47 202.34,215.36 202.48,198.45C202.5,195.27 202.48,192.09 202.45,188.91C202.43,170.64 203.37,150.98 211.56,134.31C211.95,133.46 212.33,132.61 212.73,131.73C217.89,120.52 217.89,120.52 221.81,118.69C233.24,116.25 244.36,118.61 255.56,120.91Z" fill="#030303"/>
	<path d="M86,234C88.01,236.54 89.71,239.17 91.38,241.94C94.19,246.47 97.19,249.92 101.81,252.69C102.53,253.12 103.26,253.55 104,254C104,254.66 104,255.32 104,256C104.6,256.1 105.2,256.21 105.81,256.31C108.31,257.1 109.38,257.97 111,260C111,260.66 111,261.32 111,262C111.62,262.29 112.24,262.58 112.88,262.88C115,264 115,264 117,266C118.65,266.71 120.32,267.38 122,268C121.67,268.99 121.34,269.98 121,271C124.06,272.3 127.15,273.39 130.32,274.4C131.1,274.65 131.89,274.9 132.69,275.16C134.32,275.68 135.95,276.19 137.58,276.7C138.36,276.95 139.14,277.21 139.95,277.46C140.65,277.69 141.36,277.91 142.09,278.14C144,279 144,279 145.44,280.53C149.29,284.15 155.86,283.16 160.83,283.17C161.69,283.17 162.55,283.18 163.44,283.18C166.23,283.19 169.02,283.19 171.81,283.19C172.77,283.19 173.73,283.19 174.71,283.19C186.13,283.19 197.37,282.95 208.73,281.72C225.04,280.11 241.63,280.84 258,281C257.67,279.35 257.34,277.7 257,276C257.66,276 258.32,276 259,276C259,275.34 259,274.68 259,274C252.07,274 245.14,274 238,274C241.29,272.35 243.26,271.62 246.75,271C247.67,270.83 248.59,270.67 249.54,270.5C250.97,270.25 250.97,270.25 252.44,270C253.36,269.83 254.28,269.67 255.23,269.5C267.1,267.4 279.02,265.66 290.98,264.2C292.36,264.02 293.73,263.85 295.11,263.67C315.16,261.1 335.19,260.85 355.38,260.87C357.78,260.87 360.17,260.87 362.57,260.86C367.55,260.86 372.53,260.86 377.52,260.87C383.86,260.88 390.19,260.87 396.53,260.87C401.46,260.86 406.4,260.86 411.33,260.87C413.67,260.87 416,260.87 418.34,260.86C425.56,260.86 432.78,260.89 440,261C440.92,261.01 441.83,261.03 442.78,261.04C445.31,261.09 447.85,261.17 450.38,261.26C451.12,261.27 451.86,261.29 452.62,261.3C455.97,261.46 457.59,261.58 459.98,264.05C460.31,264.69 460.65,265.34 461,266C459.81,268.44 459.81,268.44 458,271C455.31,271.81 455.31,271.81 453,272C458.15,272.87 463.07,273.08 468.3,272.91C469.09,272.89 469.87,272.87 470.68,272.85C473.23,272.78 475.77,272.7 478.31,272.63C480.07,272.57 481.83,272.52 483.58,272.46C486.23,272.38 488.87,272.3 491.51,272.22C496.68,272.05 501.86,271.96 507.04,271.92C508.21,271.9 509.38,271.88 510.59,271.86C512.71,271.83 514.82,271.82 516.94,271.83C525.47,271.64 530.5,268.35 536.56,262.55C537.18,261.81 537.8,261.07 538.44,260.31C539.08,259.57 539.71,258.82 540.37,258.05C542.13,255.89 542.13,255.89 544,253C546.92,251.58 548.73,251 552,251C550.13,261.5 542.31,269.69 534.1,276C504.16,295.36 458.88,288.44 425.13,287.14C403.23,286.31 381.35,285.8 359.44,285.81C358.32,285.81 357.21,285.81 356.06,285.81C352.93,285.81 349.81,285.82 346.68,285.83C345.77,285.83 344.85,285.83 343.91,285.84C339.8,285.87 336.02,286.02 332,287C330.25,287.11 328.5,287.17 326.75,287.19C325.88,287.2 325.01,287.22 324.11,287.23C321,287 321,287 317.18,286.03C310.06,284.36 302.71,284.53 295.44,284.38C293.94,284.34 292.44,284.3 290.94,284.26C287.29,284.16 283.65,284.08 280,284C280.21,284.61 280.43,285.23 280.65,285.86C280.93,286.67 281.2,287.48 281.49,288.31C281.76,289.11 282.04,289.91 282.33,290.73C283.07,293.24 283.25,295.4 283,298C279.41,299.28 278.18,299.09 274.67,297.42C273.5,296.69 272.34,295.95 271.19,295.19C270.59,294.82 269.99,294.45 269.38,294.07C267.87,293.11 266.43,292.06 265,291C265,290.34 265,289.68 265,289C264.38,288.73 263.76,288.46 263.13,288.19C261,287 261,287 259,284C256.78,283.57 256.78,283.57 254.2,283.67C253.22,283.68 252.24,283.68 251.23,283.69C249.7,283.72 249.7,283.72 248.13,283.75C246.64,283.76 246.64,283.76 245.13,283.77C240.3,283.82 235.54,284.04 230.73,284.5C222.58,285.2 214.43,285.16 206.26,285.17C204.56,285.17 202.86,285.17 201.16,285.18C197.62,285.18 194.08,285.19 190.54,285.19C186.04,285.19 181.54,285.2 177.04,285.22C173.54,285.23 170.03,285.23 166.53,285.23C164.87,285.23 163.22,285.23 161.56,285.24C148.61,285.3 135.67,285.07 123.5,280.13C122.85,279.88 122.2,279.64 121.53,279.39C106.09,273.38 96.31,260.42 89.51,245.8C86,237.6 86,237.6 86,234Z" fill="#C7C7C7"/>
	<path d="M283,88C282.55,91.62 281.76,94.83 280.46,98.22C280.18,98.93 279.91,99.64 279.63,100.37C279.42,100.91 279.21,101.45 279,102C283.7,102.05 288.39,102.09 293.09,102.11C294.68,102.12 296.28,102.13 297.87,102.15C300.17,102.18 302.48,102.19 304.78,102.2C305.83,102.21 305.83,102.21 306.91,102.23C311.91,102.23 316.17,101.31 321,100C324.19,99.8 324.19,99.8 327,99.88C328.42,99.9 328.42,99.9 329.88,99.93C330.58,99.95 331.28,99.98 332,100C332,100.33 332,100.66 332,101C323.09,101.99 323.09,101.99 314,103C314,103.66 314,104.32 314,105C313.02,105.01 312.03,105.02 311.02,105.03C307.37,105.07 303.72,105.13 300.07,105.21C298.49,105.24 296.91,105.26 295.33,105.27C293.05,105.29 290.78,105.34 288.51,105.39C287.81,105.39 287.1,105.39 286.37,105.39C284.13,105.42 284.13,105.42 281,106C279.28,107.96 279.28,107.96 278,110C285.88,110.75 293.7,111.16 301.62,111.25C303.86,111.28 306.09,111.31 308.33,111.34C309.49,111.36 310.65,111.37 311.84,111.39C331.22,111.65 350.58,112.09 369.94,112.94C370.85,112.98 371.76,113.01 372.7,113.05C382.44,113.46 392,114.17 401.67,115.48C406.89,116.15 412.13,116.51 417.38,116.89C419.39,117.05 421.4,117.2 423.42,117.35C426.51,117.59 429.6,117.82 432.7,118.02C435.74,118.23 438.78,118.47 441.82,118.71C442.74,118.76 443.66,118.82 444.6,118.87C450.82,119.4 454.31,120.83 459,125C459,125.66 459,126.32 459,127C449.37,128.24 439.78,128.15 430.09,128.13C428.24,128.13 426.38,128.13 424.53,128.14C420.64,128.14 416.76,128.14 412.88,128.13C407.97,128.12 403.07,128.13 398.17,128.13C372.29,128.16 346.6,127.94 320.82,125.41C315.2,124.89 309.64,124.79 304,125C306.97,125.49 306.97,125.49 310,126C310,126.33 310,126.66 310,127C297.45,128.2 286.24,127.58 273.88,125.25C272.36,124.98 270.84,124.71 269.32,124.45C263.38,123.39 257.45,122.27 251.51,121.15C250.79,121.01 250.07,120.88 249.33,120.74C247.36,120.36 245.38,119.99 243.41,119.61C239.28,118.87 235.18,118.37 231,118C231,117.67 231,117.34 231,117C232.65,117 234.3,117 236,117C236,116.34 236,115.68 236,115C199.22,114.49 164.35,116.9 129.44,129.38C128.37,129.75 127.29,130.12 126.19,130.51C120.44,132.56 115.12,134.81 109.87,137.93C108,139 108,139 104.56,140.44C98.69,143.01 93.32,146.45 88,150C87.2,152.88 87.2,152.88 86.81,156.13C86.65,157.22 86.5,158.32 86.33,159.45C86.22,160.29 86.11,161.13 86,162C86.66,162 87.32,162 88,162C87.52,164.17 87,165.99 85.98,167.97C84.51,172.53 84.74,176.96 84.77,181.71C84.77,182.76 84.77,183.81 84.77,184.89C84.77,187.11 84.78,189.33 84.79,191.54C84.81,194.89 84.81,198.24 84.81,201.6C84.83,212.44 84.95,223.2 86,234C85.67,234 85.34,234 85,234C77.68,201.73 77.67,157.03 95.15,128.25C100.86,119.42 108.29,110.47 118,106C118.78,105.64 119.56,105.27 120.36,104.9C144.71,94.39 175.6,98.75 201.46,99.86C210.97,100.27 220.49,100.64 230,101C230.88,101.03 231.77,101.07 232.68,101.1C237.23,101.26 241.79,101.4 246.34,101.46C248.26,101.5 250.17,101.56 252.08,101.63C257.7,101.87 257.7,101.87 262.69,99.77C264.17,98 264.17,98 266,95C268.68,92.88 268.68,92.88 271.44,91.13C272.34,90.53 273.25,89.93 274.18,89.32C277.36,87.83 279.53,87.74 283,88Z" fill="#D0D0D0"/>
	<path d="M457,137C461.2,136.88 465.4,136.79 469.6,136.73C471.03,136.7 472.45,136.67 473.88,136.62C475.94,136.56 477.99,136.53 480.05,136.51C481.9,136.47 481.9,136.47 483.79,136.43C487,137 487,137 489.36,139.31C493.49,146.09 493.35,153.65 493.56,161.38C493.62,163.34 493.69,165.31 493.75,167.27C493.78,168.13 493.8,168.99 493.83,169.88C493.87,172.05 493.87,172.05 495,174C495.15,175.41 495.27,176.83 495.38,178.25C495.68,181.42 496.01,183.02 497.56,185.88C501.13,193.62 498.91,201.48 496.17,209.18C495,212 495,212 493.41,214.75C491.53,219.07 491.44,223.02 491.19,227.69C490.45,237.18 488.36,243.96 482.04,251.27C477.27,253.99 472.57,253.42 467.19,253.25C466.11,253.23 465.04,253.21 463.93,253.2C461.29,253.15 458.64,253.08 456,253C455.97,251.08 455.95,249.17 455.94,247.25C455.93,246.18 455.91,245.12 455.9,244.02C455.93,241 456.19,238.06 456.5,235.07C457.29,225.7 457.12,216.31 457.1,206.92C457.1,204.9 457.09,202.88 457.09,200.85C457.09,195.57 457.08,190.28 457.07,184.99C457.06,179.58 457.05,174.17 457.05,168.76C457.04,158.17 457.02,147.59 457,137Z" fill="#4D4D4D"/>
	<path d="M89,233C89.6,233.62 90.2,234.24 90.81,234.88C93.01,237.14 93.01,237.14 96,239C96,239.66 96,240.32 96,241C97.24,241.09 97.24,241.09 98.5,241.19C102.38,242.09 104.72,243.63 107.99,245.8C110.83,247.49 113.83,248.14 117,249C117.99,249.6 118.98,250.19 120,250.81C124.87,253.66 130.14,255.27 135.5,257C136.57,257.35 137.64,257.7 138.74,258.06C152.27,262.43 165.6,265.74 179.68,267.68C181.77,267.97 183.86,268.28 185.95,268.59C202.48,270.89 219.34,270.67 236,271C236,270.01 236,269.02 236,268C236,267.67 236,267.34 236,267C252.35,263.74 268.7,261.27 285.25,259.31C286.1,259.21 286.95,259.11 287.83,259C293.88,258.28 299.94,257.63 306,257C306.86,256.91 307.73,256.82 308.62,256.73C325.12,255.04 341.5,254.73 358.08,254.8C361.57,254.81 365.07,254.81 368.56,254.81C375.14,254.82 381.72,254.84 388.29,254.86C395.8,254.88 403.3,254.89 410.81,254.9C426.2,254.92 441.6,254.96 457,255C457,255.33 457,255.66 457,256C444.13,256.33 431.26,256.66 418,257C417.67,257.66 417.34,258.32 417,259C422.61,259 428.22,259 434,259C434.33,259.66 434.66,260.32 435,261C433.09,261.02 433.09,261.02 431.15,261.03C419.09,261.13 407.03,261.23 394.97,261.34C388.77,261.39 382.57,261.45 376.37,261.5C370.37,261.55 364.37,261.6 358.38,261.65C356.1,261.67 353.83,261.69 351.56,261.71C331.94,261.86 312.53,262.43 293.06,264.94C291.67,265.11 290.29,265.28 288.9,265.45C276.6,266.98 264.38,268.87 252.19,271.13C251.2,271.31 250.21,271.49 249.19,271.68C246.79,272.12 244.39,272.56 242,273C247.61,273.33 253.22,273.66 259,274C259,274.66 259,275.32 259,276C258.34,276 257.68,276 257,276C257.33,277.65 257.66,279.3 258,281C235.23,282.09 235.23,282.09 224.88,281.94C219.54,281.87 214.36,282.12 209.05,282.71C196.93,284.07 184.87,284.23 172.69,284.25C171.35,284.26 171.35,284.26 169.98,284.27C158.17,284.32 146.69,283.68 135,282C135,281.67 135,281.34 135,281C139.46,280.51 139.46,280.51 144,280C142.76,279.6 141.52,279.2 140.24,278.79C138.6,278.26 136.95,277.72 135.31,277.19C134.5,276.93 133.68,276.67 132.84,276.4C124.38,273.62 124.38,273.62 121,271C121,270.01 121,269.02 121,268C120.28,267.75 119.56,267.51 118.81,267.25C115.72,265.88 113.49,264.28 111,262C111,261.34 111,260.68 111,260C110.01,259.67 109.02,259.34 108,259C108,258.34 108,257.68 108,257C107.38,256.9 106.76,256.79 106.13,256.69C104,256 104,256 102,253C100.01,251.91 97.97,251.05 95.88,250.16C93.52,248.7 93.05,247.54 92,245C91.57,244.15 91.15,243.3 90.71,242.42C89.47,239.95 88.24,237.47 87,235C87.66,234.34 88.32,233.68 89,233Z" fill="#E9E9E9"/>
	<path d="M498.06,131.94C499.66,131.94 499.66,131.94 501.3,131.95C503.87,131.96 506.43,131.98 509,132C515.97,145.93 512.34,169.42 512.32,184.84C512.31,188.02 512.32,191.2 512.34,194.38C512.46,215.86 511.72,236.77 508,258C497.8,258.11 487.71,257.91 477.52,257.2C457.04,255.79 436.53,255.38 416,255C416,254.67 416,254.34 416,254C428.21,254 440.42,254 453,254C452.96,247.39 452.96,247.39 452.91,240.78C452.9,235.66 453.08,230.61 453.5,225.5C454.03,218.25 454.14,211.04 454.13,203.77C454.13,201.81 454.13,201.81 454.14,199.81C454.14,197.06 454.14,194.3 454.13,191.55C454.12,188.09 454.13,184.63 454.13,181.17C454.14,177.79 454.14,174.41 454.13,171.02C454.14,169.21 454.14,169.21 454.14,167.36C454.11,156.85 453.53,146.53 453,136C427.59,135.67 402.18,135.34 376,135C376,134.67 376,134.34 376,134C377.11,133.99 378.23,133.98 379.38,133.97C389.95,133.87 400.53,133.77 411.11,133.66C416.54,133.61 421.98,133.55 427.41,133.5C432.67,133.45 437.93,133.4 443.19,133.35C445.18,133.33 447.17,133.31 449.16,133.29C459.93,133.2 470.63,132.95 481.37,132.22C486.94,131.88 492.49,131.89 498.06,131.94ZM457,137C457,138.11 457,139.23 457.01,140.37C457.03,150.91 457.04,161.44 457.05,171.97C457.06,177.39 457.06,182.8 457.08,188.22C457.09,193.45 457.09,198.68 457.09,203.91C457.1,205.9 457.1,207.89 457.11,209.88C457.16,228.74 457.16,228.74 456.22,237.72C455.91,240.92 455.9,244.04 455.94,247.25C455.95,248.35 455.96,249.45 455.96,250.58C455.98,251.38 455.99,252.18 456,253C459.71,253.15 463.42,253.23 467.13,253.31C468.17,253.35 469.22,253.4 470.3,253.44C476.89,253.64 476.89,253.64 482.57,250.73C489.47,242.97 490.42,235.66 491.12,225.62C491.71,218.55 493.55,213.09 496.66,206.75C499.46,201.01 499.54,195.32 499,189C498.07,186.97 497.07,184.96 496,183C495.6,180.65 495.38,178.33 495.21,175.95C495.11,173.92 495.11,173.92 494,172C493.88,170.44 493.82,168.87 493.79,167.31C493.76,166.36 493.73,165.42 493.7,164.44C493.65,162.47 493.61,160.49 493.57,158.51C493.32,150.93 492.58,142.67 487,137C483.81,136.45 483.81,136.45 480.14,136.61C479.48,136.62 478.82,136.62 478.14,136.63C476.03,136.65 473.92,136.7 471.81,136.75C470.38,136.77 468.95,136.79 467.52,136.8C464.01,136.85 460.51,136.92 457,137Z" fill="#060606"/>
	<path d="M355.38,260.87C357.78,260.87 360.17,260.87 362.57,260.86C367.55,260.86 372.53,260.86 377.52,260.87C383.86,260.88 390.19,260.87 396.53,260.87C401.46,260.86 406.4,260.86 411.33,260.87C413.67,260.87 416,260.87 418.34,260.86C431.59,260.85 444.77,261.07 458,262C458,262.66 458,263.32 458,264C451.82,269.92 445.51,270.03 437.24,270.55C435.88,270.65 434.53,270.75 433.17,270.85C429.61,271.12 426.05,271.37 422.48,271.6C418.92,271.84 415.37,272.11 411.81,272.38C403.88,272.96 395.94,273.52 388,274C387.26,274.04 386.52,274.09 385.76,274.14C371.9,274.96 358.06,275.21 344.17,275.32C341.96,275.34 339.74,275.36 337.53,275.38C331.78,275.43 326.02,275.48 320.27,275.53C314.37,275.58 308.47,275.64 302.57,275.69C291.05,275.8 279.52,275.9 268,276C268.33,276.99 268.66,277.98 269,279C265.37,279 261.74,279 258,279C257.67,278.01 257.34,277.02 257,276C257.66,276 258.32,276 259,276C259,275.34 259,274.68 259,274C252.07,274 245.14,274 238,274C241.29,272.35 243.26,271.62 246.75,271C247.67,270.83 248.59,270.67 249.54,270.5C250.49,270.33 251.45,270.17 252.44,270C253.36,269.83 254.28,269.67 255.23,269.5C267.1,267.4 279.02,265.66 290.98,264.2C292.36,264.02 293.73,263.85 295.11,263.67C315.16,261.1 335.19,260.85 355.38,260.87Z" fill="#0B0B0B"/>
	<path d="M242,112C254.65,111.95 267.3,111.92 279.96,111.9C285.84,111.89 291.72,111.87 297.6,111.85C321.72,111.76 345.8,111.82 369.89,112.88C371.27,112.94 371.27,112.94 372.67,113C382.67,113.44 392.52,114.2 402.44,115.54C407.41,116.18 412.38,116.55 417.38,116.89C419.39,117.05 421.4,117.2 423.42,117.35C426.51,117.59 429.6,117.82 432.7,118.02C435.74,118.23 438.78,118.47 441.82,118.71C443.2,118.79 443.2,118.79 444.6,118.87C450.82,119.4 454.31,120.83 459,125C459,125.66 459,126.32 459,127C449.37,128.24 439.78,128.15 430.09,128.13C428.24,128.13 426.38,128.13 424.53,128.14C420.64,128.14 416.76,128.14 412.88,128.13C407.97,128.12 403.07,128.13 398.17,128.13C345.92,128.19 345.92,128.19 319.94,125.31C318.77,125.19 318.77,125.19 317.59,125.06C304.37,123.63 291.21,121.84 278.06,119.88C277.2,119.75 276.34,119.62 275.45,119.49C273,119.12 270.55,118.75 268.1,118.37C267.38,118.26 266.66,118.15 265.92,118.04C261.5,117.34 257.29,116.28 253,115C251.03,114.6 249.05,114.22 247.06,113.88C246.1,113.71 245.15,113.54 244.16,113.37C243.09,113.19 243.09,113.19 242,113C242,112.67 242,112.34 242,112Z" fill="#0F0F0F"/>
	<path d="M146.8,100.89C148.51,100.89 148.51,100.89 150.26,100.89C152.09,100.89 152.09,100.89 153.96,100.9C155.22,100.9 156.47,100.91 157.77,100.91C161.1,100.91 164.43,100.92 167.77,100.93C171.17,100.94 174.58,100.95 177.98,100.95C184.65,100.96 191.33,100.98 198,101C198,101.66 198,102.32 198,103C198.77,103.03 199.54,103.05 200.33,103.08C227.82,103.98 227.82,103.98 241.39,104.7C242.16,104.74 242.94,104.78 243.74,104.82C244.47,104.86 245.19,104.9 245.94,104.95C248.3,105.05 248.3,105.05 251.82,104.65C253.39,104.82 253.39,104.82 255,105C257.2,108.02 257.2,108.02 259,111C257.03,110.99 257.03,110.99 255.02,110.98C250.16,110.97 245.29,110.95 240.42,110.95C238.31,110.94 236.21,110.93 234.1,110.92C231.07,110.91 228.04,110.91 225.02,110.9C224.07,110.9 223.13,110.89 222.16,110.89C220.84,110.89 220.84,110.89 219.49,110.89C218.72,110.88 217.95,110.88 217.15,110.88C214.98,111 213.1,111.44 211,112C209.33,112.1 207.66,112.15 205.98,112.18C191,112.49 176.69,114.07 162,117C161.31,117.14 160.62,117.27 159.91,117.42C149.71,119.49 139.73,122.48 130.04,126.28C126.57,127.5 122.99,128.36 119.42,129.25C116.78,129.94 116.78,129.94 114,132C111.81,131.63 111.81,131.63 110,131C114.64,126.1 119.49,121.91 125,118C124.67,117.01 124.34,116.02 124,115C121.98,114.27 121.98,114.27 120,114C124.71,110.2 129.21,109.06 135.07,107.73C138.63,106.84 141.7,105.57 145,104C142.03,103.67 139.06,103.34 136,103C136,102.67 136,102.34 136,102C139.67,101.15 143.04,100.88 146.8,100.89Z" fill="#E8E8E8"/>
	<path d="M116,250C118.55,250.64 118.55,250.64 122,252C123.58,252.59 125.15,253.18 126.73,253.77C127.61,254.1 128.48,254.43 129.38,254.77C145.91,260.93 162.26,265.35 179.75,267.7C181.81,267.97 183.87,268.28 185.93,268.59C202.47,270.89 219.33,270.67 236,271C236,270.01 236,269.02 236,268C236,267.67 236,267.34 236,267C252.35,263.74 268.7,261.27 285.25,259.31C286.1,259.21 286.95,259.11 287.83,259C293.88,258.28 299.94,257.63 306,257C306.86,256.91 307.73,256.82 308.62,256.73C325.12,255.04 341.5,254.73 358.08,254.8C361.57,254.81 365.07,254.81 368.56,254.81C375.14,254.82 381.72,254.84 388.29,254.86C395.8,254.88 403.3,254.89 410.81,254.9C426.2,254.92 441.6,254.96 457,255C457,255.33 457,255.66 457,256C444.13,256.33 431.26,256.66 418,257C417.67,257.66 417.34,258.32 417,259C422.61,259 428.22,259 434,259C434.33,259.66 434.66,260.32 435,261C433.09,261.02 433.09,261.02 431.15,261.03C419.09,261.13 407.03,261.23 394.97,261.34C388.77,261.39 382.57,261.45 376.37,261.5C370.37,261.55 364.37,261.6 358.38,261.65C356.1,261.67 353.83,261.69 351.56,261.71C331.94,261.86 312.53,262.43 293.06,264.94C291.67,265.11 290.29,265.28 288.9,265.45C276.6,266.98 264.38,268.87 252.19,271.13C251.2,271.31 250.21,271.49 249.19,271.68C246.79,272.12 244.39,272.56 242,273C247.61,273.33 253.22,273.66 259,274C259,274.66 259,275.32 259,276C252.68,275.88 246.37,275.76 240.05,275.63C237.9,275.58 235.75,275.54 233.6,275.5C230.51,275.44 227.42,275.38 224.33,275.32C223.37,275.3 222.42,275.28 221.43,275.27C220.53,275.25 219.63,275.23 218.7,275.21C217.91,275.19 217.12,275.17 216.31,275.16C213.81,274.99 211.45,274.52 209,274C207.48,273.88 205.96,273.8 204.45,273.75C203.59,273.72 202.74,273.69 201.86,273.66C200.96,273.63 200.05,273.6 199.13,273.56C182.68,272.84 167.66,269.9 151.77,265.72C149.38,265.1 146.98,264.5 144.58,263.93C137.25,262.12 130.69,259.71 123.9,256.39C120.33,254.68 116.73,253.32 113,252C113.99,251.34 114.98,250.68 116,250Z" fill="#D8D8D8"/>
	<path d="M283,88C282.55,91.62 281.76,94.83 280.46,98.22C280.18,98.93 279.91,99.64 279.63,100.37C279.42,100.91 279.21,101.45 279,102C283.7,102.05 288.39,102.09 293.09,102.11C294.68,102.12 296.28,102.13 297.87,102.15C300.17,102.18 302.48,102.19 304.78,102.2C305.83,102.21 305.83,102.21 306.91,102.23C311.91,102.23 316.17,101.31 321,100C324.19,99.8 324.19,99.8 327,99.88C328.42,99.9 328.42,99.9 329.88,99.93C330.58,99.95 331.28,99.98 332,100C332,100.33 332,100.66 332,101C323.09,101.99 323.09,101.99 314,103C314,103.66 314,104.32 314,105C313.02,105.01 312.03,105.02 311.02,105.03C307.37,105.07 303.72,105.13 300.07,105.21C298.49,105.24 296.91,105.26 295.33,105.27C293.05,105.29 290.78,105.34 288.51,105.39C287.81,105.39 287.1,105.39 286.37,105.39C284.13,105.42 284.13,105.42 281,106C280.01,107.32 279.02,108.64 278,110C281.96,110.33 285.92,110.66 290,111C290,111.33 290,111.66 290,112C272.51,112.33 255.02,112.66 237,113C236.67,112.34 236.34,111.68 236,111C243.26,110.67 250.52,110.34 258,110C257.01,108.68 256.02,107.36 255,106C251.78,105.55 251.78,105.55 248.13,105.81C242.17,106.05 236.44,105.76 230.5,105.26C223.39,104.73 216.26,104.6 209.14,104.39C207.99,104.36 206.83,104.32 205.64,104.28C204.61,104.25 203.57,104.22 202.5,104.19C200,104 200,104 198,103C198,102.34 198,101.68 198,101C169.79,101.5 169.79,101.5 141,102C143.48,102.5 143.48,102.5 146,103C143.63,106.55 142.87,106.56 138.88,107.5C130.88,109.53 124.75,111.88 117.98,116.7C116,118 116,118 113,119C113.66,117.35 114.32,115.7 115,114C111.32,114.28 109.42,114.64 106.59,117.07C105.86,117.94 105.13,118.8 104.38,119.69C103.61,120.59 102.85,121.48 102.06,122.41C99.85,125.19 97.84,127.96 96,131C95.67,130.34 95.34,129.68 95,129C105.02,114.6 115.11,104.78 132.69,100.81C155.15,96.92 178.81,98.89 201.46,99.86C210.97,100.27 220.49,100.64 230,101C230.88,101.03 231.77,101.07 232.68,101.1C237.23,101.26 241.79,101.4 246.34,101.46C248.26,101.5 250.17,101.56 252.08,101.63C257.7,101.87 257.7,101.87 262.69,99.77C264.17,98 264.17,98 266,95C268.68,92.88 268.68,92.88 271.44,91.13C272.34,90.53 273.25,89.93 274.18,89.32C277.36,87.83 279.53,87.74 283,88Z" fill="#A7A7A7"/>
	<path d="M86,234C88.01,236.54 89.71,239.17 91.38,241.94C94.19,246.47 97.19,249.92 101.81,252.69C102.53,253.12 103.26,253.55 104,254C104,254.66 104,255.32 104,256C104.6,256.1 105.2,256.21 105.81,256.31C108.31,257.1 109.38,257.97 111,260C111,260.66 111,261.32 111,262C111.62,262.29 112.24,262.58 112.88,262.88C115,264 115,264 117,266C118.65,266.71 120.32,267.38 122,268C121.67,268.99 121.34,269.98 121,271C124.06,272.3 127.15,273.39 130.32,274.4C131.1,274.65 131.89,274.9 132.69,275.16C134.32,275.68 135.95,276.19 137.58,276.7C138.36,276.95 139.14,277.21 139.95,277.46C140.65,277.69 141.36,277.91 142.09,278.14C144,279 144,279 145.44,280.53C149.29,284.15 155.86,283.16 160.83,283.17C161.69,283.17 162.55,283.18 163.44,283.18C166.23,283.19 169.02,283.19 171.81,283.19C172.77,283.19 173.73,283.19 174.71,283.19C186.13,283.19 197.37,282.95 208.73,281.72C225.04,280.11 241.63,280.84 258,281C258,280.34 258,279.68 258,279C261.63,279 265.26,279 269,279C268.67,278.01 268.34,277.02 268,276C268.72,276.14 269.44,276.29 270.19,276.44C271.99,276.8 273.8,277.11 275.63,277.38C278,278 278,278 279.22,279.51C281.97,281.8 284.41,281.39 287.93,281.41C288.61,281.42 289.28,281.43 289.98,281.44C292.13,281.47 294.28,281.49 296.44,281.5C299.27,281.51 302.1,281.55 304.93,281.59C306.19,281.6 307.45,281.61 308.75,281.62C312,282 312,282 316,285C304.12,284.67 292.24,284.34 280,284C280.99,286.97 281.98,289.94 283,293C283.19,296.06 283.19,296.06 283,298C279.41,299.28 278.18,299.09 274.67,297.42C273.5,296.69 272.34,295.95 271.19,295.19C270.59,294.82 269.99,294.45 269.38,294.07C267.87,293.11 266.43,292.06 265,291C265,290.34 265,289.68 265,289C264.38,288.73 263.76,288.46 263.13,288.19C261,287 261,287 259,284C256.78,283.57 256.78,283.57 254.2,283.67C253.22,283.68 252.24,283.68 251.23,283.69C249.7,283.72 249.7,283.72 248.13,283.75C246.64,283.76 246.64,283.76 245.13,283.77C240.3,283.82 235.54,284.04 230.73,284.5C222.58,285.2 214.43,285.16 206.26,285.17C204.56,285.17 202.86,285.17 201.16,285.18C197.62,285.18 194.08,285.19 190.54,285.19C186.04,285.19 181.54,285.2 177.04,285.22C173.54,285.23 170.03,285.23 166.53,285.23C164.87,285.23 163.22,285.23 161.56,285.24C148.61,285.3 135.67,285.07 123.5,280.13C122.85,279.88 122.2,279.64 121.53,279.39C106.09,273.38 96.31,260.42 89.51,245.8C86,237.6 86,237.6 86,234Z" fill="#979797"/>
	<path d="M303,124C309.85,123.77 316.56,123.98 323.37,124.66C351.79,127.45 380.23,127.13 408.76,127.07C414.32,127.06 419.89,127.05 425.45,127.05C436.3,127.04 447.15,127.02 458,127C456.68,127.33 455.36,127.66 454,128C454.33,128.66 454.66,129.32 455,130C458.01,130.47 458.01,130.47 461.66,130.63C462.66,130.7 462.66,130.7 463.67,130.76C465.8,130.89 467.93,131.01 470.06,131.13C471.5,131.21 472.94,131.3 474.38,131.39C477.92,131.6 481.46,131.8 485,132C485,132.33 485,132.66 485,133C469.17,133.02 453.34,133.04 437.51,133.05C430.15,133.06 422.8,133.06 415.44,133.08C409.02,133.09 402.59,133.09 396.17,133.09C392.78,133.1 389.39,133.1 386,133.11C362.83,133.15 339.63,133.01 316.56,130.56C315.29,130.44 314.01,130.32 312.7,130.19C302.72,129.18 302.72,129.18 299,127C300.65,126.67 302.3,126.34 304,126C303.67,125.34 303.34,124.68 303,124Z" fill="#D7D7D7"/>
	<path d="M116,114C115.01,115.65 114.02,117.3 113,119C113.68,118.36 114.36,117.72 115.06,117.06C118.46,114.67 120.9,114.32 125,114C125.5,116.47 125.5,116.47 126,119C125.22,119.47 124.43,119.95 123.63,120.44C117.78,124.33 112.13,129.19 107.88,134.79C107.26,135.52 106.64,136.25 106,137C105.01,137 104.02,137 103,137C102.67,137.99 102.34,138.98 102,140C99.57,142.43 97.19,144.47 94.03,145.88C91.61,147.07 89.9,148.07 88,150C86.73,153.97 86.26,157.85 86,162C86.66,162 87.32,162 88,162C87.52,164.17 87,165.99 85.98,167.97C84.51,172.53 84.74,176.96 84.77,181.71C84.77,182.76 84.77,183.81 84.77,184.89C84.77,187.11 84.78,189.33 84.79,191.54C84.81,194.89 84.81,198.24 84.81,201.6C84.83,212.44 84.95,223.2 86,234C85.67,234 85.34,234 85,234C78.31,204.53 77.05,159.84 92.44,133.2C94.1,130.86 95.95,129.01 98,127C99.37,125.33 100.73,123.64 102.06,121.94C109.79,112.07 109.79,112.07 116,114Z" fill="#E9E9E9"/>
	<path d="M550,250C550.99,250.49 550.99,250.49 552,251C550.13,261.5 542.31,269.69 534.1,276C518.47,286.11 500.14,287.61 482,287C482,286.67 482,286.34 482,286C482.95,285.95 483.91,285.9 484.89,285.85C486.14,285.78 487.4,285.7 488.69,285.63C490.55,285.52 490.55,285.52 492.45,285.41C495.69,285.04 498.07,284.38 501,283C501,282.01 501,281.02 501,280C500.34,279.67 499.68,279.34 499,279C499.99,279 500.98,279 502,279C502,277.68 502,276.36 502,275C503.54,274.85 503.54,274.85 505.11,274.7C519.08,273.25 529.1,270.68 539,260C539.97,258.71 540.91,257.4 541.81,256.06C544.11,252.85 545.28,252.03 549,251C549.33,250.67 549.66,250.34 550,250Z" fill="#C1BBBB"/>
	<path d="M491,103C497.88,102.75 503.83,103.59 510.5,105.25C511.83,105.56 511.83,105.56 513.18,105.87C519.12,107.31 524.52,109.31 530,112C530.65,112.32 531.3,112.63 531.96,112.96C535.96,115.07 538.36,117.38 541,121C541.66,121.33 542.32,121.66 543,122C543,122.66 543,123.32 543,124C543.66,124 544.32,124 545,124C555.27,136.49 559.63,153.02 559,169C558.67,169 558.34,169 558,169C557.89,168.36 557.79,167.73 557.68,167.08C557.19,164.17 556.69,161.27 556.19,158.38C556.02,157.38 555.86,156.38 555.69,155.35C554.77,150.13 553.89,145.55 551,141C549.36,139.95 547.7,138.95 546,138C544.62,136.37 543.28,134.71 542,133C541.42,132.44 540.84,131.89 540.25,131.31C539,130 539,130 539,128C538.01,127.67 537.02,127.34 536,127C535.36,126.26 534.72,125.51 534.06,124.75C526.98,117.46 515.61,116.04 506,115C506,114.67 506,114.34 506,114C515.42,113.14 522.4,115.49 531,119C531,118.01 531,117.02 531,116C530.05,115.86 529.1,115.71 528.13,115.56C525,115 525,115 523,114C521.55,113.78 520.1,113.61 518.65,113.46C517.8,113.38 516.95,113.29 516.07,113.2C515.18,113.11 514.29,113.03 513.38,112.94C512.48,112.85 511.58,112.76 510.66,112.66C508.44,112.44 506.22,112.22 504,112C503.67,111.01 503.34,110.02 503,109C502.34,109 501.68,109 501,109C500.67,108.01 500.34,107.02 500,106C497.89,105.19 497.89,105.19 495.44,104.81C494.61,104.65 493.78,104.5 492.93,104.33C492.3,104.22 491.66,104.11 491,104C491,103.67 491,103.34 491,103Z" fill="#B5B2B1"/>
	<path d="M281,267C280.34,268.65 279.68,270.3 279,272C297.48,272 315.96,272 335,272C335,272.66 335,273.32 335,274C345.89,274 356.78,274 368,274C368,274.33 368,274.66 368,275C318.5,275.49 318.5,275.49 268,276C268.33,276.99 268.66,277.98 269,279C265.37,279 261.74,279 258,279C257.67,278.01 257.34,277.02 257,276C257.66,276 258.32,276 259,276C259,275.34 259,274.68 259,274C252.07,274 245.14,274 238,274C241.29,272.35 243.26,271.62 246.75,271C248.12,270.75 248.12,270.75 249.52,270.5C250.48,270.34 251.44,270.17 252.44,270C253.42,269.83 254.41,269.65 255.42,269.48C258.28,268.98 261.14,268.49 264,268C265.4,267.75 266.8,267.51 268.2,267.26C277.19,265.76 277.19,265.76 281,267Z" fill="#131313"/>
	<path d="M429.56,254.88C430.26,254.88 430.95,254.88 431.66,254.88C440.11,254.9 448.55,254.94 457,255C457,255.33 457,255.66 457,256C444.13,256.33 431.26,256.66 418,257C417.67,257.66 417.34,258.32 417,259C422.61,259 428.22,259 434,259C434.49,259.99 434.49,259.99 435,261C402.33,261 369.66,261 336,261C336.66,259.68 337.32,258.36 338,257C368.53,255.67 399,254.8 429.56,254.88Z" fill="#BEBEBE"/>
	<path d="M345.39,254.9C346.83,254.9 348.27,254.91 349.71,254.91C353.46,254.91 357.21,254.92 360.96,254.93C364.8,254.94 368.64,254.95 372.48,254.95C379.99,254.96 387.49,254.98 395,255C395,255.33 395,255.66 395,256C366.79,256.99 366.79,256.99 338,258C338.49,258.99 338.49,258.99 339,260C332.81,261.59 326.94,262.32 320.56,262.5C313.81,262.76 307.15,263.24 300.44,264.06C293.93,264.86 287.57,265.26 281,265C280.34,263.68 279.68,262.36 279,261C281.06,258.94 285.15,259.35 287.99,259.06C288.8,258.98 289.62,258.89 290.45,258.8C292.19,258.62 293.92,258.45 295.65,258.27C298.26,258 300.88,257.73 303.49,257.46C305.17,257.29 306.86,257.11 308.55,256.94C309.7,256.82 309.7,256.82 310.87,256.7C313.25,256.46 315.62,256.23 318,256C319.35,255.86 319.35,255.86 320.72,255.72C328.95,254.94 337.13,254.87 345.39,254.9Z" fill="#DADADA"/>
	<path d="M129,274C133.69,273.73 137.34,274 141.82,275.43C148.35,277.28 154.83,277.76 161.59,278.14C163.66,278.25 165.72,278.39 167.79,278.52C172.89,278.85 172.89,278.85 178,279C178.33,278.67 178.66,278.34 179,278C180.42,277.91 181.84,277.89 183.25,277.9C184.53,277.91 184.53,277.91 185.84,277.91C186.74,277.92 187.64,277.93 188.56,277.94C189.46,277.94 190.37,277.95 191.29,277.95C193.53,277.96 195.76,277.98 198,278C198,278.66 198,279.32 198,280C198.74,279.81 199.49,279.63 200.25,279.44C205.57,278.82 210.69,279.44 216,280C216,280.66 216,281.32 216,282C201.57,283.89 187.22,284.22 172.69,284.25C171.79,284.26 170.9,284.26 169.98,284.27C158.17,284.32 146.7,283.68 135,282C135,281.67 135,281.34 135,281C139.46,280.51 139.46,280.51 144,280C139.05,278.35 134.1,276.7 129,275C129,274.67 129,274.34 129,274Z" fill="#CECECE"/>
	<path d="M146.8,100.89C148.51,100.89 148.51,100.89 150.26,100.89C152.09,100.89 152.09,100.89 153.96,100.9C155.22,100.9 156.47,100.91 157.77,100.91C161.1,100.91 164.43,100.92 167.77,100.93C171.17,100.94 174.58,100.95 177.98,100.95C184.65,100.96 191.33,100.98 198,101C198,101.66 198,102.32 198,103C207.57,103.33 217.14,103.66 227,104C223.55,106.3 222.32,106.23 218.27,106.16C217.16,106.15 216.05,106.14 214.9,106.13C213.74,106.11 212.57,106.08 211.38,106.06C209.07,106.03 206.77,106 204.46,105.97C203.44,105.95 202.41,105.94 201.36,105.92C199.04,105.73 199.04,105.73 198,107C196.36,107.1 194.72,107.13 193.08,107.13C192.07,107.13 191.07,107.14 190.03,107.14C188.97,107.13 187.91,107.13 186.81,107.13C185.77,107.13 184.73,107.13 183.65,107.14C178.64,107.13 173.93,106.98 169,106C157.01,104.86 144.55,107.74 133.08,111.13C130.2,111.94 127.97,112.18 125,112C125.33,111.34 125.66,110.68 126,110C128.48,109.25 128.48,109.25 131.63,108.56C136.39,107.45 140.59,106.1 145,104C142.03,103.67 139.06,103.34 136,103C136,102.67 136,102.34 136,102C139.67,101.15 143.04,100.88 146.8,100.89Z" fill="#C9C9C9"/>
	<path d="M210,100C210,100.33 210,100.66 210,101C187.23,101.33 164.46,101.66 141,102C143.48,102.5 143.48,102.5 146,103C143.63,106.55 142.87,106.56 138.88,107.5C130.88,109.53 124.75,111.88 117.98,116.7C116,118 116,118 113,119C113.66,117.35 114.32,115.7 115,114C111.32,114.28 109.42,114.64 106.59,117.07C105.86,117.94 105.13,118.8 104.38,119.69C103.61,120.59 102.85,121.48 102.06,122.41C99.85,125.19 97.84,127.96 96,131C95.67,130.34 95.34,129.68 95,129C105.02,114.6 115.11,104.78 132.69,100.81C157.86,96.45 184.58,99 210,100Z" fill="#464646"/>
	<path d="M86,234C88.01,236.54 89.71,239.17 91.38,241.94C94.19,246.47 97.19,249.92 101.81,252.69C102.53,253.12 103.26,253.55 104,254C104,254.66 104,255.32 104,256C104.6,256.1 105.2,256.21 105.81,256.31C108.31,257.1 109.38,257.97 111,260C111,260.66 111,261.32 111,262C111.62,262.29 112.24,262.58 112.88,262.88C115,264 115,264 117,266C118.65,266.71 120.32,267.38 122,268C121.51,268.99 121.51,268.99 121,270C118.03,268.88 115.67,267.78 113,266C117.23,271.48 121.65,275.07 128,278C122.53,279.82 117.14,277.18 112,275C105.78,270.84 101.1,265.2 97,259C96.5,258.24 95.99,257.48 95.48,256.7C86,241.64 86,241.64 86,234Z" fill="#BEBEBE"/>
	<path d="M195,112C195,112.33 195,112.66 195,113C198.63,113.33 202.26,113.66 206,114C206,114.33 206,114.66 206,115C205.29,115.03 204.58,115.07 203.84,115.1C177.93,116.44 153.88,120.64 129.44,129.38C128.37,129.75 127.29,130.12 126.19,130.51C120.44,132.56 115.16,134.85 109.89,137.93C107.64,139.2 105.4,140.07 102.94,140.81C102.18,141.05 101.43,141.28 100.65,141.52C100.11,141.68 99.56,141.84 99,142C100.81,139.5 100.81,139.5 103,137C103.99,137 104.98,137 106,137C106.33,136.01 106.66,135.02 107,134C107.66,134 108.32,134 109,134C109,133.34 109,132.68 109,132C109.99,131.73 110.98,131.46 112,131.19C115.38,130.22 118.63,129.04 121.91,127.78C124.78,126.71 127.69,125.76 130.61,124.82C132.24,124.26 133.85,123.66 135.45,123.03C142.26,120.35 148.92,118.93 156.11,117.71C158.77,117.22 161.32,116.69 163.93,116.02C168.23,114.91 172.56,114.11 176.94,113.38C178.06,113.17 178.06,113.17 179.2,112.97C184.53,112.07 189.59,111.88 195,112Z" fill="#D8D8D8"/>
	<path d="M458,127C456.68,127.33 455.36,127.66 454,128C454.49,128.99 454.49,128.99 455,130C458.01,130.47 458.01,130.47 461.66,130.63C462.32,130.67 462.99,130.72 463.67,130.76C465.8,130.89 467.93,131.01 470.06,131.13C471.5,131.21 472.94,131.3 474.38,131.39C477.92,131.6 481.46,131.8 485,132C485,132.33 485,132.66 485,133C473.99,132.89 462.99,132.78 451.98,132.66C446.87,132.61 441.76,132.55 436.65,132.5C431.71,132.45 426.77,132.4 421.83,132.35C419.95,132.33 418.07,132.31 416.2,132.29C388.55,132.04 388.55,132.04 384,129C387.34,128 390.43,127.85 393.91,127.79C395.1,127.77 396.29,127.75 397.52,127.73C398.81,127.72 400.09,127.7 401.42,127.68C402.76,127.66 404.1,127.64 405.44,127.62C408.97,127.57 412.5,127.52 416.03,127.47C418.89,127.43 421.75,127.38 424.61,127.34C448.48,126.97 448.48,126.97 458,127Z" fill="#CDCDCD"/>
	<path d="M116,250C118.55,250.64 118.55,250.64 122,252C123.58,252.59 125.15,253.18 126.73,253.77C127.61,254.1 128.48,254.43 129.38,254.77C146.67,261.21 163.72,265.58 182,268C182.71,268.1 183.43,268.2 184.16,268.3C198.05,270.2 212,270.6 226,271C224.68,271.66 223.36,272.32 222,273C222,273.66 222,274.32 222,275C220.58,275.03 219.17,275.05 217.75,275.06C216.57,275.08 216.57,275.08 215.36,275.1C213,275 213,275 211.13,274.51C208.88,273.97 206.85,273.83 204.54,273.75C203.69,273.72 202.83,273.69 201.95,273.66C201.04,273.63 200.13,273.6 199.19,273.56C182.71,272.84 167.68,269.91 151.77,265.72C149.38,265.1 146.98,264.5 144.58,263.93C137.25,262.12 130.69,259.71 123.9,256.39C120.33,254.68 116.73,253.32 113,252C113.99,251.34 114.98,250.68 116,250Z" fill="#D7D7D7"/>
	<path d="M355.53,127.77C357.04,127.77 358.56,127.78 360.07,127.8C360.87,127.81 361.66,127.81 362.48,127.81C365.03,127.82 367.58,127.85 370.13,127.88C371.85,127.89 373.58,127.89 375.3,127.9C379.53,127.92 383.77,127.96 388,128C387.67,128.66 387.34,129.32 387,130C396.42,130.95 405.81,131.21 415.27,131.32C416.8,131.34 418.33,131.36 419.86,131.38C423.84,131.43 427.82,131.48 431.81,131.53C435.89,131.58 439.98,131.64 444.06,131.69C452.04,131.8 460.02,131.9 468,132C468,132.33 468,132.66 468,133C454.16,133.02 440.32,133.04 426.48,133.05C420.05,133.06 413.63,133.06 407.2,133.08C400.99,133.09 394.78,133.09 388.56,133.09C386.2,133.1 383.84,133.1 381.48,133.11C357.75,133.16 357.75,133.16 346,132C346.62,131.71 347.24,131.42 347.88,131.13C354.02,127.87 354.02,127.87 355.53,127.77Z" fill="#E6E6E6"/>
	<path d="M418,262C431.2,262 444.4,262 458,262C458,264 458,264 455.5,266.63C449.72,270.68 441.74,269.52 435,269C434.01,268.67 433.02,268.34 432,268C429.43,267.93 426.88,267.91 424.31,267.94C423.61,267.94 422.91,267.95 422.19,267.95C420.46,267.96 418.73,267.98 417,268C417.33,266.02 417.66,264.04 418,262Z" fill="#080808"/>
	<path d="M93,133C93.33,133.66 93.66,134.32 94,135C94.66,135.33 95.32,135.66 96,136C95.01,137.49 95.01,137.49 94,139C95.65,138.67 97.3,138.34 99,138C98.46,141.79 96.96,143.27 94.06,145.69C93.35,146.29 92.64,146.89 91.91,147.51C90,149 90,149 88,150C87.31,152.81 87.31,152.81 86.88,156.06C86.71,157.17 86.54,158.27 86.37,159.41C86.25,160.26 86.12,161.12 86,162C86.66,162 87.32,162 88,162C87.52,164.17 87,165.99 85.98,167.97C84.51,172.53 84.74,176.96 84.77,181.71C84.77,182.76 84.77,183.81 84.77,184.89C84.77,187.11 84.78,189.33 84.79,191.54C84.81,194.89 84.81,198.24 84.81,201.6C84.83,212.44 84.95,223.2 86,234C85.67,234 85.34,234 85,234C78.61,205.82 76.29,159.47 92.05,134.37C92.36,133.92 92.68,133.47 93,133ZM100,136C103,137 103,137 103,137Z" fill="#636363"/>
	<path d="M273,279C273.24,279.53 273.47,280.07 273.72,280.62C274.79,283.04 275.86,285.46 276.94,287.88C277.31,288.72 277.68,289.56 278.07,290.43C278.6,291.63 278.6,291.63 279.15,292.87C279.48,293.61 279.81,294.35 280.15,295.12C280.74,296.43 281.36,297.72 282,299C277.23,298.48 274.13,297.17 270.13,294.56C268.67,293.64 268.67,293.64 267.2,292.69C266.47,292.13 265.75,291.58 265,291C265,290.34 265,289.68 265,289C264.36,288.81 263.72,288.63 263.06,288.44C261,287 261,287 260.25,283.38C260.17,282.26 260.08,281.15 260,280C261.6,279.83 263.21,279.67 264.81,279.5C265.71,279.41 266.6,279.31 267.52,279.22C270,279 270,279 273,279Z" fill="#C7C7C7"/>
	<path d="M111,264C113.84,265.33 116.23,266.88 118.75,268.75C125.25,273.17 132.65,275.4 140,278C144.73,279.73 144.73,279.73 147,282C150.57,282.95 154.06,283.18 157.74,283.32C158.8,283.36 159.87,283.4 160.97,283.44C162.07,283.48 163.18,283.52 164.31,283.56C165.43,283.61 166.56,283.65 167.71,283.69C170.48,283.8 173.24,283.9 176,284C176,284.33 176,284.66 176,285C171.98,285.05 167.97,285.09 163.95,285.11C161.93,285.12 159.91,285.15 157.89,285.18C145.98,285.23 134.38,284.55 123.25,280C122.57,279.74 121.88,279.48 121.18,279.21C118.31,278.09 116.2,277.2 114,275C117.38,275.54 120.69,276.14 124,277C123.48,276.65 122.96,276.3 122.43,275.93C117.49,272.44 114.26,269.09 111,264Z" fill="#3C3C3C"/>
	<path d="M116,114C115.35,115.67 114.68,117.34 114,119C113.73,119.66 113.46,120.32 113.19,121C111.52,123.81 109.42,125.83 107,128C106.34,128 105.68,128 105,128C104.67,128.99 104.34,129.98 104,131C102.67,132.33 101.33,133.67 100,135C98.76,137.13 98.76,137.13 98,139C96.68,139 95.36,139 94,139C94,131 94,131 95.75,129.07C96.49,128.38 97.23,127.7 98,127C99.37,125.33 100.73,123.64 102.06,121.94C109.79,112.07 109.79,112.07 116,114Z" fill="#DFDFDF"/>
	<path d="M550,250C550.66,250.33 551.32,250.66 552,251C550.56,259.12 545.45,265.8 539.49,271.33C537,273 537,273 533,273C533,273.66 533,274.32 533,275C532.01,275 531.02,275 530,275C530,273.68 530,272.36 530,271C530.66,271 531.32,271 532,271C532.25,270.46 532.49,269.93 532.75,269.38C534.3,266.42 536.1,263.75 538,261C538.47,260.31 538.94,259.62 539.42,258.91C544.1,252.26 544.1,252.26 549,251C549.33,250.67 549.66,250.34 550,250Z" fill="#CDCBCC"/>
	<path d="M456,264C458.81,264.25 458.81,264.25 461,265C459.81,267.94 459.81,267.94 458,271C455.31,271.88 455.31,271.88 453,272C453.99,272.66 454.98,273.32 456,274C451.5,274.05 447,274.09 442.49,274.11C440.96,274.12 439.43,274.13 437.9,274.15C435.7,274.18 433.49,274.19 431.29,274.2C430.61,274.21 429.92,274.22 429.22,274.23C425.57,274.23 424.13,274.09 421,272C424.43,269.71 425.97,269.69 430.02,269.51C431.21,269.44 432.4,269.38 433.62,269.31C436.11,269.19 438.61,269.07 441.11,268.96C442.89,268.86 442.89,268.86 444.71,268.76C445.8,268.71 446.88,268.66 448,268.61C451.59,267.88 453.25,266.34 456,264Z" fill="#D4D4D4"/>
	<path d="M269,112C294.08,112 319.16,112 345,112C345,112.33 345,112.66 345,113C340.54,113.5 340.54,113.5 336,114C336,114.33 336,114.66 336,115C330.56,115.03 325.12,115.04 319.68,115.05C317.83,115.06 315.99,115.07 314.15,115.08C304.26,115.12 294.47,115.06 284.62,114.22C281.94,113.96 281.94,113.96 279,114C277.27,113.85 275.54,113.68 273.81,113.5C272.46,113.36 272.46,113.36 271.08,113.22C270.39,113.15 269.71,113.07 269,113C269,112.67 269,112.34 269,112Z" fill="#252525"/>
	<path d="M276.66,260.79C277.43,260.86 278.2,260.93 279,261C279.66,261.99 280.32,262.98 281,264C281.99,264.66 282.98,265.32 284,266C274.43,268.2 264.76,269.06 255,270C255,268.68 255,267.36 255,266C253.68,265.67 252.36,265.34 251,265C259.59,262.86 267.85,261.48 276.66,260.79Z" fill="#DADADA"/>
	<path d="M527,270C527.66,270.33 528.32,270.66 529,271C523.4,273.67 518.07,275.68 512,277C512.33,277.66 512.66,278.32 513,279C512.34,279 511.68,279 511,279C511.33,280.65 511.66,282.3 512,284C504.7,286.67 497.75,287.15 490.06,287.06C489.28,287.06 488.5,287.05 487.7,287.05C485.8,287.04 483.9,287.02 482,287C482,286.67 482,286.34 482,286C483.43,285.93 483.43,285.93 484.89,285.85C486.14,285.78 487.4,285.7 488.69,285.63C490.55,285.52 490.55,285.52 492.45,285.41C495.69,285.04 498.07,284.38 501,283C501,282.01 501,281.02 501,280C500.34,279.67 499.68,279.34 499,279C499.99,279 500.98,279 502,279C502,277.68 502,276.36 502,275C503.05,274.89 504.1,274.78 505.18,274.67C512.86,273.82 519.7,272.64 527,270Z" fill="#9A8B8D"/>
	<path d="M234,276C241.59,276 249.18,276 257,276C257.49,278.48 257.49,278.48 258,281C244.66,281.63 231.36,282.18 218,282C217.67,281.34 217.34,280.68 217,280C221.95,280 226.9,280 232,280C232.66,278.68 233.32,277.36 234,276Z" fill="#CBCBCB"/>
	<path d="M259,274C294.97,274 330.94,274 368,274C368,274.33 368,274.66 368,275C318.5,275.49 318.5,275.49 268,276C268.33,276.99 268.66,277.98 269,279C265.37,279 261.74,279 258,279C257.67,278.01 257.34,277.02 257,276C257.66,276 258.32,276 259,276C259,275.34 259,274.68 259,274Z" fill="#646464"/>
	<path d="M129,105C128.67,106.32 128.34,107.64 128,109C129.65,108.67 131.3,108.34 133,108C132.67,108.66 132.34,109.32 132,110C131.01,110.25 130.02,110.5 129,110.75C124.73,111.84 121.57,114.12 118.02,116.66C116,118 116,118 113,119C113.66,117.35 114.32,115.7 115,114C111.32,114.28 109.42,114.64 106.59,117.07C105.49,118.37 105.49,118.37 104.38,119.69C103.61,120.59 102.85,121.48 102.06,122.41C99.85,125.19 97.84,127.96 96,131C95.67,130.34 95.34,129.68 95,129C107.18,111.51 107.18,111.51 117,108C118.2,107.44 119.39,106.89 120.63,106.31C123.76,105.09 125.69,104.7 129,105Z" fill="#676767"/>
	<path d="M89,233C89.6,233.62 90.2,234.24 90.81,234.88C93.01,237.14 93.01,237.14 96,239C96,239.66 96,240.32 96,241C96.78,241.04 97.57,241.08 98.38,241.13C103.48,242.36 107.8,244.87 112,248C112,248.66 112,249.32 112,250C110.02,250 108.04,250 106,250C105.67,249.01 105.34,248.02 105,247C103.35,247.33 101.7,247.66 100,248C99.67,249.32 99.34,250.64 99,252C93.02,248.13 89.22,241.67 87,235C87.66,234.34 88.32,233.68 89,233Z" fill="#CECECE"/>
	<path d="M282,89C280.09,95.55 277.46,101.11 274,107C269.71,106.67 265.42,106.34 261,106C261.99,105.01 262.98,104.02 264,103C264.66,103 265.32,103 266,103C266.25,102.42 266.49,101.85 266.75,101.25C268.17,98.7 269.95,97.05 272,95C272.33,94.01 272.66,93.02 273,92C279.11,89 279.11,89 282,89Z" fill="#F1F1F1"/>
	<path d="M301,129C307.54,128.9 313.88,129.29 320.38,129.94C330.65,130.92 340.9,131.37 351.21,131.57C352.85,131.61 352.85,131.61 354.51,131.66C355.48,131.67 356.44,131.69 357.43,131.71C360.06,132.01 361.74,132.66 364,134C333.01,134.38 333.01,134.38 319.56,133.13C318.71,133.05 317.87,132.97 316.99,132.89C311.56,132.32 306.31,131.29 301,130C301,129.67 301,129.34 301,129Z" fill="#373737"/>
	<path d="M221.59,281.12C222.56,281.17 223.53,281.22 224.52,281.27C225.51,281.32 226.49,281.38 227.5,281.44C228.51,281.49 229.53,281.54 230.57,281.6C233.05,281.72 235.52,281.86 238,282C233.59,286.41 224.21,285.05 218.23,285.11C216.26,285.11 214.3,285.11 212.33,285.1C211.28,285.1 210.23,285.09 209.15,285.09C205.85,285.09 202.55,285.08 199.25,285.06C196.99,285.06 194.73,285.05 192.48,285.05C186.98,285.04 181.49,285.02 176,285C176,284.67 176,284.34 176,284C176.93,283.94 177.85,283.89 178.81,283.83C182.28,283.62 185.76,283.41 189.23,283.2C190.73,283.11 192.23,283.02 193.72,282.93C195.89,282.8 198.05,282.67 200.22,282.54C201.52,282.46 202.82,282.38 204.15,282.3C206.85,282.09 209.47,281.82 212.14,281.46C215.4,281.07 218.33,280.95 221.59,281.12Z" fill="#909090"/>
	<path d="M504,112C513.46,111.82 522.33,111.82 531,116C531.72,118.11 531.72,118.11 532,120C530.63,119.54 529.25,119.08 527.88,118.63C527.05,118.35 526.23,118.08 525.39,117.8C523.48,117.16 521.58,116.49 519.69,115.81C516.83,114.81 516.83,114.81 513,115C515.97,115.66 518.94,116.32 522,117C520,119 520,119 517.57,119.14C516.08,119.06 516.08,119.06 514.55,118.98C512.94,118.9 512.94,118.9 511.29,118.82C509.6,118.72 509.6,118.72 507.88,118.63C506.17,118.54 506.17,118.54 504.43,118.45C501.62,118.31 498.81,118.16 496,118C499,116 499,116 503,116C503.33,114.68 503.66,113.36 504,112Z" fill="#D6CACA"/>
	<path d="M282,120C284.83,120.31 287.67,120.62 290.5,120.94C291.29,121.02 292.08,121.11 292.9,121.2C297.94,121.76 302.97,122.36 308,123C306.02,123.99 306.02,123.99 304,125C306.97,125.5 306.97,125.5 310,126C310,126.33 310,126.66 310,127C307.15,127.2 304.29,127.38 301.44,127.56C300.64,127.62 299.84,127.67 299.01,127.73C294.16,128.03 289.79,127.87 285,127C285,125.02 285,123.04 285,121C284.01,120.67 283.02,120.34 282,120Z" fill="#C7C7C7"/>
	<path d="M491,103C498.72,102.6 506.74,103.18 514,106C515.22,108.49 515.22,108.49 516,111C516.99,111.66 517.98,112.32 519,113C514.05,112.67 509.1,112.34 504,112C503.67,111.01 503.34,110.02 503,109C502.34,109 501.68,109 501,109C500.67,108.01 500.34,107.02 500,106C497.89,105.19 497.89,105.19 495.44,104.81C494.61,104.65 493.78,104.5 492.93,104.33C492.3,104.22 491.66,104.11 491,104C491,103.67 491,103.34 491,103Z" fill="#ACABAB"/>
	<path d="M184.88,279.81C186.98,279.83 188.76,279.93 190.79,280.5C193.39,281.09 195.75,281.11 198.42,281.1C199.45,281.09 200.47,281.09 201.53,281.09C203.12,281.08 203.12,281.08 204.75,281.06C205.83,281.06 206.91,281.05 208.02,281.05C210.68,281.04 213.34,281.02 216,281C216,281.33 216,281.66 216,282C194.75,284.79 173.38,284.19 152,284C152,283.67 152,283.34 152,283C153.21,282.97 153.21,282.97 154.45,282.94C158.09,282.84 161.73,282.74 165.38,282.63C166.65,282.59 167.92,282.56 169.23,282.53C170.44,282.49 171.65,282.45 172.9,282.41C174.02,282.38 175.14,282.35 176.29,282.32C180.28,281.85 180.49,280.02 184.88,279.81Z" fill="#B6B6B6"/>
	<path d="M86,234C88.01,236.54 89.71,239.17 91.38,241.94C93.54,245.45 95.99,248.15 99,251C101.82,253.97 102.94,255.19 103.25,259.31C103.17,260.2 103.08,261.09 103,262C100.07,261.69 99.1,261.11 97.09,258.89C94.81,255.74 93.06,252.48 91.38,249C90.93,248.1 90.93,248.1 90.47,247.17C86,238.08 86,238.08 86,234Z" fill="#A1A1A1"/>
	<path d="M265,281C268.16,280.89 270.98,281.02 274,282C277.2,285.67 278,289.2 278,294C276.68,294 275.36,294 274,294C274,293.34 274,292.68 274,292C273.22,291.71 272.43,291.42 271.63,291.13C269,290 269,290 267,288C267,287.01 267,286.02 267,285C266.01,285 265.02,285 264,285C264.33,283.68 264.66,282.36 265,281Z" fill="#EEEEEE"/>
	<path d="M557,192C557.66,192 558.32,192 559,192C559.33,199.59 559.66,207.18 560,215C559.34,215 558.68,215 558,215C557.67,216.32 557.34,217.64 557,219C554.17,216.17 554.42,213.24 554.19,209.44C554.14,208.72 554.1,208 554.05,207.26C553.8,201.55 554.65,197.26 557,192Z" fill="#F6F6F6"/>
	<path d="M333,126C342.9,126.33 352.8,126.66 363,127C363,127.33 363,127.66 363,128C361.35,128.33 359.7,128.66 358,129C358,129.33 358,129.66 358,130C349.58,131.7 341.58,132.25 333,132C333.19,131.38 333.37,130.76 333.56,130.13C334.24,127.96 334.24,127.96 333,126Z" fill="#D0D0D0"/>
	<path d="M278,98C278.33,99.32 278.66,100.64 279,102C283.7,102.05 288.39,102.09 293.09,102.11C294.68,102.12 296.28,102.13 297.87,102.15C300.17,102.18 302.48,102.19 304.78,102.2C305.83,102.21 305.83,102.21 306.91,102.23C311.91,102.23 316.17,101.31 321,100C324.19,99.8 324.19,99.8 327,99.88C328.42,99.9 328.42,99.9 329.88,99.93C330.58,99.95 331.28,99.98 332,100C332,100.33 332,100.66 332,101C330.55,101.2 330.55,101.2 329.08,101.4C327.81,101.58 326.55,101.76 325.25,101.94C323.37,102.2 323.37,102.2 321.45,102.46C318.23,102.9 318.23,102.9 316.02,103.52C312.6,104.33 309.09,104.22 305.59,104.28C304.37,104.31 304.37,104.31 303.13,104.34C299.67,104.42 296.2,104.48 292.74,104.55C290.21,104.6 287.68,104.66 285.15,104.72C284.36,104.73 283.58,104.75 282.77,104.76C278.75,104.77 278.75,104.77 275,106C276.88,100.25 276.88,100.25 278,98Z" fill="#212121"/>
	<path d="M281,267C280.34,268.65 279.68,270.3 279,272C281.97,272 284.94,272 288,272C288,272.33 288,272.66 288,273C280.31,273.97 272.74,274.11 265,274C265,273.67 265,273.34 265,273C266.65,273 268.3,273 270,273C270.33,272.01 270.66,271.02 271,270C266.71,270 262.42,270 258,270C258,269.67 258,269.34 258,269C259.12,268.87 260.24,268.73 261.39,268.6C262.87,268.42 264.34,268.24 265.81,268.06C266.55,267.98 267.29,267.89 268.05,267.8C279.19,266.44 279.19,266.44 281,267Z" fill="#1E1E1E"/>
	<path d="M260,107C262.6,106.71 262.6,106.71 265.63,106.81C267.13,106.85 267.13,106.85 268.66,106.89C269.43,106.93 270.21,106.96 271,107C270.34,107.99 269.68,108.98 269,110C269.49,110.99 269.49,110.99 270,112C253.66,112.5 253.66,112.5 237,113C236.67,112.34 236.34,111.68 236,111C236.66,110.99 237.31,110.97 237.99,110.96C240.95,110.88 243.91,110.78 246.88,110.69C247.91,110.66 248.94,110.64 250,110.62C250.99,110.58 251.98,110.55 252.99,110.51C253.9,110.49 254.81,110.46 255.75,110.43C256.49,110.29 257.24,110.15 258,110C258.66,109.01 259.32,108.02 260,107Z" fill="#8E8E8E"/>
	<path d="M277,104C289.21,104 301.42,104 314,104C314,104.33 314,104.66 314,105C297.67,105.5 297.67,105.5 281,106C280.67,106.66 280.34,107.32 280,108C279.01,108 278.02,108 277,108C277,106.68 277,105.36 277,104ZM278,109C278,109.33 278,109.66 278,110C281.96,110.33 285.92,110.66 290,111C290,111.33 290,111.66 290,112C286.71,112.06 283.42,112.09 280.13,112.13C278.72,112.15 278.72,112.15 277.29,112.18C276.39,112.18 275.49,112.19 274.57,112.2C273.74,112.21 272.92,112.22 272.06,112.23C270,112 270,112 268,110C274.29,107.57 274.29,107.57 278,109Z" fill="#B2B2B2"/>
	<path d="M112,118C112.66,118.66 113.32,119.32 114,120C112.88,121.34 111.76,122.67 110.63,124C109.69,125.11 109.69,125.11 108.73,126.25C108.16,126.83 107.59,127.4 107,128C106.34,128 105.68,128 105,128C104.67,128.99 104.34,129.98 104,131C102.67,132.33 101.33,133.67 100,135C98.76,137.13 98.76,137.13 98,139C96.68,139 95.36,139 94,139C94,136.33 94,133.67 94,131C94.99,131 95.98,131 97,131C97,131.66 97,132.32 97,133C97.97,132.22 98.94,131.43 99.94,130.63C100.48,130.18 101.03,129.74 101.59,129.29C103.13,128.03 103.13,128.03 104,126C104.66,126 105.32,126 106,126C106.25,125.42 106.5,124.85 106.75,124.25C108.17,121.7 109.88,119.98 112,118Z" fill="#D0D0D0"/>
	<path d="M213,272C222.57,272 232.14,272 242,272C242,272.33 242,272.66 242,273C247.61,273.33 253.22,273.66 259,274C259,274.66 259,275.32 259,276C254.7,275.9 250.4,275.8 246.1,275.68C244.64,275.64 243.18,275.61 241.73,275.58C232,275.36 222.62,274.62 213,273C213,272.67 213,272.34 213,272Z" fill="#BDBDBD"/>
	<path d="M319,126C321.29,125.95 323.58,125.91 325.88,125.88C327.79,125.84 327.79,125.84 329.74,125.8C333,126 333,126 335,128C334.67,128.66 334.34,129.32 334,130C335.98,130 337.96,130 340,130C340,130.33 340,130.66 340,131C336.9,131.06 333.79,131.09 330.69,131.13C329.37,131.15 329.37,131.15 328.02,131.18C327.17,131.18 326.32,131.19 325.45,131.2C324.67,131.21 323.89,131.22 323.08,131.23C321,131 321,131 318,129C318.66,129 319.32,129 320,129C319.67,128.01 319.34,127.02 319,126Z" fill="#DEDEDE"/>
	<path d="M552,227C552.33,227 552.66,227 553,227C553,229.31 553,231.62 553,234C553.66,234.33 554.32,234.66 555,235C555.59,237.65 555.74,240.29 556,243C555.34,243 554.68,243 554,243C553.67,243.66 553.34,244.32 553,245C551.35,245 549.7,245 548,245C546.64,240.93 548.05,238.19 549.44,234.31C549.68,233.61 549.92,232.91 550.17,232.19C550.77,230.45 551.39,228.73 552,227Z" fill="#F3F3F3"/>
	<path d="M269,93C269.66,93.33 270.32,93.66 271,94C268.86,97.21 267.24,98.06 264,100C263.34,100.99 262.68,101.98 262,103C259.23,103.28 256.68,103.37 253.91,103.33C253.1,103.33 252.29,103.32 251.45,103.32C249.73,103.32 248,103.3 246.27,103.28C243.67,103.25 241.07,103.24 238.46,103.23C229.6,103.19 220.82,102.96 212,102C212,101.67 212,101.34 212,101C212.6,101.01 213.21,101.03 213.83,101.04C220.1,101.17 226.38,101.26 232.66,101.33C235,101.36 237.35,101.4 239.69,101.45C243.06,101.53 246.42,101.56 249.79,101.59C250.84,101.62 251.88,101.65 252.96,101.68C258.16,101.83 258.16,101.83 262.7,99.69C264.21,97.91 264.21,97.91 266,95C266.99,94.34 267.98,93.68 269,93Z" fill="#202020"/>
	<path d="M189,271C201.21,271 213.42,271 226,271C224.02,271.99 224.02,271.99 222,273C222,273.66 222,274.32 222,275C220.58,275.03 219.17,275.05 217.75,275.06C216.57,275.08 216.57,275.08 215.36,275.1C213,275 213,275 211.15,274.53C208.84,273.96 206.61,273.69 204.23,273.46C203.34,273.38 202.46,273.29 201.54,273.2C200.62,273.11 199.7,273.03 198.75,272.94C197.81,272.85 196.88,272.76 195.91,272.66C193.61,272.44 191.3,272.22 189,272C189,271.67 189,271.34 189,271Z" fill="#D3D3D3"/>
	<path d="M283,88C282.52,92.22 281.83,94.8 279,98C279.56,94.64 280.42,92.01 282,89C280.52,89.4 279.04,89.82 277.56,90.25C276.74,90.48 275.92,90.71 275.07,90.95C272.82,91.79 272.82,91.79 272.3,93.98C272.2,94.65 272.1,95.31 272,96C270.26,98.6 268.36,100.94 266,103C265.34,103 264.68,103 264,103C263.67,103.66 263.34,104.32 263,105C262.67,104.01 262.34,103.02 262,102C264.15,98.77 265.27,97.24 269,96C269.64,95.03 270.28,94.06 270.94,93.06C274.37,87.97 277.03,87.73 283,88Z" fill="#CFCFCF"/>
	<path d="M449,127C451.97,127 454.94,127 458,127C456.68,127.33 455.36,127.66 454,128C454.33,128.66 454.66,129.32 455,130C458.01,130.47 458.01,130.47 461.66,130.63C462.66,130.7 462.66,130.7 463.67,130.76C465.8,130.89 467.93,131.01 470.06,131.13C471.5,131.21 472.94,131.3 474.38,131.39C477.92,131.6 481.46,131.8 485,132C485,132.33 485,132.66 485,133C472.96,133.14 461.02,132.74 449,132C449,130.35 449,128.7 449,127Z" fill="#CCCCCC"/>
	<path d="M275,120C281.63,119.88 281.63,119.88 285,121C285,122.32 285,123.64 285,125C286.65,125 288.3,125 290,125C290,125.33 290,125.66 290,126C283.89,126.11 278.05,125.9 272,125C272,124.01 272,123.02 272,122C272.99,122 273.98,122 275,122C275,121.34 275,120.68 275,120Z" fill="#D6D6D6"/>
	<path d="M198,101C222.02,100.68 222.02,100.68 227,104C222.54,104.03 218.08,104.05 213.63,104.06C212.35,104.07 211.08,104.08 209.77,104.09C207.96,104.09 207.96,104.09 206.1,104.1C204.42,104.11 204.42,104.11 202.71,104.11C200,104 200,104 198,103C198,102.34 198,101.68 198,101Z" fill="#B0B0B0"/>
	<path d="M508,279C508,280.32 508,281.64 508,283C507.34,283 506.68,283 506,283C506,283.99 506,284.98 506,286C500.64,286.9 495.5,287.12 490.06,287.06C489.28,287.06 488.5,287.05 487.7,287.05C485.8,287.04 483.9,287.02 482,287C482,286.67 482,286.34 482,286C483.43,285.93 483.43,285.93 484.89,285.85C486.14,285.78 487.4,285.7 488.69,285.63C490.55,285.52 490.55,285.52 492.45,285.41C495.69,285.04 498.07,284.38 501,283C501,282.34 501,281.68 501,281C504,279 504,279 508,279Z" fill="#A5A5A5"/>
	<path d="M240,118C240,118.33 240,118.66 240,119C236.37,119 232.74,119 229,119C229,119.66 229,120.32 229,121C228.01,121 227.02,121 226,121C226,121.66 226,122.32 226,123C225.01,123 224.02,123 223,123C222.73,124.03 222.46,125.06 222.19,126.13C221.19,129.65 219.73,132.77 218,136C217.34,136 216.68,136 216,136C217.49,131.03 219.6,126.58 222,122C221.01,121.34 220.02,120.68 219,120C225.88,117.38 232.72,117.82 240,118Z" fill="#2B2B2B"/>
	<path d="M273,280C273.66,280 274.32,280 275,280C275.33,280.66 275.66,281.32 276,282C276.64,282.28 277.29,282.56 277.95,282.86C281.21,284.68 281.45,287.31 282.47,290.73C283.05,293.22 283.25,295.46 283,298C280,297 280,297 279.02,295.33C278.6,294.27 278.6,294.27 278.18,293.18C277.87,292.42 277.56,291.66 277.25,290.87C276.78,289.67 276.78,289.67 276.31,288.44C275.99,287.63 275.67,286.82 275.34,285.99C274.55,284 273.77,282 273,280Z" fill="#393939"/>
	<path d="M108,265C110.19,265.13 110.19,265.13 113,266C114.26,267.45 115.51,268.91 116.68,270.44C119.65,273.95 123.88,276.1 128,278C124.59,279.14 124,278.87 120.81,277.56C120.1,277.28 119.38,276.99 118.64,276.69C118.1,276.46 117.56,276.24 117,276C117,275.34 117,274.68 117,274C115.37,272.62 113.71,271.28 112,270C111.67,270.66 111.34,271.32 111,272C108,267.25 108,267.25 108,265Z" fill="#C4C4C4"/>
	<path d="M554,242C555.27,245.81 554.65,247.39 553,251C551.19,251.81 551.19,251.81 549,252C548.09,252.19 547.18,252.37 546.25,252.56C545.51,252.71 544.77,252.85 544,253C544.99,250.03 545.98,247.06 547,244C549.97,244.49 549.97,244.49 553,245C553.33,244.01 553.66,243.02 554,242Z" fill="#D7D7D7"/>
	<path d="M199,105C198.67,105.66 198.34,106.32 198,107C194.29,107.03 190.58,107.05 186.88,107.06C185.83,107.07 184.78,107.08 183.7,107.09C178.69,107.1 173.92,107.08 169,106C169,105.67 169,105.34 169,105C179.02,103.5 188.94,104.35 199,105Z" fill="#D8D8D8"/>
	<path d="M458,262C458,262.66 458,263.32 458,264C454.19,267.33 451.71,269.34 446.56,269.31C444.8,269.16 444.8,269.16 443,269C444.33,267.67 445.67,266.33 447,265C447.41,264.42 447.83,263.85 448.25,263.25C451.23,261.12 454.43,261.82 458,262Z" fill="#5A5A5A"/>
	<path d="M127,106C127.33,106.99 127.66,107.98 128,109C129.65,108.67 131.3,108.34 133,108C132.67,108.66 132.34,109.32 132,110C130.51,110.37 130.51,110.37 129,110.75C124.73,111.84 121.57,114.12 118.02,116.66C116,118 116,118 113,119C114.42,115.67 116.13,113.72 118.88,111.38C119.55,110.78 120.23,110.19 120.93,109.59C122.89,108.09 124.76,107.01 127,106Z" fill="#5A5A5A"/>
	<path d="M444,120C448.91,119.57 451.88,119.5 456,122.38C456.99,123.24 457.98,124.11 459,125C459,125.66 459,126.32 459,127C456.69,127 454.38,127 452,127C452,126.34 452,125.68 452,125C451.42,124.92 450.85,124.83 450.25,124.75C447.38,123.79 446,122.22 444,120Z" fill="#585858"/>
	<path d="M282,89C281.55,90.46 281.09,91.92 280.63,93.38C280.37,94.19 280.11,95 279.85,95.84C279,98 279,98 277,100C276.67,98.68 276.34,97.36 276,96C274.02,96.99 272.04,97.98 270,99C270.31,98.4 270.62,97.8 270.94,97.19C272.1,94.91 272.1,94.91 273,92C279.11,89 279.11,89 282,89Z" fill="#E4E4E4"/>
	<path d="M98,241C102.95,242.89 107.59,245.06 112,248C112,248.66 112,249.32 112,250C110.02,250 108.04,250 106,250C105.67,249.01 105.34,248.02 105,247C103.35,247.33 101.7,247.66 100,248C99.34,245.69 98.68,243.38 98,241Z" fill="#D5D5D5"/>
	<path d="M441,269C441,269.33 441,269.66 441,270C437.73,270.2 434.46,270.38 431.19,270.56C429.79,270.65 429.79,270.65 428.37,270.73C427.48,270.78 426.59,270.83 425.67,270.88C424.85,270.93 424.02,270.97 423.18,271.02C421,271 421,271 418,270C418,269.34 418,268.68 418,268C425.85,265.97 433.27,266.95 441,269Z" fill="#232323"/>
	<path d="M453,118C455.75,117.75 455.75,117.75 459,118C461.38,120 461.38,120 463,122C462.01,123.49 462.01,123.49 461,125C457.18,124.47 454.94,123.5 452,121C452.33,120.01 452.66,119.02 453,118Z" fill="#CCCCCC"/>
	<path d="M546,258C546.66,258 547.32,258 548,258C547.47,262.04 546.41,264.18 543.69,267.19C543.09,267.86 542.5,268.54 541.89,269.23C540.01,270.99 538.35,271.99 536,273C536.55,269.63 537.05,267.92 539,265C539.64,264.71 540.28,264.42 540.94,264.13C543.67,262.64 544.47,260.65 546,258Z" fill="#B3B2B3"/>
	<path d="M111,264C114.85,265.81 118.2,268.14 121.68,270.56C124.05,272.03 126.39,273.04 129,274C128.01,274.33 127.02,274.66 126,275C126,275.66 126,276.32 126,277C118.76,274.52 115.14,270.15 111,264Z" fill="#626262"/>
	<path d="M306,257C312.15,256.9 312.15,256.9 314,257C314.33,257.33 314.66,257.66 315,258C317,258.04 319,258.04 321,258C320.67,258.99 320.34,259.98 320,261C323.3,261 326.6,261 330,261C330,261.33 330,261.66 330,262C327.92,262.03 325.83,262.05 323.75,262.06C322.01,262.08 322.01,262.08 320.23,262.1C317.57,262.02 315.53,261.75 313,261C312.13,260.88 311.27,260.75 310.38,260.63C308,260 308,260 306,257Z" fill="#BFBFBF"/>
	<path d="M126,275C131.87,275.52 136.55,276.76 142,279C142,279.33 142,279.66 142,280C129.98,280.57 129.98,280.57 126,277C126,276.34 126,275.68 126,275Z" fill="#191919"/>
	<path d="M274,261C276.38,260.81 276.38,260.81 279,261C279.66,261.99 280.32,262.98 281,264C281.99,264.66 282.98,265.32 284,266C282.44,266.34 280.88,266.67 279.31,267C278.01,267.28 278.01,267.28 276.68,267.56C274.06,267.99 271.64,268.08 269,268C269.83,267.03 270.65,266.06 271.5,265.06C274.11,262.53 274.11,262.53 274,261Z" fill="#C9C9C9"/>
	<path d="M149,106C145.52,108.32 142.13,109.15 138.13,110.13C137.42,110.31 136.71,110.49 135.98,110.68C132.25,111.6 128.84,112.23 125,112C125.33,111.34 125.66,110.68 126,110C128.51,109.22 128.51,109.22 131.69,108.5C135.05,107.72 138.19,106.93 141.44,105.75C144.36,104.89 146.11,105.15 149,106Z" fill="#CFCFCF"/>
	<path d="M510,115C515.94,115.99 515.94,115.99 522,117C520,119 520,119 517.57,119.14C516.08,119.06 516.08,119.06 514.55,118.98C512.94,118.9 512.94,118.9 511.29,118.82C509.6,118.72 509.6,118.72 507.88,118.63C506.17,118.54 506.17,118.54 504.43,118.45C501.62,118.31 498.81,118.16 496,118C499.55,115.63 500.58,115.89 504.69,116.38C506.18,116.54 506.18,116.54 507.7,116.71C508.46,116.81 509.22,116.9 510,117C510,116.34 510,115.68 510,115Z" fill="#D5CECE"/>
	<path d="M414,113C414.66,113 415.32,113 416,113C416,113.66 416,114.32 416,115C416.7,114.79 417.4,114.59 418.13,114.38C421.6,113.92 423.77,114.72 427,116C427,116.66 427,117.32 427,118C420.07,117.67 413.14,117.34 406,117C406,116.67 406,116.34 406,116C408.97,116 411.94,116 415,116C414.67,115.01 414.34,114.02 414,113Z" fill="#C8C8C8"/>
	<path d="M537,118C540,119 541.03,119.65 543,122C543,122.66 543,123.32 543,124C543.66,124 544.32,124 545,124C546.32,126.31 547.64,128.62 549,131C548.01,131.33 547.02,131.66 546,132C546,131.01 546,130.02 546,129C545.34,129 544.68,129 544,129C544,128.01 544,127.02 544,126C542.02,125.34 540.04,124.68 538,124C537.67,122.02 537.34,120.04 537,118Z" fill="#A5A5A4"/>
	<path d="M428.33,118.12C429.53,118.19 429.53,118.19 430.75,118.27C431.58,118.32 432.4,118.38 433.25,118.44C434.09,118.49 434.93,118.54 435.8,118.6C437.86,118.72 439.93,118.86 442,119C442,119.33 442,119.66 442,120C441.08,120.09 441.08,120.09 440.14,120.18C439.33,120.27 438.52,120.35 437.69,120.44C436.89,120.52 436.09,120.6 435.26,120.68C432.84,120.95 432.84,120.95 430,122C427.77,121.95 427.77,121.95 425.38,121.69C424.58,121.61 423.78,121.53 422.96,121.45C422.31,121.3 421.67,121.15 421,121C420.67,120.34 420.34,119.68 420,119C422.91,118.15 425.31,117.93 428.33,118.12Z" fill="#262626"/>
	<path d="M430,115C440.56,114.82 440.56,114.82 445,116C445,116.66 445,117.32 445,118C439.95,119.04 435.13,119.1 430,119C430,117.67 430,116.33 430,115Z" fill="#D4D4D4"/>
	<path d="M268,276C268.72,276.14 269.44,276.29 270.19,276.44C271.99,276.8 273.8,277.11 275.63,277.38C278.34,278.09 279.13,278.97 281,281C282.32,281.66 283.64,282.32 285,283C282.03,283 279.06,283 276,283C275.67,282.01 275.34,281.02 275,280C273.01,279.3 271.01,278.63 269,278C268.67,277.34 268.34,276.68 268,276Z" fill="#A8A8A8"/>
	<path d="M546,137C548.94,138.19 548.94,138.19 552,140C552.88,142.69 552.88,142.69 553,145C551.35,145.33 549.7,145.66 548,146C547.01,143.36 546.02,140.72 545,138C545.33,137.67 545.66,137.34 546,137Z" fill="#E1E1E1"/>
	<path d="M129,274C134.53,273.81 138.76,274.25 144,276C144,276.99 144,277.98 144,279C138.55,278.43 134.09,277.05 129,275C129,274.67 129,274.34 129,274Z" fill="#C3C3C3"/>
	<path d="M242,112C247.94,112 253.88,112 260,112C259.01,113.49 259.01,113.49 258,115C255.9,114.89 253.79,114.76 251.69,114.63C250.52,114.56 249.34,114.49 248.14,114.41C245,114 245,114 242,112Z" fill="#121212"/>
	<path d="M232,108C234.63,107.95 237.25,107.91 239.88,107.88C240.62,107.86 241.37,107.84 242.14,107.82C244.09,107.81 246.05,107.9 248,108C248.66,108.66 249.32,109.32 250,110C244.06,110.33 238.12,110.66 232,111C232,110.01 232,109.02 232,108Z" fill="#DBDBDB"/>
	<path d="M143,104C140.38,105.75 138.44,106.65 135.5,107.63C134.34,108.02 134.34,108.02 133.16,108.41C131,109 131,109 128,109C128,108.01 128,107.02 128,106C132.86,103.41 137.65,103.81 143,104Z" fill="#121212"/>
	<path d="M269,292C273.45,292.99 273.45,292.99 278,294C278.33,293.34 278.66,292.68 279,292C279.99,294.31 280.98,296.62 282,299C276.53,298.6 273.04,296.54 269,293C269,292.67 269,292.34 269,292Z" fill="#B3B3B3"/>
	<path d="M526,110C529.3,111.98 532.6,113.96 536,116C531.88,117.03 531.02,116.95 527.25,115.56C526.45,115.28 525.65,114.99 524.83,114.69C524.22,114.46 523.62,114.24 523,114C523.99,112.68 524.98,111.36 526,110Z" fill="#B9BAB9"/>
	<path d="M275,285C277.13,288.19 277.5,290.27 278,294C276.68,294 275.36,294 274,294C274,293.34 274,292.68 274,292C273.01,291.67 272.02,291.34 271,291C271,289 271,289 273,286.88C273.66,286.26 274.32,285.64 275,285Z" fill="#E6E6E6"/>
	<path d="M273,279C273.33,279.99 273.66,280.98 274,282C271.03,281.67 268.06,281.34 265,281C264.67,282.32 264.34,283.64 264,285C263.01,285 262.02,285 261,285C260.67,283.35 260.34,281.7 260,280C261.6,279.83 263.21,279.67 264.81,279.5C265.71,279.41 266.6,279.31 267.52,279.22C270,279 270,279 273,279Z" fill="#D8D8D8"/>
	<path d="M87,146C88.27,149.65 87.76,152.49 87.06,156.25C86.87,157.33 86.67,158.41 86.47,159.52C86.32,160.34 86.16,161.16 86,162C86.66,162 87.32,162 88,162C87.63,163.94 87.63,163.94 87,166C86.34,166.33 85.68,166.66 85,167C84.63,152.22 84.63,152.22 87,146Z" fill="#8E8E8E"/>
	<path d="M257,276C260.63,276 264.26,276 268,276C268.33,276.99 268.66,277.98 269,279C265.37,279 261.74,279 258,279C257.67,278.01 257.34,277.02 257,276Z" fill="#0D0D0D"/>
	<path d="M416,265C418,268 418,268 418,270C418.99,270.33 419.98,270.66 421,271C419.21,271.19 417.42,271.38 415.63,271.56C414.13,271.72 414.13,271.72 412.6,271.88C410,272 410,272 408,271C408,270.34 408,269.68 408,269C410.64,268.67 413.28,268.34 416,268C416,267.01 416,266.02 416,265Z" fill="#1B1B1B"/>
	<path d="M86,234C89.42,238.33 92.53,243.06 95,248C94.34,248 93.68,248 93,248C93.33,249.32 93.66,250.64 94,252C90.98,249.45 89.79,246.63 88.31,243C87.88,241.95 87.44,240.9 86.99,239.81C86,237 86,237 86,234Z" fill="#3E3E3E"/>
	<path d="M85,170C85.33,170 85.66,170 86,170C86.25,172.08 86.47,174.17 86.69,176.25C86.82,177.41 86.94,178.57 87.07,179.77C86.99,183.32 86.42,184.48 84,187C83.97,184.35 83.95,181.71 83.94,179.06C83.93,178.31 83.92,177.55 83.91,176.78C83.9,174.85 83.95,172.92 84,171C84.33,170.67 84.66,170.34 85,170Z" fill="#D7D7D7"/>
	<path d="M229,113C232.63,113 236.26,113 240,113C240,114.32 240,115.64 240,117C240.99,117.33 241.98,117.66 243,118C239.04,118 235.08,118 231,118C231,117.67 231,117.34 231,117C232.65,117 234.3,117 236,117C236,116.34 236,115.68 236,115C233.69,114.67 231.38,114.34 229,114C229,113.67 229,113.34 229,113Z" fill="#E0E0E0"/>
	<path d="M338,257C338.33,257.99 338.66,258.98 339,260C336.25,260.92 334.64,261.11 331.81,261.06C329.93,261.03 329.93,261.03 328,261C328.33,260.01 328.66,259.02 329,258C331.96,256.52 334.74,256.94 338,257Z" fill="#D9D9D9"/>
	<path d="M260,107C262.6,106.71 262.6,106.71 265.63,106.81C267.13,106.85 267.13,106.85 268.66,106.89C269.43,106.93 270.21,106.96 271,107C270.01,108.49 270.01,108.49 269,110C266.4,110.29 266.4,110.29 263.38,110.19C261.87,110.15 261.87,110.15 260.34,110.11C259.57,110.07 258.79,110.04 258,110C258.66,109.01 259.32,108.02 260,107Z" fill="#0D0D0D"/>
	<path d="M283,88C282.52,92.22 281.83,94.8 279,98C279.56,94.64 280.42,92.01 282,89C281.06,89.45 281.06,89.45 280.1,89.91C279.28,90.29 278.47,90.67 277.63,91.06C276.81,91.45 276,91.83 275.16,92.22C274.45,92.48 273.74,92.74 273,93C272.34,92.67 271.68,92.34 271,92C275.19,88.81 277.71,87.5 283,88Z" fill="#1D1D1D"/>
	<path d="M269,278C269.33,278.66 269.66,279.32 270,280C266.7,280 263.4,280 260,280C260.33,281.65 260.66,283.3 261,285C257.7,284.34 254.4,283.68 251,283C255,281 255,281 258,281C258,280.34 258,279.68 258,279C263.45,278.51 263.45,278.51 269,278Z" fill="#959595"/>
	<path d="M246,265C248.97,265.33 251.94,265.66 255,266C255,267.32 255,268.64 255,270C252.69,270.33 250.38,270.66 248,271C248.66,269.35 249.32,267.7 250,266C248.68,265.67 247.36,265.34 246,265Z" fill="#C8C8C8"/>
	<path d="M276.63,118.88C278.3,118.94 278.3,118.94 280,119C280,119.33 280,119.66 280,120C278.35,120 276.7,120 275,120C275,120.66 275,121.32 275,122C271.69,124.03 269.57,124.13 265.75,123.63C264.86,123.51 263.97,123.4 263.05,123.29C262.03,123.15 262.03,123.15 261,123C264.55,121.03 266.96,121 271,121C273,119 273,119 276.63,118.88Z" fill="#C4C4C4"/>
	<path d="M174.13,114.94C175.22,114.95 176.32,114.96 177.45,114.96C178.29,114.98 179.13,114.99 180,115C176.45,118.55 171.37,118.05 166.56,118.06C165.39,118.04 164.21,118.02 163,118C167.2,115.2 169.1,114.88 174.13,114.94Z" fill="#D3D3D3"/>
	<path d="M268,99C268.66,99.66 269.32,100.32 270,101C269.67,101.99 269.34,102.98 269,104C270.65,104.33 272.3,104.66 274,105C273.67,105.66 273.34,106.32 273,107C269.04,106.67 265.08,106.34 261,106C261.99,105.01 262.98,104.02 264,103C264.66,103 265.32,103 266,103C266.66,101.68 267.32,100.36 268,99Z" fill="#E2E2E2"/>
	<path d="M449,127C451.97,127 454.94,127 458,127C456.68,127.33 455.36,127.66 454,128C454.33,129.32 454.66,130.64 455,132C453.02,132 451.04,132 449,132C449,130.35 449,128.7 449,127Z" fill="#C2C2C2"/>
	<path d="M101,123C101.84,126.07 102.3,128 101,131C98.94,132.25 98.94,132.25 97,133C96.67,132.01 96.34,131.02 96,130C97,128.18 97,128.18 98.44,126.31C98.91,125.69 99.38,125.07 99.87,124.43C100.24,123.96 100.62,123.48 101,123Z" fill="#D9D9D9"/>
	<path d="M274,105C274.99,105 275.98,105 277,105C277,105.99 277,106.98 277,108C274.36,108.66 271.72,109.32 269,110C269.33,109.34 269.66,108.68 270,108C266.7,107.67 263.4,107.34 260,107C260,106.67 260,106.34 260,106C260.93,106.01 261.85,106.02 262.81,106.04C264.6,106.05 264.6,106.05 266.44,106.06C268.23,106.08 268.23,106.08 270.06,106.1C272.89,106.34 272.89,106.34 274,105Z" fill="#979797"/>
	<path d="M326,254C326,254.33 326,254.66 326,255C323.36,255 320.72,255 318,255C318,255.66 318,256.32 318,257C313.05,256.67 308.1,256.34 303,256C303,255.67 303,255.34 303,255C310.68,254.33 318.28,253.84 326,254Z" fill="#5F5F5F"/>
	<path d="M433,120C436.63,120 440.26,120 444,120C444,120.99 444,121.98 444,123C440.04,122.67 436.08,122.34 432,122C432.33,121.34 432.66,120.68 433,120Z" fill="#121212"/>
	<path d="M420,107C421.75,106.95 423.5,106.91 425.25,106.88C426.22,106.85 427.2,106.83 428.2,106.8C431.02,107 432.61,107.55 435,109C432.69,109.66 430.38,110.32 428,111C428,110.34 428,109.68 428,109C425.36,109 422.72,109 420,109C420,108.34 420,107.68 420,107Z" fill="#D3D3D3"/>
	<path d="M420,104C425.99,103.68 429.64,104.32 435,107C433.06,107.56 433.06,107.56 431,108C430.67,107.67 430.34,107.34 430,107C428.15,106.77 426.3,106.59 424.44,106.44C423.43,106.35 422.41,106.27 421.37,106.18C420.2,106.09 420.2,106.09 419,106C419.33,105.34 419.66,104.68 420,104Z" fill="#F3F3F3"/>
	<path d="M439.19,265.94C441.07,265.97 441.07,265.97 443,266C443,266.99 443,267.98 443,269C441.74,269.04 440.48,269.08 439.19,269.13C438.48,269.15 437.77,269.17 437.04,269.2C435,269 435,269 432,267C434.75,266.08 436.36,265.89 439.19,265.94Z" fill="#111111"/>
	<path d="M93,133C93.33,133.66 93.66,134.32 94,135C94.66,135.33 95.32,135.66 96,136C95.24,136.91 94.47,137.82 93.69,138.75C91.72,141.11 89.82,143.51 88,146C88.52,140.72 90.25,137.43 93,133Z" fill="#363636"/>
	<path d="M510,278C510.99,278.33 511.98,278.66 513,279C512.34,279 511.68,279 511,279C511.19,279.8 511.37,280.61 511.56,281.44C511.71,282.28 511.85,283.13 512,284C511,285 511,285 508.44,285.06C507.23,285.03 507.23,285.03 506,285C506.6,282.98 507.27,280.98 508,279C508.66,278.67 509.32,278.34 510,278Z" fill="#A5A4A3"/>
	<path d="M527,278C524.64,280.73 522.43,281.91 519,283C517.68,283 516.36,283 515,283C515,282.34 515,281.68 515,281C519.41,278.8 521.97,277.89 527,278Z" fill="#A0A0A0"/>
	<path d="M423,103C428.28,103 433.56,103 439,103C436.5,105.5 435.52,105.7 432,106C428.96,105.49 425.98,104.79 423,104C423,103.67 423,103.34 423,103Z" fill="#BEBEBE"/>
	<path d="M424.29,270.9C425.66,270.92 425.66,270.92 427.06,270.94C427.98,270.95 428.9,270.96 429.85,270.96C430.56,270.98 431.27,270.99 432,271C432,271.99 432,272.98 432,274C430.74,274.04 429.48,274.08 428.19,274.13C427.48,274.15 426.77,274.17 426.04,274.2C424,274 424,274 421,272C422,271 422,271 424.29,270.9Z" fill="#E0E0E0"/>
	<path d="M108,270C112,270 112,270 115,271C116.69,273.06 116.69,273.06 118,275C115.25,275.31 115.25,275.31 112,275C109.63,272.5 109.63,272.5 108,270Z" fill="#8C8C8C"/>
	<path d="M108,265C110.47,265.49 110.47,265.49 113,266C113.33,267.32 113.66,268.64 114,270C113.34,270 112.68,270 112,270C111.67,270.66 111.34,271.32 111,272C108,267.25 108,267.25 108,265Z" fill="#D7D7D7"/>
	<path d="M89,233C91,235 93,237 95,239C93.68,239 92.36,239 91,239C91.33,240.32 91.66,241.64 92,243C89.28,240.65 88.19,238.38 87,235C87.66,234.34 88.32,233.68 89,233Z" fill="#D1D1D1"/>
	<path d="M127,106C127.33,106.99 127.66,107.98 128,109C129.65,108.67 131.3,108.34 133,108C132.67,108.66 132.34,109.32 132,110C129.93,110.63 129.93,110.63 127.44,111.13C126.61,111.29 125.78,111.46 124.93,111.63C124.3,111.75 123.66,111.88 123,112C122.67,111.01 122.34,110.02 122,109C123.65,108.01 125.3,107.02 127,106Z" fill="#777777"/>
	<path d="M278,284C281.62,288.44 283.33,292.21 283,298C279.7,294.7 278.11,290.7 277.81,286.06C277.87,285.38 277.94,284.7 278,284Z" fill="#8F8F8F"/>
	<path d="M456,264C458.75,264.25 458.75,264.25 461,265C460.34,266.32 459.68,267.64 459,269C456.69,268.67 454.38,268.34 452,268C453.69,265.94 453.69,265.94 456,264Z" fill="#C6C6C6"/>
	<path d="M546,258C546.66,258 547.32,258 548,258C547.69,261.67 547.24,262.78 544.44,265.31C543.63,265.87 542.83,266.43 542,267C542.65,263.52 543.98,260.91 546,258Z" fill="#ADADAD"/>
	<path d="M485.75,256.94C486.73,256.95 487.72,256.96 488.73,256.96C489.86,256.98 489.86,256.98 491,257C491,257.33 491,257.66 491,258C489.61,258.19 489.61,258.19 488.19,258.38C484.86,258.82 484.86,258.82 482,261C481.34,261 480.68,261 480,261C480,260.34 480,259.68 480,259C478.68,258.67 477.36,258.34 476,258C479.31,257 482.3,256.9 485.75,256.94Z" fill="#C0C0C0"/>
	<path d="M129,105C125.54,107.77 121.86,109.85 118,112C119.45,107.4 119.45,107.4 121.81,105.69C124.31,104.9 126.39,104.86 129,105Z" fill="#BCBCBC"/>
	<path d="M525,268C525.66,268.33 526.32,268.66 527,269C527,269.66 527,270.32 527,271C524.24,272.38 521.95,272.1 518.88,272.06C517.78,272.05 516.68,272.04 515.55,272.04C514.29,272.02 514.29,272.02 513,272C513,271.67 513,271.34 513,271C514.17,270.8 514.17,270.8 515.37,270.6C516.38,270.42 517.39,270.24 518.44,270.06C519.45,269.89 520.46,269.71 521.5,269.54C523.93,269.25 523.93,269.25 525,268Z" fill="#E1DAD8"/>
	<path d="M112,118C112.66,118.66 113.32,119.32 114,120C112.35,121.65 110.7,123.3 109,125C108.01,124.67 107.02,124.34 106,124C109.75,119.13 109.75,119.13 112,118Z" fill="#CACACA"/>
	<path d="M306,257C313.51,256.63 313.51,256.63 316,258.5C316.49,259.24 316.49,259.24 317,260C314.36,260.33 311.72,260.66 309,261C308.01,259.68 307.02,258.36 306,257Z" fill="#CACACA"/>
	<path d="M504,113C506.31,113 508.62,113 511,113C510.67,114.32 510.34,115.64 510,117C507.69,117 505.38,117 503,117C503.33,115.68 503.66,114.36 504,113Z" fill="#C3B6B6"/>
	<path d="M269,93C269.66,93.33 270.32,93.66 271,94C268.85,97.22 267.27,98.08 264,100C262.25,101.58 262.25,101.58 261,103C262.43,97.99 264.98,96.06 269,93Z" fill="#383838"/>
	<path d="M523,277C522.34,278.32 521.68,279.64 521,281C519.02,281 517.04,281 515,281C515,280.01 515,279.02 515,278C517.71,276.65 520.01,276.93 523,277Z" fill="#B2AEAF"/>
	<path d="M272,262C269.72,264.07 268.56,264.98 265.42,265.07C264.1,264.88 264.1,264.88 262.75,264.69C261.86,264.57 260.97,264.45 260.05,264.32C259.37,264.22 258.7,264.11 258,264C258,263.67 258,263.34 258,263C262.76,262.05 267.17,261.92 272,262Z" fill="#B1B1B1"/>
	<path d="M537,118C540.4,119.13 541.05,120.13 543,123C542.67,123.66 542.34,124.32 542,125C540.68,124.67 539.36,124.34 538,124C537.67,122.02 537.34,120.04 537,118Z" fill="#B2B2B1"/>
	<path d="M430,118C429.67,118.99 429.34,119.98 429,121C426.36,121 423.72,121 421,121C420.67,120.34 420.34,119.68 420,119C423.38,117.96 426.48,117.92 430,118Z" fill="#494949"/>
	<path d="M282,89C281.34,90.32 280.68,91.64 280,93C279.01,92.67 278.02,92.34 277,92C277,92.66 277,93.32 277,94C275.68,93.34 274.36,92.68 273,92C279.75,89 279.75,89 282,89Z" fill="#BEBEBE"/>
	<path d="M502,277C502,277.66 502,278.32 502,279C501.01,279 500.02,279 499,279C498.34,280.32 497.68,281.64 497,283C496.34,282.01 495.68,281.02 495,280C498.63,277 498.63,277 502,277Z" fill="#BDBEBE"/>
	<path d="M418,268C421.3,268 424.6,268 428,268C424,271 424,271 420.75,270.69C419.84,270.46 418.93,270.23 418,270C418,269.34 418,268.68 418,268Z" fill="#434343"/>
	<path d="M232,268C234.31,268 236.62,268 239,268C238.01,268.66 237.02,269.32 236,270C236.66,270.66 237.32,271.32 238,272C236.35,272 234.7,272 233,272C232.67,270.68 232.34,269.36 232,268Z" fill="#F1F1F1"/>
	<path d="M99,247C100.94,247.31 100.94,247.31 103,248C103.33,248.99 103.66,249.98 104,251C103.34,251.66 102.68,252.32 102,253C100.5,251.69 100.5,251.69 99,250C99,249.01 99,248.02 99,247Z" fill="#E1E1E1"/>
	<path d="M529,123C530.98,123.66 532.96,124.32 535,125C535,125.66 535,126.32 535,127C532.69,127 530.38,127 528,127C528.33,125.68 528.66,124.36 529,123Z" fill="#F6F2F2"/>
	<path d="M159,118C159,118.66 159,119.32 159,120C154.54,120.5 154.54,120.5 150,121C153.07,118.27 154.9,117.66 159,118Z" fill="#D3D3D3"/>
	<path d="M536,270C536,270.99 536,271.98 536,273C535.01,273 534.02,273 533,273C533,273.66 533,274.32 533,275C532.01,275 531.02,275 530,275C532.26,270 532.26,270 536,270Z" fill="#C9C4C5"/>
	<path d="M93,248C97.68,249.48 97.68,249.48 99.31,252.13C99.54,252.74 99.77,253.36 100,254C97,254 97,254 94.81,252.13C93,250 93,250 93,248Z" fill="#E3E3E3"/>
	<path d="M135,104C137.64,104 140.28,104 143,104C139.81,106.13 137.73,106.5 134,107C134.33,106.01 134.66,105.02 135,104Z" fill="#0A0A0A"/>
</svg>
