<svg xmlns="http://www.w3.org/2000/svg" xmlns:android="http://schemas.android.com/apk/res/android" width="24dp" height="24dp" viewportWidth="24" viewportHeight="24">
	<path d="M12,21C13.182,21 14.352,20.767 15.444,20.315C16.536,19.863 17.528,19.2 18.364,18.364C19.2,17.528 19.863,16.536 20.315,15.444C20.767,14.352 21,13.182 21,12C21,10.818 20.767,9.648 20.315,8.556C19.863,7.464 19.2,6.472 18.364,5.636C17.528,4.8 16.536,4.137 15.444,3.685C14.352,3.233 13.182,3 12,3C9.613,3 7.324,3.948 5.636,5.636C3.948,7.324 3,9.613 3,12C3,14.387 3.948,16.676 5.636,18.364C7.324,20.052 9.613,21 12,21ZM23,12C23,18.075 18.075,23 12,23C5.925,23 1,18.075 1,12C1,5.925 5.925,1 12,1C18.075,1 23,5.925 23,12ZM15,16.414L11,12.414V5.5H13V11.586L16.414,15L15,16.414Z" fill="#EB2971"/>
</svg>
