<svg xmlns="http://www.w3.org/2000/svg" xmlns:android="http://schemas.android.com/apk/res/android" width="30dp" height="30dp" viewportWidth="24" viewportHeight="24">
	<path d="M12.868,11.126L11.13,10.841C11.13,10.841 11.046,18.144 11.119,19.011C11.119,19.013 11.567,21.651 11.677,22.961C11.691,23.124 11.828,23.252 11.993,23.252C12.158,23.252 12.294,23.126 12.309,22.961L12.87,19.011C12.866,17.82 12.868,11.126 12.868,11.126Z" fill="#82AEC0"/>
	<path d="M12.861,11.207C12.861,11.207 12.868,12.313 12.868,12.589C12.868,12.864 12.623,13.307 11.987,13.307C11.351,13.307 11.117,12.874 11.117,12.608C11.117,12.341 11.119,11.211 11.119,11.211L12.861,11.207Z" fill="#2F7889"/>
	<path d="M6.698,6.068V6.334C6.857,8.966 8.931,11.119 11.563,11.357C11.722,11.383 11.856,11.383 12.015,11.383C12.174,11.383 12.307,11.383 12.441,11.357C15.073,11.117 17.145,9.017 17.304,6.332V6.066C17.331,3.142 14.938,0.75 12.013,0.75C9.088,0.75 6.698,3.116 6.698,6.068Z" fill="#45F436"/>
	<path d="M12.557,1.644C13.056,2.136 12.926,2.706 12.654,3.199C12.349,3.754 11.638,4.033 10.59,5.544C9.804,6.677 8.137,6.159 7.903,5.261C7.723,4.571 7.867,3.849 8.241,3.253C9.656,0.988 12.058,1.153 12.557,1.644Z" fill="#77FF55"/>
</svg>
