<svg xmlns="http://www.w3.org/2000/svg" xmlns:android="http://schemas.android.com/apk/res/android" width="24dp" height="24dp" viewportWidth="18" viewportHeight="18">
	<path fill="#000000" fill-rule="evenOdd" d="M9,1.5C10.79,1.5 12.507,2.211 13.773,3.477C15.039,4.743 15.75,6.46 15.75,8.25C15.75,10.556 14.493,12.443 13.168,13.796C12.507,14.465 11.785,15.072 11.012,15.608L10.692,15.826L10.542,15.925L10.259,16.105L10.007,16.259L9.695,16.441C9.483,16.562 9.244,16.625 9,16.625C8.756,16.625 8.517,16.562 8.305,16.441L7.993,16.259L7.603,16.019L7.459,15.925L7.151,15.721C6.317,15.156 5.54,14.512 4.832,13.796C3.507,12.442 2.25,10.556 2.25,8.25C2.25,6.46 2.961,4.743 4.227,3.477C5.493,2.211 7.21,1.5 9,1.5ZM9,3C7.608,3 6.272,3.553 5.288,4.538C4.303,5.522 3.75,6.858 3.75,8.25C3.75,9.991 4.704,11.52 5.903,12.747C6.419,13.269 6.976,13.748 7.57,14.179L7.913,14.424C8.024,14.502 8.131,14.573 8.233,14.64L8.526,14.828L8.783,14.984L9,15.111L9.341,14.909L9.616,14.737C9.763,14.644 9.92,14.54 10.087,14.424L10.43,14.179C11.024,13.748 11.581,13.269 12.097,12.747C13.296,11.521 14.25,9.991 14.25,8.25C14.25,6.858 13.697,5.522 12.712,4.538C11.728,3.553 10.392,3 9,3ZM9,5.25C9.796,5.25 10.559,5.566 11.121,6.129C11.684,6.691 12,7.454 12,8.25C12,9.046 11.684,9.809 11.121,10.371C10.559,10.934 9.796,11.25 9,11.25C8.204,11.25 7.441,10.934 6.879,10.371C6.316,9.809 6,9.046 6,8.25C6,7.454 6.316,6.691 6.879,6.129C7.441,5.566 8.204,5.25 9,5.25ZM9,6.75C8.602,6.75 8.221,6.908 7.939,7.189C7.658,7.471 7.5,7.852 7.5,8.25C7.5,8.648 7.658,9.029 7.939,9.311C8.221,9.592 8.602,9.75 9,9.75C9.398,9.75 9.779,9.592 10.061,9.311C10.342,9.029 10.5,8.648 10.5,8.25C10.5,7.852 10.342,7.471 10.061,7.189C9.779,6.908 9.398,6.75 9,6.75Z"/>
</svg>
