<svg xmlns="http://www.w3.org/2000/svg" xmlns:android="http://schemas.android.com/apk/res/android" width="18dp" height="18dp" viewportWidth="18" viewportHeight="18">
	<path d="M9,5.625C9.463,5.625 9.899,5.713 10.31,5.889C10.72,6.064 11.077,6.308 11.382,6.618C11.686,6.929 11.927,7.286 12.102,7.69C12.278,8.095 12.369,8.531 12.375,9C12.375,9.463 12.287,9.899 12.111,10.31C11.936,10.72 11.692,11.077 11.382,11.382C11.071,11.686 10.714,11.927 10.31,12.102C9.905,12.278 9.469,12.369 9,12.375C8.537,12.375 8.101,12.287 7.69,12.111C7.28,11.936 6.923,11.692 6.618,11.382C6.313,11.071 6.073,10.714 5.897,10.31C5.722,9.905 5.631,9.469 5.625,9C5.625,8.537 5.713,8.101 5.889,7.69C6.064,7.28 6.308,6.923 6.618,6.618C6.929,6.313 7.286,6.073 7.69,5.897C8.095,5.722 8.531,5.631 9,5.625Z" fill="#0A8BF1"/>
</svg>
