<svg xmlns="http://www.w3.org/2000/svg" xmlns:android="http://schemas.android.com/apk/res/android" width="24dp" height="24dp" viewportWidth="24" viewportHeight="24">
	<group>
		<clip-path d="M0,0h24v24h-24z"/>
		<path d="M5.04,7.68C2.27,7.68 0,9.943 0,12.706C0,13.776 0.342,14.771 0.92,15.589L4.425,21.647C4.916,22.288 5.242,22.167 5.651,21.613L9.516,15.035C9.594,14.893 9.655,14.743 9.709,14.59C9.954,13.992 10.08,13.352 10.08,12.706C10.08,9.943 7.811,7.68 5.04,7.68ZM5.04,10.035C6.532,10.035 7.718,11.218 7.718,12.706C7.718,14.193 6.532,15.376 5.04,15.376C3.548,15.376 2.362,14.193 2.362,12.706C2.362,11.218 3.548,10.035 5.04,10.035ZM21.06,0C19.444,0 18.12,1.32 18.12,2.932C18.12,3.556 18.319,4.136 18.657,4.613L20.701,8.148C20.988,8.521 21.178,8.45 21.416,8.128L23.671,4.29C23.717,4.208 23.752,4.12 23.783,4.031C23.926,3.682 24,3.309 24,2.932C24,1.32 22.676,0 21.06,0ZM21.06,1.374C21.93,1.374 22.622,2.064 22.622,2.932C22.622,3.799 21.93,4.489 21.06,4.489C20.19,4.489 19.498,3.799 19.498,2.932C19.498,2.064 20.19,1.374 21.06,1.374Z" fill="#EB2971"/>
		<path d="M21.17,8.979C20.631,8.991 20.09,9.014 19.549,9.054L19.632,10.381C20.152,10.344 20.674,10.319 21.195,10.309L21.17,8.979ZM18.296,9.176C17.463,9.279 16.623,9.426 15.793,9.663L16.106,10.95C16.86,10.735 17.642,10.596 18.436,10.497L18.296,9.176ZM14.55,10.109C14.301,10.219 14.06,10.346 13.829,10.489L13.828,10.49L13.826,10.49C13.496,10.698 13.148,10.962 12.865,11.345C12.659,11.623 12.491,11.974 12.451,12.389L13.674,12.525C13.683,12.427 13.733,12.299 13.823,12.178H13.823V12.177C13.968,11.981 14.185,11.804 14.443,11.641L14.444,11.641C14.628,11.527 14.819,11.426 15.017,11.339L14.55,10.109ZM13.92,13.117L13.127,14.134C13.315,14.305 13.512,14.437 13.703,14.548L13.705,14.549L13.707,14.55C14.339,14.91 14.99,15.113 15.594,15.305L15.941,14.029C15.338,13.836 14.769,13.651 14.281,13.373C14.141,13.292 14.019,13.208 13.92,13.117ZM17.12,14.388L16.781,15.666L16.942,15.716L17.139,15.779C17.79,15.991 18.414,16.217 18.972,16.531L19.538,15.35C18.863,14.971 18.163,14.723 17.489,14.504L17.487,14.503L17.285,14.439L17.12,14.388ZM20.688,16.236L19.819,17.177C20.024,17.399 20.178,17.667 20.253,17.943L20.254,17.945L20.254,17.947C20.343,18.27 20.344,18.649 20.274,19.033L21.479,19.29C21.578,18.749 21.594,18.154 21.432,17.567C21.291,17.048 21.022,16.598 20.688,16.236ZM19.853,19.834C19.72,19.975 19.573,20.101 19.415,20.212H19.414C18.982,20.515 18.481,20.744 17.949,20.941L18.346,22.2C18.928,21.985 19.526,21.721 20.084,21.327L20.086,21.326L20.087,21.326C20.316,21.165 20.528,20.981 20.72,20.777L19.853,19.834ZM16.819,21.296C16.048,21.503 15.26,21.661 14.462,21.795L14.65,23.11C15.471,22.972 16.296,22.807 17.115,22.587L16.819,21.296ZM13.262,21.976C12.459,22.086 11.651,22.176 10.842,22.252L10.948,23.577C11.77,23.5 12.594,23.409 13.416,23.296L13.262,21.976ZM9.625,22.356C8.813,22.421 8,22.473 7.186,22.517L7.247,23.846C8.069,23.801 8.892,23.748 9.714,23.683L9.625,22.356ZM5.963,22.577C5.475,22.6 4.986,22.619 4.495,22.636L4.536,23.966C5.029,23.949 5.522,23.929 6.015,23.907L5.963,22.577Z" fill="#EB2971" fill-rule="evenOdd"/>
	</group>
</svg>
