<svg xmlns="http://www.w3.org/2000/svg" xmlns:android="http://schemas.android.com/apk/res/android" width="18dp" height="18dp" viewportWidth="18" viewportHeight="18">
	<path d="M10.402,2.099C9.967,1.882 9.487,1.77 9,1.77C8.514,1.77 8.034,1.882 7.599,2.099L4.326,3.726C3.336,4.217 2.691,5.175 2.7,6.241C2.714,7.84 2.886,9.96 3.554,11.361C4.296,12.916 6.074,14.471 7.485,15.523C8.392,16.198 9.607,16.198 10.513,15.523C11.923,14.471 13.703,12.916 14.444,11.36C15.112,9.96 15.284,7.841 15.298,6.241C15.307,5.176 14.664,4.216 13.673,3.725L10.402,2.099ZM7.198,1.293C7.758,1.015 8.375,0.87 9,0.87C9.625,0.87 10.242,1.015 10.802,1.293L14.074,2.919C15.336,3.546 16.212,4.8 16.198,6.249C16.185,7.853 16.018,10.152 15.258,11.748C14.412,13.523 12.465,15.191 11.052,16.245C10.46,16.69 9.74,16.93 9,16.93C8.26,16.93 7.54,16.69 6.948,16.245C5.535,15.191 3.588,13.523 2.742,11.748C1.98,10.152 1.815,7.853 1.8,6.249C1.787,4.8 2.664,3.546 3.925,2.919L7.198,1.293Z" fill="#111111" fill-rule="evenOdd"/>
	<path d="M8.554,1.35L11.675,2.25L15.241,4.381L15.688,6.75L15.241,9H9.005C8.885,9 8.771,8.953 8.686,8.868C8.602,8.784 8.554,8.669 8.554,8.55V1.35Z" fill="#111111"/>
	<path d="M2.313,8.55H8.55C8.669,8.55 8.784,8.597 8.868,8.682C8.953,8.766 9,8.881 9,9V16.65L4.988,14.4L3.204,11.25L2.313,8.55Z" fill="#111111"/>
</svg>
