<svg xmlns="http://www.w3.org/2000/svg" xmlns:android="http://schemas.android.com/apk/res/android" width="24dp" height="24dp" viewportWidth="24" viewportHeight="24">
	<group>
		<clip-path d="M0,0h24v24h-24z"/>
		<path d="M12,0C5.373,0 0,5.373 0,12C0,18.627 5.373,24 12,24C18.627,24 24,18.627 24,12C24,5.373 18.627,0 12,0ZM7.688,4.767C7.935,4.752 8.158,4.9 8.328,5.162L9.968,8.273C10.141,8.642 10.043,9.037 9.785,9.3L9.034,10.052C8.987,10.115 8.957,10.187 8.956,10.266C9.244,11.381 10.118,12.41 10.89,13.118C11.661,13.825 12.49,14.783 13.566,15.01C13.699,15.047 13.862,15.061 13.957,14.972L14.83,14.083C15.131,13.855 15.567,13.744 15.889,13.931H15.904L18.864,15.678C19.299,15.951 19.344,16.477 19.033,16.797L16.994,18.82C16.692,19.129 16.292,19.233 15.904,19.233C14.185,19.182 12.561,18.338 11.227,17.471C9.037,15.878 7.028,13.902 5.767,11.515C5.283,10.514 4.715,9.237 4.77,8.12C4.774,7.699 4.888,7.288 5.184,7.017L7.223,4.978C7.382,4.842 7.539,4.775 7.688,4.767Z" fill="#4CAF50"/>
	</group>
</svg>
