<svg xmlns="http://www.w3.org/2000/svg" xmlns:android="http://schemas.android.com/apk/res/android" width="13dp" height="15dp" viewportWidth="15" viewportHeight="24">
	<path d="M0,3C0,2.172 0.672,1.5 1.5,1.5H13.5C14.33,1.5 15,2.172 15,3C15,3.828 14.33,4.5 13.5,4.5H10.866C11.316,5.175 11.648,5.934 11.831,6.75H13.5C14.33,6.75 15,7.42 15,8.25C15,9.08 14.33,9.75 13.5,9.75H11.831C11.212,12.483 8.93,14.587 6.108,14.948L12.872,19.739C13.505,20.259 13.702,21.197 13.219,21.872C12.741,22.505 11.803,22.702 11.128,22.219L0.628,14.719C0.098,14.302 -0.127,13.664 0.072,13.041C0.271,12.38 0.848,12 1.5,12H5.25C6.787,12 8.109,11.077 8.686,9.75H1.5C0.672,9.75 0,9.08 0,8.25C0,7.42 0.672,6.75 1.5,6.75H8.686C8.109,5.423 6.787,4.5 5.25,4.5H1.5C0.672,4.5 0,3.828 0,3Z" fill="#000000"/>
</svg>
