<svg xmlns="http://www.w3.org/2000/svg" xmlns:android="http://schemas.android.com/apk/res/android" width="24dp" height="24dp" viewportWidth="24" viewportHeight="24">
	<group>
		<clip-path d="M0,0h24v24h-24z"/>
		<path d="M11,20.9H11C10.521,20.9 10.059,20.719 9.707,20.393C9.356,20.068 9.141,19.622 9.105,19.145L9.103,19.1H14.897C14.874,19.543 14.696,19.966 14.393,20.293C14.068,20.643 13.622,20.859 13.145,20.895L12.998,20.9H11ZM18.9,12.764V12.788L18.911,12.809L20.733,16.453L20.822,16.408L20.733,16.453C20.805,16.597 20.841,16.757 20.838,16.919C20.835,17.08 20.793,17.239 20.715,17.381C20.638,17.522 20.527,17.643 20.392,17.733C20.258,17.822 20.105,17.877 19.945,17.894L19.835,17.9H4.162C4,17.9 3.841,17.861 3.698,17.786C3.555,17.711 3.432,17.602 3.34,17.469C3.248,17.337 3.189,17.183 3.169,17.023C3.149,16.863 3.169,16.701 3.225,16.551L3.269,16.451L5.089,12.809L5.1,12.788V12.764V9C5.1,7.17 5.827,5.415 7.121,4.121C8.415,2.827 10.17,2.1 12,2.1C13.789,2.1 15.508,2.795 16.795,4.038C18.081,5.281 18.834,6.975 18.896,8.763L18.9,9V9.001V12.764ZM6.905,8.779L6.905,8.779L6.905,8.781L6.9,8.998L6.9,8.998V9V12.764C6.9,12.999 6.856,13.232 6.772,13.451L6.698,13.616L5.53,15.955L5.457,16.1H5.619H18.382H18.544L18.472,15.955L17.302,13.613L17.301,13.613C17.196,13.403 17.131,13.176 17.109,12.942L17.1,12.762V9C17.1,7.647 16.563,6.35 15.606,5.394C14.65,4.437 13.353,3.9 12,3.9C10.686,3.9 9.422,4.407 8.473,5.316C7.524,6.225 6.962,7.466 6.905,8.779Z" stroke-width="0.2" fill="#EB2971" stroke="#000000"/>
	</group>
</svg>
