<svg xmlns="http://www.w3.org/2000/svg" xmlns:android="http://schemas.android.com/apk/res/android" width="15dp" height="14dp" viewportWidth="18" viewportHeight="18">
	<path d="M14.625,5.625C14.625,5.774 14.566,5.917 14.46,6.023C14.355,6.128 14.212,6.188 14.063,6.188H11.802C11.808,6.28 11.813,6.374 11.813,6.469C11.811,7.587 11.366,8.66 10.575,9.45C9.785,10.241 8.712,10.686 7.594,10.688H6.517L11.628,15.334C11.684,15.383 11.729,15.443 11.762,15.51C11.794,15.577 11.813,15.65 11.817,15.724C11.821,15.799 11.81,15.873 11.785,15.943C11.76,16.013 11.721,16.078 11.671,16.133C11.621,16.188 11.561,16.233 11.493,16.264C11.426,16.296 11.353,16.313 11.278,16.316C11.204,16.32 11.13,16.308 11.06,16.282C10.99,16.256 10.926,16.217 10.872,16.166L4.684,10.541C4.6,10.465 4.541,10.365 4.515,10.254C4.489,10.144 4.497,10.028 4.538,9.922C4.579,9.816 4.651,9.725 4.744,9.661C4.838,9.597 4.949,9.563 5.063,9.563H7.594C8.414,9.562 9.2,9.235 9.78,8.655C10.36,8.075 10.687,7.289 10.688,6.469C10.688,6.374 10.683,6.28 10.674,6.188H5.063C4.913,6.188 4.77,6.128 4.665,6.023C4.559,5.917 4.5,5.774 4.5,5.625C4.5,5.476 4.559,5.333 4.665,5.227C4.77,5.122 4.913,5.063 5.063,5.063H10.348C10.089,4.555 9.695,4.129 9.209,3.831C8.723,3.533 8.164,3.375 7.594,3.375H5.063C4.913,3.375 4.77,3.316 4.665,3.21C4.559,3.105 4.5,2.962 4.5,2.813C4.5,2.663 4.559,2.52 4.665,2.415C4.77,2.309 4.913,2.25 5.063,2.25H14.063C14.212,2.25 14.355,2.309 14.46,2.415C14.566,2.52 14.625,2.663 14.625,2.813C14.625,2.962 14.566,3.105 14.46,3.21C14.355,3.316 14.212,3.375 14.063,3.375H10.458C10.96,3.839 11.342,4.418 11.571,5.063H14.063C14.212,5.063 14.355,5.122 14.46,5.227C14.566,5.333 14.625,5.476 14.625,5.625Z" fill="#111111"/>
</svg>
