<svg xmlns="http://www.w3.org/2000/svg" xmlns:android="http://schemas.android.com/apk/res/android" width="24dp" height="24dp" viewportWidth="24" viewportHeight="24">
	<group>
		<clip-path d="M0,0h24v24h-24z"/>
		<path d="M12,2C6.477,2 2,6.477 2,12C2,17.523 6.477,22 12,22C17.523,22 22,17.523 22,12C22,6.477 17.523,2 12,2ZM8,8C8,7.735 8.105,7.48 8.293,7.293C8.48,7.105 8.735,7 9,7H15C15.265,7 15.52,7.105 15.707,7.293C15.895,7.48 16,7.735 16,8C16,8.265 15.895,8.52 15.707,8.707C15.52,8.895 15.265,9 15,9H13.465C13.644,9.31 13.783,9.645 13.874,10H15C15.265,10 15.52,10.105 15.707,10.293C15.895,10.48 16,10.735 16,11C16,11.265 15.895,11.52 15.707,11.707C15.52,11.895 15.265,12 15,12H13.874C13.72,12.593 13.433,13.143 13.034,13.607C12.635,14.072 12.135,14.439 11.572,14.68L13.6,16.2C13.812,16.359 13.952,16.596 13.99,16.859C14.028,17.121 13.959,17.388 13.8,17.6C13.641,17.812 13.404,17.952 13.141,17.99C12.879,18.028 12.612,17.959 12.4,17.8L8.408,14.806C8.281,14.714 8.177,14.593 8.106,14.453C8.035,14.312 7.999,14.157 8,14C8,13.743 8.103,13.496 8.27,13.317C8.363,13.216 8.476,13.136 8.602,13.082C8.727,13.027 8.863,12.999 9,13H10C10.351,13 10.696,12.908 11,12.732C11.304,12.557 11.557,12.304 11.732,12H9C8.735,12 8.48,11.895 8.293,11.707C8.105,11.52 8,11.265 8,11C8,10.735 8.105,10.48 8.293,10.293C8.48,10.105 8.735,10 9,10H11.732C11.557,9.696 11.304,9.443 11,9.268C10.696,9.092 10.351,9 10,9H9C8.735,9 8.48,8.895 8.293,8.707C8.105,8.52 8,8.265 8,8Z" fill="#40C611" fill-rule="evenOdd"/>
	</group>
</svg>
