<svg xmlns="http://www.w3.org/2000/svg" xmlns:android="http://schemas.android.com/apk/res/android" width="24dp" height="24dp" viewportWidth="24" viewportHeight="24">
	<path d="M5.426,11.841C5.426,11.841 4.978,13.134 5.241,14.507C5.505,15.879 5.874,17.147 5.874,17.147C5.874,17.147 5.953,19.839 5.874,20.13C5.796,20.421 5.188,20.79 5.188,21.319C5.188,21.847 5.381,22.515 6.358,22.674C7.335,22.834 8.126,22.507 8.452,22.112C8.923,21.54 8.831,21.135 8.831,20.713C8.831,20.291 8.857,17.863 8.962,17.492C9.067,17.122 9.227,16.911 9.517,16.937C9.808,16.963 10.125,17.411 10.151,18.257C10.177,19.101 10.204,20.58 10.177,20.871C10.151,21.161 9.887,22.138 10.099,22.534C10.311,22.929 11.269,23.314 12.007,23.272C12.975,23.22 13.556,22.612 13.609,22.138C13.661,21.664 13.344,20.58 13.344,20.263C13.344,19.946 13.714,17.782 13.819,17.649C13.924,17.518 14.246,17.546 14.953,17.228C15.596,16.937 15.939,16.646 15.939,16.646C15.939,16.646 15.956,18.521 15.93,18.731C15.904,18.943 15.27,19.603 15.375,20.104C15.48,20.604 16.099,20.897 16.65,20.948C17.582,21.036 18.489,20.314 18.726,19.68C18.964,19.046 18.857,18.255 18.804,17.833C18.752,17.411 18.752,15.932 18.804,15.536C18.857,15.141 18.943,14.901 18.977,14.693C19.029,14.349 19.016,13.967 19.016,13.967C19.016,13.967 19.927,13.967 20.468,13.611C21.007,13.254 21.576,12.634 21.827,11.869C22.073,11.121 22.013,10.892 21.801,10.866C21.589,10.839 20.64,12.171 19.834,12.212C18.553,12.278 18.681,10.905 17.704,10.074C16.603,9.137 14.887,9.019 14.887,9.019C14.887,9.019 15.184,7.911 15.188,7.091C15.201,3.514 13.459,2.301 13.459,2.301C13.459,2.301 11.364,0.741 8.989,0.846C6.613,0.951 4.871,2.839 4.871,2.839L3.564,8.606C3.564,8.606 3.894,9.714 4.423,10.521C4.978,11.364 5.426,11.841 5.426,11.841Z" fill="#FFD2B1"/>
	<path d="M3.776,1.56C1.836,1.599 0.81,3.253 0.78,4.266C0.763,4.86 0.529,9.18 2.918,9.268C3.876,9.304 4.588,8.192 4.95,6.932C5.406,5.344 5.385,3.752 5.438,3.328C5.522,2.651 5.663,2.154 5.663,2.154C5.663,2.154 5.426,1.526 3.776,1.56ZM14.164,0.9C16.275,0.979 16.995,1.914 17.199,2.458C17.424,3.053 17.621,5.173 17.291,6.589C17.023,7.744 16.618,8.331 15.667,8.291C14.797,8.256 14.357,7.001 13.701,5.295C13.067,3.645 12.581,2.168 12.499,1.956C12.394,1.678 12.169,1.56 12.169,1.56C12.169,1.56 12.591,0.84 14.164,0.9Z" fill="#865B52"/>
	<path d="M11.749,5.188C10.706,5.254 10.208,6.413 10.429,7.577C10.667,8.831 11.49,9.426 12.527,9.293C13.661,9.148 14.004,7.854 13.86,6.878C13.727,5.989 13.224,5.094 11.749,5.188Z" fill="#D27856"/>
	<path d="M12.975,7.313C12.975,7.86 12.671,8.318 12.189,8.304C11.535,8.286 11.364,7.706 11.377,7.219C11.392,6.649 11.734,6.379 12.221,6.392C12.656,6.401 12.975,6.765 12.975,7.313ZM7.472,7.614C7.472,8.184 7.168,8.661 6.686,8.646C6.032,8.627 5.861,8.023 5.874,7.515C5.889,6.921 6.296,6.668 6.679,6.696C7.112,6.727 7.472,7.044 7.472,7.614ZM9.979,10.798C9.979,10.798 11.126,10.68 11.074,9.847C11.021,9.017 10.243,8.962 9.636,8.976C9.028,8.989 8.158,9.306 8.25,10.005C8.342,10.704 9.332,10.796 9.332,10.796C9.332,10.796 9.33,11.314 8.989,11.351C8.619,11.391 8.091,10.823 7.946,10.678C7.802,10.534 7.577,10.586 7.498,10.704C7.419,10.823 7.472,11.087 7.697,11.312C7.922,11.537 8.449,12.103 8.977,12.051C9.506,11.998 9.519,11.721 9.729,11.708C9.941,11.694 9.928,12.011 10.455,11.998C10.826,11.989 11.574,11.336 11.709,11.22C12.013,10.956 12.092,10.691 11.961,10.521C11.829,10.35 11.46,10.599 11.261,10.746C11.063,10.89 10.742,11.231 10.431,11.288C9.913,11.379 9.979,10.798 9.979,10.798Z" fill="#060401"/>
	<path d="M14.664,9.561C14.664,9.561 14.415,10.108 14.207,10.547C13.956,11.076 13.596,11.537 13.596,11.537C13.596,11.537 14.002,14.319 16.423,14.079C17.289,13.993 17.946,13.314 18.007,12.594C18.112,11.379 17.651,10.811 16.935,10.256C15.774,9.36 14.664,9.561 14.664,9.561ZM12.988,13.913C12.559,14.306 12.789,15.047 13.358,15.127C13.926,15.206 14.231,14.734 14.188,14.376C14.124,13.821 13.477,13.464 12.988,13.913ZM7.38,13.181C7.38,13.181 7.001,14.22 7.802,15.521C8.143,16.074 8.903,16.386 9.439,16.365C10.005,16.344 10.517,16.147 10.956,15.6C11.655,14.728 11.456,13.277 11.456,13.277C11.456,13.277 10.348,13.733 9.332,13.699C8.25,13.665 7.38,13.181 7.38,13.181ZM5.998,21.131C5.723,21.047 5.612,21.474 5.593,21.746C5.574,22.018 5.576,22.371 5.822,22.459C6.068,22.547 6.019,22.024 6.041,21.851C6.086,21.519 6.289,21.219 5.998,21.131ZM7.08,21.291C6.915,21.283 6.741,21.45 6.72,21.934C6.703,22.339 6.72,22.673 6.949,22.691C7.256,22.716 7.17,22.322 7.187,21.996C7.194,21.81 7.423,21.308 7.08,21.291ZM11.278,21.817C11.014,21.817 11.006,22.118 11.006,22.442C11.006,22.768 10.939,23.171 11.235,23.207C11.595,23.25 11.526,22.766 11.526,22.494C11.524,22.258 11.567,21.817 11.278,21.817ZM12.474,21.757C12.262,21.801 12.281,22.091 12.289,22.444C12.298,22.796 12.246,23.169 12.544,23.139C12.799,23.113 12.782,22.699 12.773,22.382C12.765,22.108 12.801,21.688 12.474,21.757ZM16.099,19.464C15.917,19.429 15.711,19.583 15.658,19.993C15.615,20.346 15.632,20.655 15.939,20.722C16.097,20.758 16.125,20.353 16.132,20.063C16.142,19.811 16.327,19.509 16.099,19.464ZM17.093,19.678C16.918,19.65 16.747,19.757 16.702,20.194C16.676,20.449 16.583,20.906 16.899,20.923C17.145,20.934 17.126,20.531 17.149,20.321C17.184,19.989 17.379,19.727 17.093,19.678Z" fill="#D27856"/>
</svg>
