<svg xmlns="http://www.w3.org/2000/svg" xmlns:android="http://schemas.android.com/apk/res/android" width="24dp" height="24dp" viewportWidth="24" viewportHeight="24">
	<group>
		<clip-path d="M0,0h24v24h-24z"/>
		<path d="M12.667,6H14V13.333H12.667L12.667,6Z" fill="#000000"/>
		<path d="M6.667,6C5.333,7.333 4,9.333 4,10.667C4,13.333 7.333,11.333 7.333,11.333L7.333,6H6.667Z" fill="#55ACEE"/>
		<path d="M3.333,24C4.806,24 6,22.806 6,21.333C6,19.861 4.806,18.667 3.333,18.667C1.861,18.667 0.667,19.861 0.667,21.333C0.667,22.806 1.861,24 3.333,24Z" fill="#292F33"/>
		<path d="M3.333,22.667C4.07,22.667 4.667,22.07 4.667,21.333C4.667,20.597 4.07,20 3.333,20C2.597,20 2,20.597 2,21.333C2,22.07 2.597,22.667 3.333,22.667Z" fill="#000000"/>
		<path d="M19.333,15.333H18C17.646,15.333 17.307,15.474 17.057,15.724C16.807,15.974 16.667,16.313 16.667,16.667V20C16.667,20.354 16.807,20.693 17.057,20.943C17.307,21.193 17.646,21.333 18,21.333H19.333C19.687,21.333 20.026,21.193 20.276,20.943C20.526,20.693 20.667,20.354 20.667,20V16.667C20.667,16.313 20.526,15.974 20.276,15.724C20.026,15.474 19.687,15.333 19.333,15.333ZM12.667,15.333H11.333C10.98,15.333 10.641,15.474 10.391,15.724C10.141,15.974 10,16.313 10,16.667V20C10,20.354 10.141,20.693 10.391,20.943C10.641,21.193 10.98,21.333 11.333,21.333H12.667C13.02,21.333 13.359,21.193 13.609,20.943C13.859,20.693 14,20.354 14,20V16.667C14,16.313 13.859,15.974 13.609,15.724C13.359,15.474 13.02,15.333 12.667,15.333Z" fill="#1E5200"/>
		<path d="M1.333,18.918C0.409,19.068 -0.387,18.15 0.667,17.295C2,16.213 5.333,15.671 6.667,16.213C8,16.754 8,22 7.333,22C6.667,22 4.667,18.377 1.333,18.918Z" fill="#000000"/>
		<path d="M7.333,22H16C16.667,22 17.333,22 17.333,20.667C17.333,20 18,18 19.333,18C20.667,18 22.667,20 22.667,20.667C22.667,21.333 22.667,22 23.333,22C24,22 24,21.333 24,20.667V12.667L18.667,12.667C18.667,14.667 18,18 18,18C18,18 17.333,17.333 17.333,18.667C17.333,19.071 16.667,20 16,20H15.333C14.667,20 14,19.556 14,18.885V12.667C14,12 12.667,12 12.667,12.667V18.885C12.667,19.556 12.175,20 11.561,20H9.341C8.667,20 8,19.333 8,18.667V12.667H3.333C3.333,16.667 6.667,22 7.333,22Z" fill="#3E721D"/>
		<path d="M22.667,21.333C22.667,22 23.333,21.333 23.333,20C23.333,18 22.778,16.667 20,16.667C17.222,16.667 16.667,18.667 16.667,20C16.667,20.667 17.333,22 17.333,21.333C17.333,20.667 17.778,20 20,20C22.222,20 22.667,20.667 22.667,21.333Z" fill="#000000"/>
		<path d="M8,12.667H3.333C3.333,12 4,10.667 4,10.667H6.667C6.843,10.667 7.013,10.596 7.138,10.471C7.263,10.346 7.333,10.177 7.333,10L7.333,7.333C7.333,7.333 6,7.333 6,6C6,5.783 6.071,5.565 6.167,5.371C6.382,4.933 6.839,4.667 7.327,4.667L22,4.667C23.333,4.667 24,8 24,12.667L18.667,12.667C18.667,12.667 18.667,7.333 16.667,7.333L8,7.333V12.667Z" fill="#FFAC33"/>
		<path d="M20,24C21.473,24 22.667,22.806 22.667,21.333C22.667,19.861 21.473,18.667 20,18.667C18.527,18.667 17.333,19.861 17.333,21.333C17.333,22.806 18.527,24 20,24Z" fill="#292F33"/>
		<path d="M20,22.667C20.736,22.667 21.333,22.07 21.333,21.333C21.333,20.597 20.736,20 20,20C19.264,20 18.667,20.597 18.667,21.333C18.667,22.07 19.264,22.667 20,22.667Z" fill="#000000"/>
		<path d="M6,12.333V11.667C6,11.578 5.965,11.493 5.902,11.431C5.84,11.368 5.755,11.333 5.667,11.333H3.701C3.524,11.765 3.333,12.309 3.333,12.667H5.667C5.755,12.667 5.84,12.632 5.902,12.569C5.965,12.507 6,12.422 6,12.333Z" fill="#F4900C"/>
	</group>
</svg>
