<svg xmlns="http://www.w3.org/2000/svg" xmlns:android="http://schemas.android.com/apk/res/android" width="500dp" height="500dp" viewportWidth="500" viewportHeight="500">
	<path d="M444.71,349.14H263.96c-3.23,0 -5.86,-2.63 -5.86,-5.86V80.01c0,-3.23 2.63,-5.86 5.86,-5.86h180.75c3.23,0 5.86,2.63 5.86,5.86v263.27C450.57,346.52 447.94,349.14 444.71,349.14zM263.96,74.4c-3.1,0 -5.61,2.52 -5.61,5.61v263.27c0,3.1 2.52,5.61 5.61,5.61h180.75c3.1,0 5.61,-2.52 5.61,-5.61V80.01c0,-3.09 -2.52,-5.61 -5.61,-5.61H263.96z" fill="#F0F0F0"/>
	<path d="M236.28,349.14H55.53c-3.23,0 -5.86,-2.63 -5.86,-5.86V80.01c0,-3.23 2.63,-5.86 5.86,-5.86H236.28c3.23,0 5.86,2.63 5.86,5.86v263.27C242.14,346.52 239.51,349.14 236.28,349.14zM55.53,74.4c-3.09,0 -5.61,2.52 -5.61,5.61v263.27c0,3.1 2.52,5.61 5.61,5.61H236.28c3.1,0 5.61,-2.52 5.61,-5.61V80.01c0,-3.09 -2.52,-5.61 -5.61,-5.61H55.53z" fill="#F0F0F0"/>
	<path d="M0.79,410.21h500v0.25h-500z" fill="#E0E0E0"/>
	<path d="M181.22,99.55h31.57c0.83,0 1.5,-0.67 1.5,-1.5v-7.13c0,-0.83 -0.67,-1.5 -1.5,-1.5h-31.57c-0.83,0 -1.5,0.67 -1.5,1.5v7.13C179.72,98.88 180.39,99.55 181.22,99.55z" fill="#F0F0F0"/>
	<path d="M162.36,112.46h31.57c0.83,0 1.5,-0.67 1.5,-1.5v-7.13c0,-0.83 -0.67,-1.5 -1.5,-1.5h-31.57c-0.83,0 -1.5,0.67 -1.5,1.5v7.13C160.86,111.79 161.53,112.46 162.36,112.46z" fill="#F0F0F0"/>
	<path d="M96.97,251.45H65.4c-0.83,0 -1.5,-0.67 -1.5,-1.5v-7.13c0,-0.83 0.67,-1.5 1.5,-1.5h31.57c0.83,0 1.5,0.67 1.5,1.5v7.13C98.47,250.78 97.79,251.45 96.97,251.45z" fill="#F0F0F0"/>
	<path d="M115.82,264.36H84.25c-0.83,0 -1.5,-0.67 -1.5,-1.5v-7.13c0,-0.83 0.67,-1.5 1.5,-1.5h31.57c0.83,0 1.5,0.67 1.5,1.5v7.13C117.32,263.69 116.65,264.36 115.82,264.36z" fill="#F0F0F0"/>
	<path d="M401.23,261.66h-31.57c-0.83,0 -1.5,-0.67 -1.5,-1.5v-7.13c0,-0.83 0.67,-1.5 1.5,-1.5h31.57c0.83,0 1.5,0.67 1.5,1.5v7.13C402.73,260.99 402.06,261.66 401.23,261.66z" fill="#F0F0F0"/>
	<path d="M438.94,261.66h-31.57c-0.83,0 -1.5,-0.67 -1.5,-1.5v-7.13c0,-0.83 0.67,-1.5 1.5,-1.5h31.57c0.83,0 1.5,0.67 1.5,1.5v7.13C440.44,260.99 439.77,261.66 438.94,261.66z" fill="#F0F0F0"/>
	<path d="M420.08,274.58h-31.57c-0.83,0 -1.5,-0.67 -1.5,-1.5v-7.13c0,-0.83 0.67,-1.5 1.5,-1.5h31.57c0.83,0 1.5,0.67 1.5,1.5v7.13C421.58,273.91 420.91,274.58 420.08,274.58z" fill="#F0F0F0"/>
	<path d="M421.55,324.25h36.07v85.96h-36.07z" fill="#E6E6E6"/>
	<path d="M344.05,324.25h85.96v85.96h-85.96z" fill="#F5F5F5"/>
	<path d="M382.91,324.25h10.62v85.71h-10.62z" fill="#FAFAFA"/>
	<path d="M125.36,324.25h36.07v85.96h-36.07z" fill="#E6E6E6"/>
	<path d="M47.86,324.25h85.96v85.96h-85.96z" fill="#F5F5F5"/>
	<path d="M86.72,324.25h10.62v85.71h-10.62z" fill="#FAFAFA"/>
	<path d="M307.98,369.98h36.07v40.24h-36.07z" fill="#E6E6E6"/>
	<path d="M230.47,369.98h85.96v40.24h-85.96z" fill="#F5F5F5"/>
	<path d="M269.33,369.98h10.62v40.12h-10.62z" fill="#FAFAFA"/>
	<path d="M142.22,284.01h36.07v40.24h-36.07z" fill="#E6E6E6"/>
	<path d="M64.72,284.01h85.96v40.24h-85.96z" fill="#F5F5F5"/>
	<path d="M103.58,284.01h10.62v40.12h-10.62z" fill="#FAFAFA"/>
	<path d="M276.93,93.42h79.02v79.02h-79.02z" fill="#E6E6E6"/>
	<path d="M351.95,97.42l-0,71.02l-71.02,-0l0,-71.02z" fill="#FAFAFA"/>
	<path d="M311.68,152.31c0,0 13.04,-26.74 40.27,-27.27v43.4h-35.51L311.68,152.31z" fill="#F0F0F0"/>
	<path d="M280.93,144.8c0,0 11.73,-6.15 23.65,-1.63c14.97,5.67 23.65,25.27 23.65,25.27h-47.29V144.8z" fill="#F5F5F5"/>
	<path d="M305.29,119.93m-12.53,0a12.53,12.53 0,1 1,25.06 0a12.53,12.53 0,1 1,-25.06 0" fill="#FFFFFF"/>
	<path d="M61.76,93.42h69.33v134.21h-69.33z" fill="#E6E6E6"/>
	<path d="M127.09,97.42l-0,126.21l-61.33,-0l0,-126.21z" fill="#FAFAFA"/>
	<path d="M87,136.53m-12.53,0a12.53,12.53 0,1 1,25.06 0a12.53,12.53 0,1 1,-25.06 0" fill="#FFFFFF"/>
	<path d="M77.23,223.63c0,0 15.52,-74.63 49.86,-81.33v81.33H96.43H77.23z" fill="#F0F0F0"/>
	<path d="M65.76,179.34c0,0 7.9,-7.62 20.42,-3.06c23.52,8.56 36.65,47.35 36.65,47.35H65.76V179.34z" fill="#F5F5F5"/>
	<path d="M383.51,133.8a20.94,20.94 127.95,1 0,41.55 -5.14a20.94,20.94 127.95,1 0,-41.55 5.14z" fill="#E0E0E0"/>
	<path d="M399.92,150.01a19.29,19.29 58.17,1 0,8.79 -37.56a19.29,19.29 58.17,1 0,-8.79 37.56z" fill="#FAFAFA"/>
	<path d="M403.63,113.7h0.72v4.02h-0.72z" fill="#E0E0E0"/>
	<path d="M403.63,144.63h0.72v4.02h-0.72z" fill="#E0E0E0"/>
	<path d="M386.51,130.82h4.02v0.72h-4.02z" fill="#E0E0E0"/>
	<path d="M417.45,130.82h4.02v0.72h-4.02z" fill="#E0E0E0"/>
	<path d="M413.26,121.42l2.84,-2.84l0.51,0.51l-2.84,2.84z" fill="#E0E0E0"/>
	<path d="M391.37,143.27l2.84,-2.85l0.51,0.51l-2.84,2.85z" fill="#E0E0E0"/>
	<path d="M391.38,119.09l0.51,-0.51l2.84,2.84l-0.51,0.51z" fill="#E0E0E0"/>
	<path d="M413.26,140.97l0.51,-0.51l2.84,2.84l-0.51,0.51z" fill="#E0E0E0"/>
	<path d="M403.65,131.27l0.23,-0.58l6.82,2.69l-0.23,0.58z" fill="#E0E0E0"/>
	<path d="M404.3,131.49l-11.25,0l0,-0.62l10.63,0l0,-8.73l0.62,0z" fill="#E0E0E0"/>
	<path d="M468.48,454.02c0,3.5 -96.59,6.33 -215.74,6.33S37,457.52 37,454.02c0,-3.5 96.59,-6.33 215.74,-6.33S468.48,450.52 468.48,454.02z" fill="#F5F5F5"/>
	<path d="M385.33,205.79l18.97,17.02l-82.31,0l-16.08,-17.02z" fill="#407BFF"/>
	<path fill="#FF000000" d="M385.33,205.79l18.97,17.02l-82.31,0l-16.08,-17.02z" strokeAlpha="0.5" fillAlpha="0.5"/>
	<path d="M305.91,205.79h79.46v79.46h-79.46z" fill="#407BFF"/>
	<path fill="#FF000000" d="M305.91,205.79h79.46v79.46h-79.46z" strokeAlpha="0.2" fillAlpha="0.2"/>
	<path d="M280.39,205.79h79.46v79.46h-79.46z" fill="#407BFF"/>
	<path d="M280.42,205.79l-18.97,17.02l82.31,0l16.08,-17.02z" fill="#407BFF"/>
	<path d="M280.42,205.79l-18.97,17.02l82.31,0l16.08,-17.02z" strokeAlpha="0.3" fill="#FFFFFF" fillAlpha="0.3"/>
	<path d="M321.41,233.17c7.41,0 12.44,4.37 12.44,11.55c0,7.79 -5.53,11.22 -12.93,11.22l-0.22,4.37h-5.47l-0.28,-8.68h1.82c6.25,0 11.06,-1.11 11.06,-6.91c0,-3.87 -2.38,-6.25 -6.36,-6.25c-3.92,0 -6.41,2.21 -6.41,6.08h-5.91C309.08,237.87 313.89,233.17 321.41,233.17zM317.87,272.52c-2.27,0 -4.03,-1.77 -4.03,-4.03c0,-2.27 1.77,-4.03 4.03,-4.03c2.21,0 3.98,1.77 3.98,4.03C321.85,270.75 320.08,272.52 317.87,272.52z" fill="#FFFFFF"/>
	<path d="M269.62,285.25h93.66v8.23h-93.66z" fill="#407BFF"/>
	<path fill="#FF000000" d="M269.62,285.25h93.66v8.23h-93.66z" strokeAlpha="0.3" fillAlpha="0.3"/>
	<path d="M363.29,285.25h34.79v8.23h-34.79z" fill="#407BFF"/>
	<path fill="#FF000000" d="M363.29,285.25h34.79v8.23h-34.79z" strokeAlpha="0.5" fillAlpha="0.5"/>
	<path d="M325.97,293.48h5.64v154.89h-5.64z" fill="#263238"/>
	<path d="M325.97,293.48h5.64v154.89h-5.64z" strokeAlpha="0.2" fill="#FFFFFF" fillAlpha="0.2"/>
	<path fill="#FF000000" d="M331.61,297.33l-5.65,2.33l0,-6.19l5.65,0l0,3.86" strokeAlpha="0.2" fillAlpha="0.2"/>
	<path d="M356.39,453.38h-55.19v-0.03c0,-4.49 3.64,-8.13 8.13,-8.13h38.93c4.49,0 8.13,3.64 8.13,8.13V453.38z" fill="#407BFF"/>
	<path d="M86.95,373.05c0,0 6.83,-2.49 8.59,4.74c1.77,7.23 6.82,5.36 7.78,3.78c1.89,-3.12 2.15,-14.41 -1.09,-15.09C98.35,365.65 88.31,369.75 86.95,373.05z" fill="#407BFF"/>
	<path fill="#FF000000" d="M86.95,373.05c0,0 6.83,-2.49 8.59,4.74c1.77,7.23 6.82,5.36 7.78,3.78c1.89,-3.12 2.15,-14.41 -1.09,-15.09C98.35,365.65 88.31,369.75 86.95,373.05z" strokeAlpha="0.4" fillAlpha="0.4"/>
	<path d="M102.23,366.47c-8.01,0.12 -10.12,7.15 -11.41,13.34l-2.6,-4.86l1.85,8.62c-0.2,0.94 -0.41,1.81 -0.64,2.57c-1.93,6.11 -7.87,7.97 -7.87,7.97s-0.36,-2.48 -0.68,-5.96v-0l2.91,-4.58l-3.17,1.33c-0.35,-5.46 -0.4,-12.03 0.93,-15.77c2.57,-7.23 9.47,-5 9.47,-5L102.23,366.47z" fill="#407BFF"/>
	<path d="M122.17,358.88c0,0 -4.2,-1.26 -8.59,4.74c-4.24,5.78 -5.93,6.46 -8.8,4.21c-2.87,-2.25 -1.13,-14.85 2.11,-15.53C110.76,351.49 120.8,355.58 122.17,358.88z" fill="#407BFF"/>
	<path fill="#FF000000" d="M122.17,358.88c0,0 -4.2,-1.26 -8.59,4.74c-4.24,5.78 -5.93,6.46 -8.8,4.21c-2.87,-2.25 -1.13,-14.85 2.11,-15.53C110.76,351.49 120.8,355.58 122.17,358.88z" strokeAlpha="0.4" fillAlpha="0.4"/>
	<path d="M135.66,391.71c0,0 -5.22,-1.63 -8.8,-6.55l4.63,-10.86l-6.35,7.91c-0.27,-0.59 -0.51,-1.21 -0.72,-1.87c-2.75,-8.71 -2.19,-27.63 -18,-27.85l15.73,-3.59c0,0 9.84,-3.18 13.51,7.14c0.94,2.62 1.39,6.22 1.56,10.13l-5.73,-5.3c0,0 3.97,5.76 5.8,8.17C137.38,379.83 135.66,391.71 135.66,391.71z" fill="#407BFF"/>
	<path d="M82.15,342.13c0,0 6.83,-2.49 8.59,4.74c1.77,7.23 10.66,9.99 11.57,6.45c0.97,-3.77 -1.18,-17.19 -4.42,-17.88C94.02,334.63 83.52,338.83 82.15,342.13z" fill="#407BFF"/>
	<path fill="#FF000000" d="M82.15,342.13c0,0 6.83,-2.49 8.59,4.74c1.77,7.23 10.66,9.99 11.57,6.45c0.97,-3.77 -1.18,-17.19 -4.42,-17.88C94.02,334.63 83.52,338.83 82.15,342.13z" strokeAlpha="0.4" fillAlpha="0.4"/>
	<path d="M98.18,335.5c-12.93,0.19 -15.1,13.01 -16.96,22.44l-6.59,-9.51c0.08,0.28 3.58,11.61 4.93,16.11c-3.05,7.94 -10.89,10.4 -10.89,10.4s-2.2,-15.18 -1.49,-26.83c1.93,-1.6 5.33,-4.45 5.33,-4.45l-5.05,1.25c0.25,-2.14 0.65,-4.07 1.21,-5.64c3.67,-10.31 13.51,-7.14 13.51,-7.14L98.18,335.5z" fill="#407BFF"/>
	<path d="M103.32,398.65c-0.02,0 -0.03,-0 -0.05,-0c-0.25,-0.03 -0.43,-0.25 -0.4,-0.5c4.48,-39.85 -6.74,-73.45 -6.86,-73.78c-0.08,-0.24 0.05,-0.49 0.28,-0.57c0.24,-0.08 0.49,0.05 0.57,0.28c0.12,0.34 11.4,34.13 6.9,74.17C103.74,398.48 103.55,398.65 103.32,398.65z" fill="#407BFF"/>
	<path d="M86.11,395.75h34.61v4.85h-34.61z" fill="#263238"/>
	<path d="M86.11,395.75h34.61v4.85h-34.61z" strokeAlpha="0.2" fill="#FFFFFF" fillAlpha="0.2"/>
	<path d="M115.13,400.6H91.51c-2.84,6.59 -12.01,26 -12.01,31.74c0,6.78 8.46,20.93 8.46,20.93c0,1.01 30.71,1.01 30.71,0c0,0 8.46,-14.14 8.46,-20.93C127.14,426.6 117.97,407.18 115.13,400.6z" fill="#263238"/>
	<path d="M152.15,109.24m-21.05,0a21.05,21.05 0,1 1,42.09 0a21.05,21.05 0,1 1,-42.09 0" fill="#407BFF"/>
	<path d="M152.15,109.24m-21.05,0a21.05,21.05 0,1 1,42.09 0a21.05,21.05 0,1 1,-42.09 0" strokeAlpha="0.7" fill="#FFFFFF" fillAlpha="0.7"/>
	<path d="M152.15,130.72c-11.84,0 -21.48,-9.64 -21.48,-21.48c0,-11.84 9.64,-21.48 21.48,-21.48c11.84,0 21.48,9.64 21.48,21.48C173.63,121.09 163.99,130.72 152.15,130.72zM152.15,88.63c-11.37,0 -20.61,9.25 -20.61,20.61s9.25,20.61 20.61,20.61c11.37,0 20.61,-9.25 20.61,-20.61S163.51,88.63 152.15,88.63z" fill="#407BFF"/>
	<path d="M152.32,97.55c4.56,0 7.65,2.69 7.65,7.11c0,4.8 -3.4,6.91 -7.96,6.91l-0.14,2.69h-3.37l-0.17,-5.34h1.12c3.84,0 6.8,-0.68 6.8,-4.25c0,-2.38 -1.46,-3.84 -3.91,-3.84c-2.41,0 -3.95,1.36 -3.95,3.74h-3.64C144.73,100.44 147.69,97.55 152.32,97.55zM150.14,121.77c-1.39,0 -2.48,-1.09 -2.48,-2.48c0,-1.39 1.09,-2.48 2.48,-2.48c1.36,0 2.45,1.09 2.45,2.48C152.59,120.68 151.5,121.77 150.14,121.77z" fill="#407BFF"/>
	<path d="M165.31,125.66l6.86,3.41c0.36,0.18 0.75,-0.18 0.61,-0.55l-3,-7.79C168.25,122.9 166.76,124.6 165.31,125.66z" fill="#407BFF"/>
	<path d="M170.77,164c0.96,4.84 42.12,2.92 40.2,-3.33c-0.32,-1.04 -0.96,-2.08 -1.5,-3.24c-2.67,-5.76 -7.12,-12.98 -21.49,-12.93C179.33,144.52 167.94,149.75 170.77,164z" fill="#407BFF"/>
	<path d="M221.75,435.85l2.11,10.66l5.64,0l0.75,-10.66z" fill="#FFC3BD"/>
	<path d="M228.75,445.16c0,0 1.07,-1.32 2.42,-0.87c1.36,0.45 3.13,2.67 3.13,2.67s7.35,2.36 9.34,2.48c1.99,0.12 3.72,1.24 4.47,5.09h-24.07c0,0 -0.95,-8.68 -1.09,-10.17c-0.15,-1.49 2.21,0.37 2.21,0.37L228.75,445.16z" fill="#407BFF"/>
	<path fill="#FF000000" d="M247.39,453.38c-1.45,-0.01 -2.89,-0.03 -4.34,-0.04c-6.32,-0.06 -12.64,-0.14 -18.97,-0.2c-0.24,0 -0.24,-0.38 0,-0.37c0.43,0.01 0.86,0.01 1.28,0.01c0,-0.01 0.01,-0.04 0.01,-0.05c0.91,-2.01 -0.14,-4.06 -1.96,-5.09c-0.21,-0.11 -0.02,-0.44 0.18,-0.32c1.97,1.11 3.04,3.31 2.14,5.46c0.89,0.01 1.78,0.02 2.67,0.03c6.32,0.06 12.64,0.14 18.96,0.2C247.63,453.01 247.63,453.39 247.39,453.38z"/>
	<path d="M233.45,448.47c0.84,-1.18 2.25,-1.51 3.44,-0.62c0.19,0.14 0.38,-0.18 0.19,-0.32c-1.36,-1.02 -3,-0.58 -3.95,0.76C232.99,448.48 233.31,448.67 233.45,448.47L233.45,448.47z" fill="#FFFFFF"/>
	<path d="M235.52,449.1c0.84,-1.18 2.25,-1.51 3.44,-0.62c0.19,0.14 0.38,-0.18 0.19,-0.32c-1.36,-1.02 -3,-0.58 -3.95,0.76C235.06,449.11 235.39,449.29 235.52,449.1L235.52,449.1z" fill="#FFFFFF"/>
	<path d="M237.67,449.72c0.84,-1.18 2.25,-1.51 3.44,-0.62c0.19,0.14 0.38,-0.18 0.19,-0.32c-1.36,-1.02 -3,-0.58 -3.95,0.76C237.21,449.73 237.53,449.92 237.67,449.72L237.67,449.72z" fill="#FFFFFF"/>
	<path d="M171.34,435.93l1.17,10.58l5.63,0l1.69,-10.58z" fill="#FFC3BD"/>
	<path d="M177.4,445.16c0,0 1.07,-1.32 2.42,-0.87c1.36,0.45 3.13,2.67 3.13,2.67s7.35,2.36 9.34,2.48c1.99,0.12 3.72,1.24 4.47,5.09h-24.07c0,0 -0.95,-8.68 -1.09,-10.17c-0.15,-1.49 2.21,0.37 2.21,0.37L177.4,445.16z" fill="#407BFF"/>
	<path fill="#FF000000" d="M196.04,453.38c-1.45,-0.01 -2.89,-0.03 -4.34,-0.04c-6.32,-0.06 -12.64,-0.14 -18.97,-0.2c-0.24,0 -0.24,-0.38 0,-0.37c0.43,0.01 0.86,0.01 1.28,0.01c0,-0.01 0.01,-0.04 0.01,-0.05c0.91,-2.01 -0.14,-4.06 -1.96,-5.09c-0.21,-0.11 -0.02,-0.44 0.18,-0.32c1.97,1.11 3.04,3.31 2.14,5.46c0.89,0.01 1.78,0.02 2.67,0.03c6.32,0.06 12.64,0.14 18.96,0.2C196.28,453.01 196.28,453.39 196.04,453.38z"/>
	<path d="M182.1,448.47c0.84,-1.18 2.25,-1.51 3.44,-0.62c0.19,0.14 0.38,-0.18 0.19,-0.32c-1.36,-1.02 -3,-0.58 -3.95,0.76C181.64,448.48 181.96,448.67 182.1,448.47L182.1,448.47z" fill="#FFFFFF"/>
	<path d="M184.17,449.1c0.84,-1.18 2.25,-1.51 3.44,-0.62c0.19,0.14 0.38,-0.18 0.19,-0.32c-1.36,-1.02 -3,-0.58 -3.95,0.76C183.71,449.11 184.04,449.29 184.17,449.1L184.17,449.1z" fill="#FFFFFF"/>
	<path d="M186.32,449.72c0.84,-1.18 2.25,-1.51 3.44,-0.62c0.19,0.14 0.38,-0.18 0.19,-0.32c-1.36,-1.02 -3,-0.58 -3.95,0.76C185.85,449.73 186.18,449.92 186.32,449.72L186.32,449.72z" fill="#FFFFFF"/>
	<path d="M219.88,436.23h12.43c1.08,-16.01 4.12,-69.07 1.72,-95.32c1.73,-36.43 -3.84,-84.79 -3.84,-84.79h-39.39c0,0 2.89,32.36 15.84,84.26C206.55,381.5 216.59,422.61 219.88,436.23z" fill="#263238"/>
	<path fill="#FF000000" d="M204.52,331.66c7.12,-29.08 0.87,-66.8 0.87,-66.8l-6.14,43.08L204.52,331.66z" strokeAlpha="0.2" fillAlpha="0.2"/>
	<path d="M218.4,435.92l0.91,4.73l14.26,-0.06l0.01,-4.73z" fill="#263238"/>
	<path d="M169.57,436.69H182c4.43,-16.47 13.33,-69.43 14.75,-95.69c7.04,-36.43 10.41,-84.88 10.41,-84.88h-39.39c0,0 -3.66,32.73 1.72,84.63C168.45,386 169.28,422.61 169.57,436.69z" fill="#263238"/>
	<path d="M168.48,435.9l-0.03,4.68l14.37,0l0.75,-4.68z" fill="#263238"/>
	<path d="M235.34,262.06c-27.32,10.5 -71.83,2.89 -71.83,2.89c0.53,-13.36 0.99,-39.82 0.81,-61.81c-0.01,-0.51 -0.01,-1.02 -0.02,-1.53c-0.03,-3.12 -0.08,-6.14 -0.14,-9c-0.01,-0.35 -0.01,-0.7 -0.02,-1.04c-0.13,-5.62 -0.33,-10.59 -0.59,-14.57c-0.5,-7.49 3.57,-14.46 10.98,-15.71c2.25,-0.38 4.68,-0.71 7.21,-0.98c0.6,-0.07 1.21,-0.13 1.83,-0.19c7.02,-0.69 14.72,-0.99 21.75,-0.79c0.35,0 0.7,0.01 1.05,0.02c0.18,0.01 0.38,0.01 0.56,0.02c0.3,0.01 0.61,0.02 0.91,0.04c3.13,0.13 6.1,0.36 8.76,0.71c6.04,0.78 11.41,5.55 11.51,11.65c0.09,5.59 0.64,17.39 1.43,30.7c0.3,5.04 0.64,10.31 1.01,15.53C231.98,238.55 233.8,258.47 235.34,262.06z" fill="#407BFF"/>
	<path d="M165.63,237.61c0.01,0.01 0.02,0.03 0.02,0.04l-0.03,-0.02c-0.04,-0.02 -0.08,-0.02 -0.13,-0.02l-3.96,7.43c-0.26,-0.14 -0.51,-0.28 -0.76,-0.43l-0.19,-0.12l-0.12,-0.08l-0.22,-0.16l-0.46,-0.32l-0.37,-0.28c-0.51,-0.38 -0.92,-0.72 -1.36,-1.08c-0.83,-0.71 -1.62,-1.41 -2.39,-2.12c-1.53,-1.41 -3,-2.82 -4.46,-4.25c-2.88,-2.89 -5.67,-5.83 -8.38,-8.85c-2.73,-3.02 -5.36,-6.11 -7.96,-9.42c-0.65,-0.83 -1.31,-1.69 -1.95,-2.61c-0.33,-0.48 -0.65,-0.92 -0.99,-1.47c-0.33,-0.5 -0.68,-1.09 -1.07,-1.82l-0.31,-0.66l-0.16,-0.33c-0.07,-0.19 -0.15,-0.41 -0.22,-0.61l-0.19,-0.64c-0.06,-0.27 -0.1,-0.22 -0.21,-1.06c-0.08,-0.65 -0.09,-1.33 -0.02,-1.99l0.06,-0.49c0.03,-0.15 0.06,-0.34 0.08,-0.4l0.15,-0.53c0.11,-0.36 0.25,-0.71 0.4,-1.06l0.23,-0.5l0.13,-0.25l0.05,-0.09l0.43,-0.71c0.34,-0.54 0.5,-0.75 0.72,-1.06c0.85,-1.17 1.53,-1.98 2.24,-2.85c2.79,-3.29 5.55,-6.2 8.34,-9.15c2.81,-2.9 5.61,-5.78 8.48,-8.57c5.71,-5.63 11.51,-11.1 17.56,-16.37l11.44,12.58c-5.69,5.45 -11.56,10.78 -17.41,16.06l-8.74,7.92c-2.8,2.51 -5.62,5.1 -8.15,7.58c0.2,0.36 0.41,0.72 0.63,1.08c1.94,3.2 4.14,6.45 6.3,9.69c2.2,3.23 4.42,6.47 6.68,9.64c1.12,1.6 2.25,3.18 3.4,4.71c0.57,0.77 1.15,1.5 1.71,2.21l0.79,0.98l0.31,0.37L165.63,237.61z" fill="#407BFF"/>
	<path d="M193.21,168.05c0,0 5.18,21.49 3.69,42.39" strokeLineJoin="round" stroke-width="0.5" fill="#00000000" stroke="#FFFFFF" strokeLineCap="round"/>
	<path d="M204.98,167.59c0,0 5.18,21.49 3.69,42.39" strokeLineJoin="round" stroke-width="0.5" fill="#00000000" stroke="#FFFFFF" strokeLineCap="round"/>
	<path fill="#FF000000" d="M230.55,218c-10.1,-14.73 -17.71,-31.09 -22.57,-49.25l21.56,33.72C229.84,207.51 230.18,212.78 230.55,218z" strokeAlpha="0.2" fillAlpha="0.2"/>
	<path fill="#FF000000" d="M178.01,231.06c0,0 1.94,13.12 1.25,20.67c0,0 21.55,3.38 44.21,-1.64c0.9,-5.09 0.85,-12.78 -1.21,-20.36C208.93,229.06 193.96,229.68 178.01,231.06z" strokeAlpha="0.2" fillAlpha="0.2"/>
	<path d="M210.55,117.54c-4.27,-1.52 -9.02,-1.33 -13.03,0.77c-2.62,1.37 -4.91,3.46 -4.85,6.6c0.13,7.33 2.17,19.58 2.17,19.58l24.73,-11.18c0,0 1.8,-6.14 -1.1,-10.05C216.33,120.36 213.71,118.67 210.55,117.54z" fill="#263238"/>
	<path d="M192.78,132.59c0,0 0.54,-2.13 -1.92,-6.08c-2.46,-3.95 0.24,-6.42 2.13,-5.85c0,0 -0.99,-2.44 0.65,-3.27c1.64,-0.83 2.47,0.12 2.47,0.12s6.16,-4.93 14.54,-3.28c6.74,1.33 11.73,-3.37 14.24,-1.54c2.5,1.83 -2.05,3.54 -2.05,3.54s4.05,2.23 3.42,4.31c-0.63,2.08 -4.34,2.24 -4.34,2.24s3.85,2.56 2.28,4.26c-1.57,1.7 -6.47,-0.36 -6.47,-0.36S198.3,126.58 192.78,132.59z" fill="#263238"/>
	<path d="M205.65,153.6l0,0.01c-0.02,0.03 -0.03,0.05 -0.04,0.08l-1.56,4.05c-0.18,0.84 -0.29,1.69 -0.31,2.52c-0.02,0.7 0.01,1.39 0.09,2.05c0.78,1.36 0.91,4.26 -2.36,3.92c-4.12,-0.42 -11.1,-6.88 -11.17,-8.73c2.51,-5.42 4.9,-12.19 5.18,-17.6l4.14,5.59L205.65,153.6z" fill="#FFC3BD"/>
	<path fill="#FF000000" d="M205.61,153.7l-1.56,4.05c-2.45,-1.45 -4.87,-4.28 -5.19,-7.09c-0.22,-2.02 0.88,-3.78 1.68,-3.79L205.61,153.7z" strokeAlpha="0.2" fillAlpha="0.2"/>
	<path d="M216.97,146.09c-0.34,0.88 -0.71,1.75 -1.1,2.6c-3.44,7.5 -13.12,7.16 -18.47,0.78c-0.01,-0.01 -0.01,-0.02 -0.02,-0.03c-0.47,-0.57 -0.92,-1.18 -1.32,-1.85c-3.25,-5.41 -1.88,-9.14 -0.37,-17.79c1.52,-8.64 11.42,-13.07 18.83,-7.76C221.38,126.95 220.41,137.28 216.97,146.09z" fill="#FFC3BD"/>
	<path d="M209.25,145.27c-0.34,0.92 -1.19,1.46 -1.89,1.2c-0.7,-0.26 -0.99,-1.22 -0.65,-2.14c0.34,-0.92 1.19,-1.46 1.89,-1.2C209.3,143.39 209.59,144.35 209.25,145.27z" fill="#FFFFFF"/>
	<path d="M202.95,128.46c2.26,-0.32 0.72,-2.8 1.2,-4.2c1.57,-4.54 13.91,-1.43 15.33,5.51c0,0 -0.34,-5.29 -4.19,-8.53c-3.85,-3.24 -12.13,-4.71 -15.94,-0.97c-3.81,3.74 -3.83,10.34 -3.83,10.34s-0.1,1.19 0.63,1.98c0.41,0.4 1.13,2.22 2.33,2.71c1.02,0.41 1.8,0.25 2.18,-1.23C201.04,132.58 201.44,128.67 202.95,128.46z" fill="#263238"/>
	<path d="M190.68,134.61c0.1,2.37 1.28,4.46 2.73,5.76c2.18,1.95 4.56,0.31 5.03,-2.43c0.42,-2.46 -0.21,-6.44 -2.92,-7.34C192.85,129.72 190.57,131.91 190.68,134.61" fill="#FFC3BD"/>
	<path d="M208.36,135.1c-0.16,0.67 0.06,1.3 0.5,1.41c0.44,0.1 0.93,-0.35 1.09,-1.02c0.16,-0.67 -0.06,-1.3 -0.5,-1.41C209.01,133.97 208.52,134.43 208.36,135.1" fill="#263238"/>
	<path d="M215.74,136.78c-0.16,0.67 0.06,1.3 0.5,1.41c0.44,0.1 0.93,-0.35 1.09,-1.02c0.16,-0.67 -0.06,-1.3 -0.5,-1.41C216.39,135.65 215.91,136.11 215.74,136.78" fill="#263238"/>
	<path d="M218.38,134.76c-0.12,-0.03 -0.22,-0.12 -0.25,-0.24c-0.16,-0.56 -0.44,-0.95 -0.83,-1.16c-0.65,-0.35 -1.42,-0.12 -1.43,-0.12c-0.18,0.06 -0.38,-0.04 -0.44,-0.23c-0.06,-0.18 0.05,-0.38 0.23,-0.44c0.04,-0.01 1.05,-0.32 1.97,0.17c0.56,0.31 0.96,0.84 1.17,1.59c0.05,0.19 -0.05,0.38 -0.24,0.43C218.49,134.78 218.43,134.78 218.38,134.76z" fill="#263238"/>
	<path d="M206.93,132.04c-0.05,-0.01 -0.11,-0.04 -0.15,-0.08c-0.16,-0.13 -0.18,-0.37 -0.05,-0.53c0.03,-0.04 0.77,-0.92 1.89,-1.01c0.69,-0.06 1.37,0.19 2.01,0.75c0.16,0.14 0.17,0.38 0.04,0.53c-0.14,0.16 -0.38,0.17 -0.53,0.04c-0.47,-0.41 -0.96,-0.6 -1.44,-0.56c-0.8,0.06 -1.37,0.73 -1.37,0.74C207.21,132.02 207.06,132.07 206.93,132.04z" fill="#263238"/>
	<path d="M212.97,135.6c0,0 0.35,3.08 1.28,5.21c0.94,2.14 -2.75,1.34 -2.75,1.34L212.97,135.6z" fill="#ED847E"/>
	<path fill="#FF000000" d="M177.14,180.37l-12.84,21.24c-0.03,-3.12 -0.08,-6.14 -0.14,-9c-0.01,-0.35 -0.01,-0.7 -0.02,-1.04L177.14,180.37z" strokeAlpha="0.2" fillAlpha="0.2"/>
	<path d="M239.16,212.18c-4.11,1.87 -8.94,0.27 -11.21,-3.52c-0.15,-0.25 -0.29,-0.49 -0.44,-0.74c-0.29,-0.49 -0.58,-0.99 -0.87,-1.49c-0.15,-0.24 -0.29,-0.49 -0.43,-0.74c-0.47,-0.8 -0.93,-1.61 -1.4,-2.42c-0.51,-0.9 -1.03,-1.8 -1.55,-2.71c-0.51,-0.9 -1.02,-1.8 -1.54,-2.71c-0.52,-0.9 -1.03,-1.81 -1.53,-2.71c-0.51,-0.91 -1.02,-1.82 -1.52,-2.73c-0.06,-0.11 -0.12,-0.22 -0.18,-0.33c-0.95,-1.71 -1.9,-3.43 -2.84,-5.14c-1.99,-3.66 -3.96,-7.33 -5.88,-11.03c-1.92,-3.71 -3.82,-7.42 -5.61,-11.21l7.87,-5.15c2.75,3.16 5.39,6.4 8.01,9.65c0.29,0.36 0.58,0.72 0.87,1.09l6.01,-3.14c1.5,2.64 2.92,5.32 4.32,8.02c1.39,2.69 2.77,5.4 4.11,8.12c1.34,2.72 2.68,5.45 3.97,8.2c1.31,2.74 2.59,5.5 3.85,8.26l0.35,0.78C245.53,204.95 243.58,210.17 239.16,212.18z" fill="#407BFF"/>
	<path d="M223.26,200.56c-0.11,-0.18 -0.21,-0.35 -0.31,-0.53c-0.94,-1.62 -1.86,-3.25 -2.76,-4.89c0.5,0.9 1.01,1.81 1.53,2.71C222.24,198.76 222.75,199.66 223.26,200.56z" fill="#407BFF"/>
	<path d="M212.04,161.58c-0.19,1.52 -1.29,3.88 -3.5,3.8c-2.07,-0.08 -3.8,-0.78 -4.01,-0.87c-0.01,-0.01 -0.02,-0.01 -0.02,-0.01c-1.69,-0.43 -4.86,-1.5 -5.95,-3.59c-1.53,-2.92 0.86,-7.5 0.86,-7.5c-2.48,-2.35 -5.41,-6.39 -3.36,-5.47c2.04,0.92 10.09,6.54 12.98,5.91c2.68,-0.59 3.62,-2.92 4.61,-2.45c1.15,0.54 -0.98,2.62 -2.05,4.78C211.59,156.18 212.33,159.27 212.04,161.58z" fill="#FFC3BD"/>
	<path fill="#FF000000" d="M203.79,164.55c-0.04,0 -0.07,-0.01 -0.1,-0.02c-0.21,-0.1 -5.06,-2.37 -5.94,-4.86c-0.79,-2.22 0.9,-5.4 1.36,-6.2c-0.64,-0.57 -3.02,-2.71 -3.66,-4.02c-0.35,-0.72 -0.43,-1.24 -0.24,-1.58c0.15,-0.27 0.41,-0.31 0.44,-0.31c1.03,0.01 2.08,0.79 3.53,1.86c1.44,1.06 3.24,2.38 5.67,3.45c4.38,1.92 5.16,0.75 5.68,-0.02l0.2,-0.29c0.58,-0.83 1.54,-2.22 3.18,-1.56c0.13,0.05 0.19,0.2 0.14,0.32c-0.05,0.13 -0.2,0.19 -0.32,0.14c-1.18,-0.47 -1.87,0.34 -2.58,1.38l-0.19,0.28c-0.78,1.15 -1.91,2.12 -6.3,0.2c-2.48,-1.09 -4.31,-2.43 -5.77,-3.51c-1.32,-0.97 -2.37,-1.74 -3.21,-1.76c0.02,0 -0.01,0.01 -0.04,0.06c-0.03,0.07 -0.11,0.35 0.26,1.11c0.68,1.39 3.66,3.97 3.69,4c0.09,0.08 0.11,0.22 0.05,0.32c-0.02,0.04 -2.23,3.68 -1.42,5.96c0.81,2.29 5.63,4.55 5.68,4.57c0.13,0.06 0.18,0.21 0.12,0.33C203.97,164.5 203.88,164.55 203.79,164.55z" strokeAlpha="0.2" fillAlpha="0.2"/>
	<path fill="#FF000000" d="M215.58,163.58L237,196.17C237,196.17 234.5,185.25 215.58,163.58z" strokeAlpha="0.2" fillAlpha="0.2"/>
	<path d="M164.17,237.77c0,0 8.62,2.65 9.3,4.34c0.68,1.68 -2.13,1.25 -2.13,1.25s3.07,0.65 2.99,1.83c-0.1,1.42 -3.05,0.95 -3.05,0.95s2.49,0.62 2.34,1.66c-0.16,1.09 -3.52,0.77 -3.52,0.77s1.67,0.73 1.1,1.38s-6.84,0.2 -8.82,-1.21c-1.98,-1.41 -0.7,-9.31 -0.12,-11.02c0.58,-1.72 -0.44,-3.5 2,-5.47L164.17,237.77L164.17,237.77z" fill="#FFC3BD"/>
	<path fill="#FF000000" d="M171.32,243.49c-0,-0 -0.01,-0 -0.01,-0L166,242.13c-0.07,-0.02 -0.11,-0.09 -0.1,-0.16c0.02,-0.07 0.09,-0.12 0.16,-0.1l5.31,1.35c0.07,0.02 0.11,0.09 0.1,0.16C171.45,243.46 171.39,243.5 171.32,243.49z" strokeAlpha="0.2" fillAlpha="0.2"/>
	<path fill="#FF000000" d="M171.11,246.25c-0,0 -0,0 -0,-0l-5.2,-0.94c-0.07,-0.01 -0.12,-0.08 -0.11,-0.16c0.01,-0.07 0.07,-0.11 0.16,-0.11l5.2,0.94c0.07,0.01 0.12,0.08 0.11,0.16C171.25,246.21 171.18,246.26 171.11,246.25z" strokeAlpha="0.2" fillAlpha="0.2"/>
	<path fill="#FF000000" d="M169.9,248.67l-3.88,-0.6c-0.07,-0.01 -0.12,-0.08 -0.11,-0.15c0.01,-0.07 0.08,-0.12 0.15,-0.11l3.88,0.6c0.07,0.01 0.12,0.08 0.11,0.15C170.04,248.64 169.97,248.69 169.9,248.67z" strokeAlpha="0.2" fillAlpha="0.2"/>
</svg>
